<?xml version="1.0" encoding="UTF-8" standalone="no"?>
<!-- Created with Inkscape (http://www.inkscape.org/) -->

<svg
   xmlns:dc="http://purl.org/dc/elements/1.1/"
   xmlns:cc="http://creativecommons.org/ns#"
   xmlns:rdf="http://www.w3.org/1999/02/22-rdf-syntax-ns#"
   xmlns:svg="http://www.w3.org/2000/svg"
   xmlns="http://www.w3.org/2000/svg"
   xmlns:sodipodi="http://sodipodi.sourceforge.net/DTD/sodipodi-0.dtd"
   xmlns:inkscape="http://www.inkscape.org/namespaces/inkscape"
   width="297mm"
   height="210mm"
   viewBox="0 0 297 210"
   version="1.1"
   id="svg8"
   inkscape:version="0.92.4 (5da689c313, 2019-01-14)"
   sodipodi:docname="cadeirante.svg">
  <defs
     id="defs2"><clipPath
   id="clipPath4542"
   clipPathUnits="userSpaceOnUse">
  <path
     inkscape:connector-curvature="0"
     id="path4540"
     d="M 0,600.429 H 884.571 V 0 H 0 Z" />
</clipPath>
<clipPath
   id="clipPath4814"
   clipPathUnits="userSpaceOnUse">
  <path
     inkscape:connector-curvature="0"
     id="path4812"
     d="m 474.48,544.961 h 11.955 V 532.088 H 474.48 Z" />
</clipPath>
<clipPath
   id="clipPath4830"
   clipPathUnits="userSpaceOnUse">
  <path
     inkscape:connector-curvature="0"
     id="path4828"
     d="m 490.763,545.114 h 10.765 V 532.24 h -10.765 z" />
</clipPath>
<clipPath
   id="clipPath5126"
   clipPathUnits="userSpaceOnUse">
  <path
     inkscape:connector-curvature="0"
     id="path5124"
     d="m 538.679,482.061 h 24.65 v -11.93 h -24.65 z" />
</clipPath>

	
	

		
	</defs>
  <sodipodi:namedview
     id="base"
     pagecolor="#ffffff"
     bordercolor="#666666"
     borderopacity="1.0"
     inkscape:pageopacity="0.0"
     inkscape:pageshadow="2"
     inkscape:zoom="0.35"
     inkscape:cx="343.49243"
     inkscape:cy="560"
     inkscape:document-units="mm"
     inkscape:current-layer="layer1"
     showgrid="false"
     inkscape:window-width="1280"
     inkscape:window-height="658"
     inkscape:window-x="-8"
     inkscape:window-y="-8"
     inkscape:window-maximized="1"
     units="mm"
     width="149mm" />
  <metadata
     id="metadata5">
    <rdf:RDF>
      <cc:Work
         rdf:about="">
        <dc:format>image/svg+xml</dc:format>
        <dc:type
           rdf:resource="http://purl.org/dc/dcmitype/StillImage" />
        <dc:title></dc:title>
      </cc:Work>
    </rdf:RDF>
  </metadata>
  <g
     inkscape:label="Layer 1"
     inkscape:groupmode="layer"
     id="layer1"
     transform="translate(0,-87)">
    <g
       id="g13067"
       transform="matrix(0.40018625,0,0,0.39292118,21.968613,66.710417)">
	<polygon
   style="fill:#e5e4e4"
   class="st0"
   points="230.04,581.78 299.77,548.52 230.04,515.26 90.58,515.26 20.85,548.52 90.58,581.78 "
   id="polygon12953" />

	<g
   id="g13065">
		<g
   id="g12959">
			<path
   style="fill:#484848"
   inkscape:connector-curvature="0"
   class="st17"
   d="m 284.12,498.86 c -2.51,-3.16 -19.43,-7.53 -19.43,-7.53 l -15.6,3.12 c -0.02,-0.82 -0.04,-1.63 -0.07,-2.44 -0.72,-17.72 -4.82,-32.01 -12.14,-42 3.65,-2.36 4.96,-8.09 4.96,-8.09 v 0 0 c 0,0 0,-0.02 -0.01,-0.07 0,-0.01 0,-0.03 0,-0.04 0,-0.04 -0.01,-0.07 -0.01,-0.13 0,-0.04 -0.01,-0.09 -0.02,-0.15 -0.01,-0.05 -0.01,-0.09 -0.02,-0.14 -0.01,-0.07 -0.02,-0.14 -0.03,-0.22 -0.01,-0.05 -0.01,-0.1 -0.02,-0.16 -0.01,-0.1 -0.03,-0.21 -0.04,-0.33 0,-0.03 -0.01,-0.07 -0.01,-0.11 -0.12,-0.96 -0.32,-2.4 -0.61,-4.13 0,0 0,0 0,-0.01 -0.75,-4.42 -2.12,-10.74 -4.4,-15.94 0,0 0,0 0,0 -0.15,-0.34 -0.31,-0.68 -0.47,-1.01 0,-0.01 -0.01,-0.01 -0.01,-0.02 -0.8,-1.67 -1.71,-3.2 -2.73,-4.46 0,0 0,0 0,0 v 0 c -1,-1.24 -2.11,-2.24 -3.34,-2.88 -2.13,-1.1 -4.82,-1.62 -7.71,-1.77 0,0 0,0 0,0 0,0 0,0 0,0 -7.57,-0.4 -16.45,1.74 -19.99,2.7 -0.01,0 -0.01,0 -0.02,0.01 -0.13,0.04 -0.26,0.07 -0.38,0.1 -0.01,0 -0.03,0.01 -0.04,0.01 -0.32,0.09 -0.58,0.16 -0.76,0.22 -0.03,0.01 -0.06,0.02 -0.09,0.03 -0.05,0.01 -0.08,0.02 -0.12,0.03 -0.04,0.01 -0.07,0.02 -0.1,0.03 0,0 -0.01,0 -0.01,0 -0.03,0.01 -0.05,0.02 -0.05,0.02 0.13,-0.37 0.25,-0.75 0.37,-1.14 l 14.1,-2.85 v -5.49 -0.08 l -10.98,-3.33 -6.96,1.17 c -0.1,-0.08 -0.2,-0.15 -0.31,-0.22 l 19.3,-4.3 c 0,0 -3.87,-8.79 -7.73,-13.39 -0.44,-0.53 -0.89,-1 -1.32,-1.4 -0.61,-0.55 -0.87,-1.98 -1.45,-2.14 -1.32,-0.36 -4.91,-0.28 -9.5,0.02 1.65,-0.43 3.31,-0.87 4.97,-1.33 2.13,-0.59 4.24,-1.2 6.32,-1.82 0.15,0.05 0.32,0.1 0.51,0.16 0.37,0.11 0.8,0.24 1.28,0.37 0.24,0.07 0.49,0.14 0.76,0.21 0.73,0.19 1.55,0.4 2.37,0.57 0.82,0.18 1.64,0.32 2.37,0.4 3.62,0.38 7.54,0.18 11.31,-0.32 0.84,-0.11 1.67,-0.24 2.48,-0.37 2.45,-0.41 4.79,-0.92 6.88,-1.43 0.7,-0.17 1.37,-0.35 2,-0.52 0.32,-0.09 0.63,-0.17 0.93,-0.25 1.21,-0.34 2.27,-0.65 3.15,-0.93 0.22,-0.07 0.43,-0.14 0.63,-0.2 1.38,-0.44 2.18,-0.74 2.18,-0.74 0,0 3.85,-2.2 5.44,-4.05 2.97,-3.45 0,-3.72 0,-3.72 l -1.52,0.34 v 0 l -2.37,0.54 c 0,0 -0.87,-1.33 -2.12,-1.38 -0.18,-0.01 -0.37,0.01 -0.56,0.07 -1.52,0.42 -5.43,1.5 -5.54,1.52 0.09,-0.03 2.04,-0.56 1.96,-1.56 -0.01,-0.07 -0.02,-0.14 -0.04,-0.21 -0.08,-0.22 -0.24,-0.37 -0.45,-0.47 -0.28,-0.14 -0.65,-0.19 -1.03,-0.2 -0.85,-0.02 -1.74,0.19 -1.74,0.19 l -4.78,1.27 c 0.1,-0.05 0.2,-0.11 0.29,-0.17 0.01,-0.01 0.02,-0.01 0.03,-0.02 0.09,-0.07 0.17,-0.14 0.24,-0.21 0,-0.01 0.01,-0.01 0.01,-0.02 0.06,-0.07 0.1,-0.14 0.14,-0.22 0.01,-0.02 0.02,-0.04 0.03,-0.07 0.03,-0.09 0.06,-0.18 0.06,-0.28 0.03,-2.52 -3.99,-0.27 -3.99,-0.27 l -4.97,0.88 -4.84,-0.74 c 0,0 0,0 0,0 l -0.25,-0.04 c 0,0 3.8,-2.91 4.93,-5 0.07,-0.13 0.12,-0.27 0.16,-0.4 0,0 0,0 0,0 0,0 0,0 0,0 0.53,-2.01 -2.64,-4.35 -5.25,-4.15 -2.79,0.21 -13.23,5.67 -13.23,5.67 l -4.66,5.31 -34.27,1.47 -6.94,-14.33 c 0,0 -0.01,0.01 -0.03,0.02 2.55,-2.74 2.93,-5.49 2.64,-6.81 -0.64,-2.89 -10.29,-34.39 -15.22,-38.87 -4.94,-4.48 -18.53,-2.59 -19.86,-4.54 -1.33,-1.95 -3.49,-4.72 -3.49,-4.72 0,0 -3.39,-0.96 -8.31,-2.26 v -9.97 l 0.61,-0.17 v 0 l 12.04,-3.28 c 0,0 0.8,-2.84 1.69,-7.22 0.21,-1.04 1.74,-2.85 0.64,-3.36 -7.85,-3.61 0.99,-2.43 1.15,-3.5 0.3,-1.91 -0.07,-3.55 0.15,-5.64 1.73,-0.86 3.94,-2.32 4.91,-4.46 1.25,-2.75 -1.73,-6.32 -4.49,-8.38 -0.07,-1.37 -0.2,-2.72 -0.37,-4.04 2.26,-1.1 4.22,-2.45 4.64,-3.94 1.07,-3.86 -8.78,-16.06 -10.07,-17.36 -2.54,-2.56 -5.79,-4.29 -16.71,-4.71 -10.93,-0.43 -24.86,5.79 -31.29,9.43 -6.43,3.64 -7.07,18.21 -6,22.75 1.07,4.54 7.93,23.96 9.79,25.19 0.27,0.18 0.62,0.31 1.02,0.42 0.01,0.02 0.02,0.04 0.03,0.05 0.01,0.01 0.01,0.01 0.01,0.02 0.01,0.03 0.03,0.06 0.03,0.06 0,0 0.74,1.37 1.34,4.24 0.53,2.53 0.95,6.22 0.65,11.14 -0.09,0.03 -0.19,0.05 -0.28,0.08 -2.78,1.02 -3.38,4.91 -3.38,4.91 0,0 -5.48,2.82 -10.83,4.65 -0.23,0.08 -0.47,0.16 -0.7,0.23 -0.46,0.15 -0.92,0.29 -1.38,0.42 -0.68,0.2 -1.35,0.37 -1.99,0.5 -0.43,0.09 -0.84,0.17 -1.24,0.22 -0.2,0.03 -0.39,0.05 -0.59,0.07 -6.11,0.64 -5.79,4.83 -5.79,4.83 l -6.41,27.57 c -0.45,-0.54 -0.96,-0.89 -1.51,-0.97 -4,-0.58 -25.07,2.57 -27.96,3.54 -2.89,0.96 -3.86,8.84 0,9 0,0 19.44,-3.96 21.21,-3.86 2.74,0.16 4.02,-0.96 3.86,8.68 -0.12,7.09 -0.78,44 -1.33,74.73 -6.09,7.92 -11.28,17.49 -15.08,28.61 -13.38,39.18 -3.52,78.01 22.02,86.73 20.61,7.04 45.99,-17.9 62.04,-48.39 7.61,1.52 14.82,2.88 20.26,3.89 -0.35,3.78 -0.47,7.68 -0.31,11.69 1.65,40.95 29.61,73.2 62.44,72.04 26.68,-0.95 44.89,-33.51 49.89,-67.66 l 36.39,-8.9 c 0.04,0.02 2.55,-4.58 0.04,-7.74 z m -150.14,-40.51 -0.12,0.52 0.01,-0.32 c 0.04,-0.07 0.08,-0.14 0.11,-0.2 z m -13.34,26.43 c 2.88,0.46 4.55,0.69 4.55,0.69 0,0 0.53,2.13 1.86,3.69 l -7.64,-1.6 c 0.41,-0.93 0.82,-1.85 1.23,-2.78 z m 12.76,3.26 0.07,-4.34 c 1.71,-0.37 3.62,-0.78 5.7,-1.24 -0.91,2.83 -1.65,5.75 -2.25,8.77 l -4.88,-1.03 c 1.08,-0.79 1.36,-2.16 1.36,-2.16 z m 7.18,-126.93 h -0.02 c 0,0 7.65,19.6 9.08,23.66 l -7.7,0.79 -3.18,-24.29 c 0.63,-0.05 1.23,-0.1 1.82,-0.16 z"
   id="path12955" />

			<path
   style="fill:#020203"
   inkscape:connector-curvature="0"
   class="st67"
   d="m 196.13,583.7 c -32.3,0 -59.59,-32.11 -61.22,-72.54 -0.15,-3.76 -0.06,-7.56 0.27,-11.3 -6.84,-1.27 -13.38,-2.52 -19.46,-3.74 -15.57,29.41 -40.86,55.67 -62.47,48.3 -12.52,-4.27 -21.72,-15.74 -25.92,-32.29 -4.18,-16.47 -2.9,-36.03 3.6,-55.07 3.67,-10.74 8.73,-20.36 15.06,-28.62 0.55,-30.7 1.21,-67.49 1.32,-74.57 0.08,-4.73 -0.19,-7.06 -0.89,-7.78 -0.33,-0.34 -0.79,-0.36 -1.65,-0.37 -0.26,0 -0.54,0 -0.84,-0.02 -1.25,-0.08 -13.3,2.26 -21.09,3.85 l -0.06,0.01 h -0.06 c -1.6,-0.07 -2.67,-1.25 -2.95,-3.24 -0.37,-2.61 0.76,-6.05 2.82,-6.74 2.92,-0.97 24.16,-4.14 28.19,-3.56 0.4,0.06 0.79,0.23 1.15,0.5 l 6.2,-26.66 c 0,-0.66 0.23,-4.64 6.23,-5.27 0.18,-0.02 0.37,-0.04 0.56,-0.07 0.39,-0.06 0.79,-0.13 1.21,-0.22 0.6,-0.13 1.26,-0.29 1.95,-0.49 0.45,-0.13 0.9,-0.27 1.36,-0.42 0.23,-0.07 0.46,-0.15 0.69,-0.23 4.66,-1.59 9.48,-3.97 10.55,-4.51 0.19,-0.93 1.03,-4.06 3.62,-5.04 0.21,-3.96 -0.01,-7.54 -0.66,-10.65 -0.52,-2.46 -1.14,-3.79 -1.27,-4.06 -0.38,-0.11 -0.7,-0.25 -0.95,-0.42 -2.12,-1.41 -9.06,-21.55 -10,-25.49 -1.06,-4.48 -0.55,-19.45 6.24,-23.3 6.58,-3.73 20.64,-9.92 31.55,-9.49 10.69,0.42 14.24,2.03 17.05,4.86 0.92,0.92 11.4,13.5 10.2,17.84 -0.39,1.4 -1.89,2.74 -4.58,4.09 0.14,1.15 0.25,2.32 0.32,3.49 3.16,2.42 5.73,6.05 4.46,8.85 -0.99,2.18 -3.15,3.67 -4.89,4.57 -0.07,0.85 -0.04,1.64 -0.02,2.4 0.03,1 0.06,1.95 -0.1,3 -0.11,0.73 -1.11,0.84 -2.49,1 -0.57,0.06 -1.48,0.17 -1.83,0.32 0.19,0.21 0.81,0.7 2.88,1.66 0.3,0.14 0.51,0.36 0.62,0.65 0.23,0.65 -0.16,1.45 -0.54,2.21 -0.19,0.38 -0.38,0.78 -0.44,1.05 -0.89,4.35 -1.69,7.23 -1.7,7.26 l -0.08,0.27 -12.56,3.42 v 9.2 c 4.67,1.23 7.92,2.15 7.95,2.16 l 0.16,0.04 0.1,0.13 c 0.02,0.03 2.19,2.8 3.51,4.75 0.4,0.58 3.26,0.77 5.79,0.94 4.86,0.32 10.91,0.72 13.99,3.52 5.16,4.68 14.76,36.37 15.37,39.14 0.37,1.66 -0.27,4.43 -2.5,6.98 l 6.65,13.73 33.72,-1.45 4.66,-5.26 c 0.43,-0.22 10.57,-5.51 13.43,-5.73 1.74,-0.13 3.86,0.79 5.02,2.18 0.7,0.84 0.97,1.76 0.75,2.59 -0.05,0.18 -0.11,0.35 -0.2,0.51 -0.83,1.53 -2.95,3.43 -4.17,4.44 l 3.89,0.6 4.8,-0.85 c 0.6,-0.32 2.77,-1.42 3.95,-0.72 0.33,0.19 0.72,0.61 0.71,1.47 0,0.04 0,0.09 -0.01,0.13 l 3.36,-0.89 c 0.05,-0.01 0.97,-0.24 1.88,-0.21 0.5,0.01 0.92,0.1 1.24,0.25 0.34,0.17 0.58,0.43 0.7,0.75 0.04,0.11 0.06,0.23 0.07,0.34 0.01,0.14 0,0.28 -0.04,0.4 1.1,-0.3 2.28,-0.63 2.98,-0.82 0.23,-0.06 0.47,-0.09 0.71,-0.08 1.1,0.04 1.93,0.87 2.3,1.32 l 3.65,-0.83 0.08,0.01 c 0.05,0 1.26,0.13 1.66,1.1 0.35,0.87 -0.08,2 -1.32,3.44 -1.63,1.9 -5.41,4.06 -5.57,4.16 -0.08,0.04 -0.88,0.33 -2.28,0.78 l -0.63,0.2 c -0.89,0.28 -1.96,0.6 -3.17,0.94 -0.3,0.08 -0.61,0.17 -0.93,0.26 -0.64,0.17 -1.31,0.35 -2.01,0.52 -2.37,0.59 -4.7,1.07 -6.92,1.44 -0.82,0.14 -1.66,0.26 -2.5,0.38 -4.28,0.57 -8.12,0.67 -11.42,0.32 -0.68,-0.07 -1.49,-0.21 -2.42,-0.41 -0.83,-0.18 -1.66,-0.38 -2.39,-0.58 -0.27,-0.07 -0.52,-0.14 -0.76,-0.21 -0.48,-0.14 -0.92,-0.26 -1.29,-0.38 l -0.37,-0.12 c -2.08,0.62 -4.16,1.22 -6.18,1.78 -0.13,0.04 -0.27,0.07 -0.4,0.11 2.49,-0.07 4.11,0.01 4.93,0.23 0.54,0.15 0.81,0.72 1.1,1.32 0.17,0.35 0.36,0.75 0.56,0.93 0.44,0.4 0.9,0.88 1.37,1.45 3.86,4.6 7.64,13.15 7.8,13.51 l 0.25,0.56 -12.04,2.68 10.78,3.27 v 6.36 l -1.13,0.23 c 2.56,-0.29 5.23,-0.43 7.75,-0.3 3.24,0.17 5.9,0.78 7.91,1.82 1.22,0.63 2.4,1.64 3.5,3.01 0.99,1.23 1.93,2.76 2.79,4.56 0.17,0.35 0.33,0.7 0.48,1.04 2.31,5.27 3.69,11.64 4.44,16.06 0.3,1.8 0.5,3.25 0.62,4.16 l 0.13,1.15 -0.48,0.18 0.5,-0.05 0.01,0.08 -0.01,0.15 c -0.05,0.23 -1.3,5.52 -4.74,8.1 7.21,10.07 11.23,24.15 11.94,41.86 0.02,0.62 0.04,1.24 0.06,1.86 l 15.12,-3.03 0.11,0.03 c 0.7,0.18 17.1,4.45 19.69,7.7 v 0 c 2.69,3.38 0.16,8.11 0.05,8.31 l -0.11,0.19 -0.21,0.05 -36.06,8.82 c -4.77,32 -22.51,66.76 -50.31,67.75 -0.62,0.05 -1.2,0.05 -1.78,0.05 z m -80.94,-88.7 0.37,0.07 c 6.31,1.26 13.12,2.57 20.25,3.89 l 0.45,0.08 -0.04,0.46 c -0.36,3.84 -0.46,7.75 -0.31,11.62 1.64,40.61 29.4,72.72 61.92,71.56 27.33,-0.97 44.77,-35.53 49.41,-67.23 l 0.05,-0.33 36.49,-8.92 c 0.42,-0.87 1.95,-4.5 -0.05,-7.01 v 0 c -1.96,-2.46 -14.31,-6.09 -19.05,-7.33 l -16.07,3.22 -0.01,-0.6 c -0.02,-0.81 -0.04,-1.63 -0.07,-2.43 -0.72,-17.75 -4.77,-31.79 -12.05,-41.73 l -0.31,-0.43 0.45,-0.29 c 3.43,-2.22 4.73,-7.73 4.74,-7.78 l 0.29,0.07 0.19,-0.06 -0.51,-0.04 0.49,-0.09 -0.51,-0.02 0.49,-0.12 -0.51,-0.02 0.49,-0.13 -0.51,-0.03 -0.07,-0.61 0.48,-0.17 -0.5,0.06 c -0.11,-0.89 -0.31,-2.33 -0.61,-4.11 -0.74,-4.37 -2.1,-10.66 -4.37,-15.83 -0.15,-0.34 -0.3,-0.68 -0.46,-1 -0.84,-1.75 -1.73,-3.22 -2.67,-4.38 -1.02,-1.26 -2.09,-2.18 -3.19,-2.75 -1.89,-0.97 -4.41,-1.55 -7.5,-1.71 -7.51,-0.4 -16.37,1.74 -19.83,2.68 l -0.37,0.1 c -0.38,0.11 -0.64,0.18 -0.82,0.23 l -1.23,0.35 0.25,-0.88 c 0.12,-0.36 0.25,-0.73 0.36,-1.12 l 0.08,-0.29 14,-2.82 v -4.8 l -10.51,-3.19 -7.06,1.19 -1.38,-0.99 19.8,-4.42 c -0.92,-2 -4.19,-8.89 -7.4,-12.71 -0.44,-0.53 -0.87,-0.98 -1.28,-1.35 -0.35,-0.32 -0.57,-0.79 -0.79,-1.24 -0.13,-0.27 -0.35,-0.73 -0.47,-0.79 -1.11,-0.31 -4.25,-0.29 -9.32,0.04 l -0.16,-0.98 c 1.65,-0.43 3.3,-0.86 4.97,-1.32 2.07,-0.57 4.19,-1.18 6.31,-1.82 l 0.15,-0.04 0.65,0.2 c 0.37,0.11 0.79,0.24 1.27,0.37 0.24,0.07 0.49,0.14 0.75,0.21 0.72,0.19 1.53,0.4 2.34,0.57 0.9,0.19 1.68,0.32 2.32,0.39 3.22,0.34 6.99,0.23 11.19,-0.32 0.83,-0.11 1.66,-0.23 2.47,-0.37 2.19,-0.37 4.5,-0.84 6.84,-1.42 0.69,-0.17 1.36,-0.34 1.99,-0.51 0.32,-0.08 0.63,-0.17 0.92,-0.25 1.2,-0.33 2.26,-0.65 3.14,-0.93 l 0.63,-0.2 c 1.37,-0.44 2.16,-0.73 2.16,-0.73 v 0 c -0.01,0 3.72,-2.14 5.24,-3.9 1.31,-1.52 1.24,-2.2 1.16,-2.42 -0.13,-0.33 -0.59,-0.44 -0.76,-0.47 l -4.14,0.94 -0.19,-0.29 c -0.01,-0.01 -0.75,-1.11 -1.72,-1.15 -0.14,-0.01 -0.27,0.01 -0.41,0.05 -1.45,0.4 -5.09,1.4 -5.5,1.51 -0.01,0 -0.03,0.01 -0.04,0.01 l -0.26,-0.96 c 0,0 0.02,0 0.04,-0.01 0.67,-0.19 1.59,-0.65 1.56,-1.03 -0.03,-0.13 -0.07,-0.2 -0.21,-0.27 -0.13,-0.06 -0.37,-0.14 -0.82,-0.15 -0.77,-0.02 -1.6,0.18 -1.61,0.18 l -9.4,2.49 4.27,-2.16 c 0.08,-0.04 0.16,-0.09 0.23,-0.14 0.09,-0.06 0.14,-0.11 0.18,-0.16 0.03,-0.04 0.05,-0.08 0.07,-0.12 0.03,-0.08 0.04,-0.11 0.04,-0.14 0,-0.46 -0.16,-0.56 -0.22,-0.6 -0.55,-0.32 -2.13,0.27 -3.03,0.77 l -0.16,0.06 -5.05,0.89 -6.33,-0.97 0.93,-0.71 c 0.04,-0.03 3.73,-2.87 4.79,-4.84 0.05,-0.09 0.09,-0.19 0.12,-0.29 0.18,-0.69 -0.27,-1.36 -0.55,-1.7 -0.96,-1.15 -2.76,-1.94 -4.18,-1.83 -2.11,0.16 -9.35,3.69 -12.96,5.57 l -4.74,5.4 -0.21,0.01 -34.59,1.49 -7.08,-14.62 0.42,-0.2 -0.36,-0.33 c 2.5,-2.7 2.76,-5.27 2.52,-6.37 -0.8,-3.62 -10.45,-34.42 -15.07,-38.61 -2.83,-2.57 -8.93,-2.97 -13.38,-3.26 -3.87,-0.25 -5.91,-0.43 -6.55,-1.37 -1.14,-1.68 -2.93,-4 -3.37,-4.56 -0.72,-0.2 -3.87,-1.09 -8.15,-2.21 l -0.37,-0.1 v -10.74 l 12.74,-3.47 c 0.22,-0.81 0.88,-3.37 1.61,-6.92 0.08,-0.4 0.29,-0.83 0.52,-1.29 0.23,-0.47 0.58,-1.18 0.49,-1.44 0,-0.01 -0.01,-0.04 -0.09,-0.08 -3.08,-1.41 -3.63,-2.1 -3.52,-2.75 0.13,-0.83 1.36,-0.96 2.78,-1.13 0.55,-0.06 1.36,-0.15 1.63,-0.28 0.13,-0.92 0.1,-1.79 0.08,-2.7 -0.03,-0.87 -0.05,-1.78 0.05,-2.8 l 0.03,-0.27 0.25,-0.12 c 1.63,-0.81 3.76,-2.2 4.67,-4.22 1.06,-2.33 -1.51,-5.66 -4.34,-7.77 l -0.19,-0.14 -0.01,-0.23 c -0.07,-1.35 -0.2,-2.7 -0.37,-4 l -0.05,-0.36 0.32,-0.16 c 2.55,-1.24 4.06,-2.49 4.37,-3.62 0.94,-3.37 -8.22,-15.13 -9.94,-16.87 -2.63,-2.65 -6.02,-4.16 -16.38,-4.57 -10.7,-0.41 -24.53,5.69 -31.02,9.36 -6.26,3.55 -6.74,18.05 -5.76,22.2 1.26,5.34 8.04,23.87 9.57,24.89 0.21,0.14 0.5,0.25 0.87,0.35 l 0.23,0.06 0.1,0.22 -0.39,0.34 0.44,-0.24 c 0.03,0.06 0.78,1.47 1.39,4.37 0.69,3.29 0.91,7.08 0.66,11.27 l -0.02,0.35 -0.45,0.13 c -0.04,0.01 -0.09,0.02 -0.13,0.04 -2.47,0.91 -3.05,4.48 -3.06,4.52 l -0.04,0.25 -0.23,0.12 c -0.06,0.03 -5.57,2.86 -10.9,4.68 -0.23,0.08 -0.47,0.16 -0.7,0.23 -0.47,0.15 -0.93,0.3 -1.39,0.43 -0.72,0.21 -1.4,0.38 -2.02,0.51 -0.44,0.09 -0.86,0.17 -1.27,0.23 -0.21,0.03 -0.41,0.06 -0.61,0.08 -5.52,0.58 -5.35,4.14 -5.34,4.29 v 0.07 l -0.02,0.07 -6.64,28.54 -0.64,-0.76 c -0.4,-0.47 -0.8,-0.74 -1.21,-0.8 -3.94,-0.57 -24.86,2.56 -27.73,3.52 -1.42,0.47 -2.48,3.27 -2.14,5.65 0.12,0.85 0.53,2.28 1.95,2.38 2.27,-0.46 19.53,-3.98 21.28,-3.85 0.28,0.02 0.54,0.02 0.79,0.02 0.88,0.01 1.72,0.01 2.36,0.67 0.95,0.97 1.26,3.27 1.18,8.5 -0.12,7.09 -0.78,44 -1.33,74.73 v 0.17 l -0.1,0.13 c -6.31,8.2 -11.35,17.78 -15,28.46 -6.44,18.86 -7.71,38.21 -3.57,54.5 4.12,16.21 13.09,27.43 25.28,31.59 21.01,7.18 46.58,-19.93 61.44,-48.15 z m 22.12,-3.17 -6.48,-1.36 0.9,-0.66 c 0.82,-0.6 1.11,-1.61 1.16,-1.82 l 0.07,-4.69 0.39,-0.08 c 1.71,-0.37 3.62,-0.78 5.7,-1.24 l 0.85,-0.18 -0.27,0.83 c -0.89,2.75 -1.64,5.68 -2.23,8.71 z m -4.26,-1.92 3.48,0.73 c 0.53,-2.59 1.17,-5.11 1.9,-7.5 -1.6,0.35 -3.1,0.67 -4.47,0.97 l -0.07,4.04 c -0.01,0.04 -0.2,0.94 -0.84,1.76 z m -4.67,0.04 -9.69,-2.04 0.26,-0.57 c 0.42,-0.92 0.83,-1.84 1.24,-2.77 l 0.15,-0.35 0.38,0.06 c 2.87,0.46 4.53,0.69 4.54,0.69 l 0.33,0.05 0.08,0.33 c 0,0.02 0.52,2.04 1.75,3.48 z m -8.27,-2.76 5.78,1.21 c -0.6,-0.99 -0.95,-1.98 -1.1,-2.48 -0.58,-0.08 -1.91,-0.28 -3.85,-0.59 -0.27,0.62 -0.55,1.24 -0.83,1.86 z m 13.18,-23.57 0.09,-5.21 1.91,-3.46 z m 8.22,-77.51 -3.31,-25.3 0.53,-0.04 c 0.62,-0.05 1.21,-0.1 1.8,-0.16 l 0.07,0.49 0.43,-0.17 c 0.08,0.2 7.67,19.65 9.09,23.68 l 0.21,0.6 z m -2.18,-24.38 3.05,23.29 6.58,-0.68 c -1.69,-4.65 -7.73,-20.15 -8.72,-22.7 -0.3,0.03 -0.6,0.06 -0.91,0.09 z"
   id="path12957" />

		</g>

		<g
   id="g13063">
			<path
   style="fill:#484848"
   inkscape:connector-curvature="0"
   class="st17"
   d="m 244.15,516.39 39.97,-9.78 c 0,0 2.51,-4.6 0,-7.76 -2.51,-3.16 -19.43,-7.53 -19.43,-7.53 l -37.6,7.53 z"
   id="path12961" />

			<g
   id="g13057">
				<path
   style="fill:#f7dfb5"
   inkscape:connector-curvature="0"
   class="st7"
   d="m 131.72,250.75 c -0.32,-5.82 -1.47,-11.32 -4.05,-15.42 -9.33,-14.79 -38.89,0 -49.82,5.51 -10.93,5.51 4.93,37.79 4.93,37.79 0,0 2.96,5.5 1.84,17.39 -1.12,11.89 30.4,18.27 30.4,18.27 v -27.53 l 12.65,-3.45 c 0,0 0.8,-2.84 1.69,-7.22 0.21,-1.04 1.74,-2.85 0.64,-3.36 -7.85,-3.61 0.99,-2.43 1.15,-3.5 0.3,-1.91 -0.07,-3.55 0.15,-5.64 1.73,-0.86 3.94,-2.32 4.91,-4.46 1.25,-2.75 -1.72,-6.32 -4.49,-8.38 z"
   id="path12963" />

				<path
   style="fill:#ebd1a8"
   inkscape:connector-curvature="0"
   class="st68"
   d="m 127.68,283.32 c 0,0 0.18,-0.64 0.46,-1.76 l -19.26,-2.75 0.8,-8.5 c 0,0 -1.57,-1.26 -2.67,-6.5 -1.1,-5.24 -1.12,-17.13 -1.12,-17.13 0,0 -23.37,13.73 -24.01,13.77 -0.25,0.02 -2.49,1.34 -5.16,2.95 2.58,8.11 6.07,15.22 6.07,15.22 0,0 2.96,5.5 1.84,17.39 -0.14,1.53 0.26,2.97 1.06,4.32 8.1,2.18 19.57,5.16 19.57,5.16 0,0 1.36,-15.75 1.36,-17.68 0,-1 4.55,-1.22 9.01,-1.23 z"
   id="path12965" />

				<g
   id="g12971">
					<path
   style="fill:#7d7b78"
   inkscape:connector-curvature="0"
   class="st26"
   d="M 125.17,473.14 C 111.79,512.32 78.95,552.67 53.41,543.95 27.87,535.23 18.02,496.4 31.4,457.22 c 13.38,-39.18 44.07,-59.2 70.46,-55.15 29.69,4.55 36.69,31.89 23.31,71.07 z"
   id="path12967" />

					<path
   style="fill:#484848"
   inkscape:connector-curvature="0"
   class="st17"
   d="m 122.82,475.53 c -12.06,35.31 -40.55,72.05 -61.9,64.76 -21.36,-7.29 -28.9,-41.83 -16.84,-77.14 12.06,-35.31 38.33,-53.83 60.5,-50.73 24.94,3.48 30.3,27.8 18.24,63.11 z"
   id="path12969" />

				</g>

				<path
   style="fill:#f7dfb5"
   inkscape:connector-curvature="0"
   class="st7"
   d="M 45.7,333.48"
   id="path12973" />

				<path
   style="fill:#49371b"
   inkscape:connector-curvature="0"
   class="st10"
   d="m 125.91,225.41 c 1.29,1.3 11.14,13.5 10.07,17.36 -1.07,3.86 -12.56,6.79 -12.56,6.79 0,0 -0.84,6.49 -2.23,9.71 -1.39,3.21 -2.17,-8.14 -3.55,-8.14 -1.38,0 -8.52,-4.5 -11.91,0.43 -3.39,4.93 0,18.43 0,18.43 0,0 0.68,9 -8.32,8.79 -9,-0.21 -13.86,0.53 -15.71,-0.7 -1.85,-1.23 -8.71,-20.65 -9.79,-25.19 -1.07,-4.54 -0.43,-19.11 6,-22.75 6.43,-3.64 20.36,-9.86 31.29,-9.43 10.93,0.43 14.17,2.15 16.71,4.7 z"
   id="path12975" />

				<path
   style="fill:#53b7ce"
   inkscape:connector-curvature="0"
   class="st38"
   d="m 85.09,293.91 c 0,0 8.45,-2.43 18.69,0 10.24,2.43 19.56,5.08 19.56,5.08 0,0 2.16,2.77 3.49,4.72 1.33,1.95 14.92,0.06 19.86,4.54 4.94,4.48 14.58,35.98 15.22,38.87 0.64,2.89 -1.93,12.54 -23.14,14.14 l 6.81,52.09 c 0,0 4.12,11.38 -3.92,12.91 -7.05,62.58 -26.46,29.33 -26.46,29.33 l -61.05,-92.68 -5,-12.27 9.48,-40.74 c 0,0 -0.32,-4.19 5.79,-4.83 6.11,-0.64 16.71,-6.11 16.71,-6.11 0,0 0.68,-4.4 3.96,-5.05 z"
   id="path12977" />

				<path
   style="fill:#ee6f4a"
   inkscape:connector-curvature="0"
   class="st31"
   d="m 230.12,412.13 c -9.29,-4.79 -29.26,1.38 -29.26,1.38 0.49,-1.44 0.77,-3.01 0.69,-4.71 -0.43,-9.69 -19.27,-8.18 -19.27,-8.18 l -39.87,0.68 0.91,16.39 -11.64,50.69 c 0,0 91.63,-20.33 99.61,-17.76 7.98,2.57 10.55,-8.7 10.55,-8.7 0,0 -2.43,-25 -11.72,-29.79 z"
   id="path12979" />

				<path
   style="fill:#44a7c7"
   inkscape:connector-curvature="0"
   class="st24"
   d="m 117.65,305.98 c -2.48,-2.89 -23.45,-5.46 -23.45,-5.46 0,0 13.72,0.32 11.78,0 -1.94,-0.32 -6.42,-2.89 -6.04,-4.51 0.17,-0.73 1.33,-1.61 2.55,-2.37 -9.65,-1.94 -17.39,0.27 -17.39,0.27 -3.28,0.65 -3.96,5.08 -3.96,5.08 0,0 -10.61,5.47 -16.71,6.11 -6.11,0.64 -5.79,4.83 -5.79,4.83 l -9.48,40.74 5,12.27 26.34,22.78 c 21.54,-2.67 41.31,-5.18 41.89,-5.47 1.27,-0.66 -2.27,-71.37 -4.74,-74.27 z"
   id="path12981" />

				<path
   style="fill:#7d7b78"
   inkscape:connector-curvature="0"
   class="st26"
   d="m 52.41,359.66 c 0,0 25.46,14.68 76.58,13.4 v 95.24 l 68.86,-14.24 c 0,0 1.43,11.26 -2,14.24 -3.43,2.98 -70.67,17.18 -70.67,17.18 0,0 -47.06,-6.56 -72.77,-18.99 z"
   id="path12983" />

				<path
   style="fill:#484848"
   inkscape:connector-curvature="0"
   class="st17"
   d="m 22.73,349.06 c 0,0 19.44,-3.96 21.21,-3.86 2.74,0.16 4.02,-0.96 3.86,8.68 -0.21,12.54 -2.11,118.29 -2.11,118.29 0,0 1.14,4.67 4.36,5.23 3.21,0.56 3.86,-2.66 3.86,-2.66 l 1.97,-123.45 c 0,0 -1.18,-14.18 -5.18,-14.77 -4,-0.58 -25.07,2.57 -27.96,3.54 -2.9,0.96 -3.87,8.83 -0.01,9 z"
   id="path12985" />

				<g
   id="g12993">
					<path
   style="fill:#cd563a"
   inkscape:connector-curvature="0"
   class="st33"
   d="m 231.03,414.39 c -0.08,-0.11 -0.14,-0.19 -0.14,-0.19 0.03,0.07 0.07,0.13 0.14,0.19 z"
   id="path12987" />

					<path
   style="fill:#cd563a"
   inkscape:connector-curvature="0"
   class="st33"
   d="m 226.84,431.34 c 0.05,0.15 0.14,0.32 0.25,0.5 -0.27,-0.68 -0.4,-0.95 -0.25,-0.5 z"
   id="path12989" />

					<path
   style="fill:#cd563a"
   inkscape:connector-curvature="0"
   class="st33"
   d="m 231.03,414.39 c 0.91,1.28 6.5,9.37 5.18,13.31 -1.44,4.29 -7.87,-1.22 -7.87,-1.22 0,0 6.64,5.72 6.21,9.15 -0.4,3.17 -6.09,-1.53 -7.46,-3.78 0.88,2.22 3.2,8.81 1.89,9.14 -1.71,0.43 -6.21,3 -7.93,1.93 -1.72,-1.07 -6.75,-10.37 -6.75,-10.37 0,0 -57.54,13.99 -61.61,13.46 -4.07,-0.52 -8.57,-2.67 -8.57,-2.67 l -3.3,0.66 -9.15,24.39 c 0,0 91.63,-20.33 99.61,-17.76 7.98,2.57 10.55,-8.7 10.55,-8.7 0,0 -1.83,-18.79 -8.37,-26.91 -1.2,-0.11 -2.09,-0.31 -2.43,-0.63 z"
   id="path12991" />

				</g>

				<path
   style="fill:#cd563a"
   inkscape:connector-curvature="0"
   class="st33"
   d="m 222.42,410.37 c -9.69,-0.51 -21.56,3.15 -21.56,3.15 0.49,-1.44 0.99,-3.04 0.69,-4.71 -2.04,-11.53 -16.5,-9.92 -16.5,-9.92 l -42.64,2.43 v 0 c 0,0 1.43,14.12 -0.21,21.26 -1.64,7.14 61.09,-9.07 80.22,-12.21 z"
   id="path12995" />

				<polyline
   style="fill:#7d7b78"
   class="st26"
   points="134.61,412.35 204.35,400.62 215.33,403.95 215.33,409.53 134.61,425.82     "
   id="polyline12997" />

				<polygon
   style="fill:#484848"
   class="st17"
   points="134.61,419.35 134.61,425.82 215.33,409.53 215.33,404.04 "
   id="polygon12999" />

				<path
   style="fill:#ebd1a8"
   inkscape:connector-curvature="0"
   class="st68"
   d="m 114.19,254.11 c 0.89,1.21 1.37,2.78 1.62,4.24 -1.81,-0.88 -4.62,-0.44 -4.62,-0.44 0,0 3.09,0.44 4.78,1.57 0.13,1.31 0.07,2.38 -0.04,2.75 -0.25,0.85 0.4,1.85 1.54,-0.57 1.14,-2.42 -3.53,-7.89 -3.28,-7.55 z"
   id="path13001" />

				<path
   style="fill:#ebd1a8"
   inkscape:connector-curvature="0"
   class="st68"
   d="m 113.21,250.86 c 0,0 -2.77,-0.25 -4.34,0.26 -2.05,0.67 -3.07,2.15 -3.14,4.88 -0.07,2.73 1.29,10.93 3.74,11.73 2.45,0.8 8.17,-0.72 8.17,-0.72 0.39,-0.48 -4.11,3.33 -7.97,3.29 -1.68,-0.01 -3.17,-2.6 -4.11,-9.32 -0.92,-6.72 -0.11,-11.57 7.65,-10.12 z"
   id="path13003" />

				<rect
   style="fill:#49371b"
   x="127.31"
   y="250.60001"
   class="st10"
   width="1.66"
   height="4.9099998"
   id="rect13005" />

				<path
   style="fill:#7d7b78"
   inkscape:connector-curvature="0"
   class="st26"
   d="m 163.53,383.34 c 4.29,0 37.69,-4.29 42.36,-3 0.58,0.16 0.85,1.59 1.45,2.14 0.44,0.4 0.88,0.87 1.32,1.4 3.86,4.59 7.73,13.39 7.73,13.39 l -52.86,11.79 -20.28,-2.1 -0.84,-6.91 -0.47,-14.47 z"
   id="path13007" />

				<path
   style="fill:#f8f3f2"
   inkscape:connector-curvature="0"
   class="st69"
   d="m 163.53,390.63 c 0.31,0.64 1.17,8.17 1.17,8.17 l 46.71,-8.17 c 0,0 -2.57,-5.57 -4.5,-6.64 -1.93,-1.08 -43.38,6.64 -43.38,6.64 z"
   id="path13009" />

				<path
   style="fill:#f8f3f2"
   inkscape:connector-curvature="0"
   class="st69"
   d="m 165.12,400.09 c 0.31,0.64 0.86,7.53 0.86,7.53 l 48.45,-11.35 -2.17,-4.2 c -1.93,-1.06 -47.14,8.02 -47.14,8.02 z"
   id="path13011" />

				<polygon
   style="fill:#484848"
   class="st17"
   points="143.48,405.84 142.95,396.31 142.41,388.27 162,390.2 163.53,407.49 "
   id="polygon13013" />

				<path
   style="fill:#f7dfb5"
   inkscape:connector-curvature="0"
   class="st7"
   d="m 140.56,361.11 c 0,0 8.37,21.44 9.24,24.13 0.88,2.69 7.52,2.69 7.52,2.69 14.05,-1.82 28.79,-4.67 44.04,-8.89 2.13,-0.59 4.24,-1.2 6.32,-1.82 0.61,0.2 1.49,0.46 2.55,0.74 1.46,0.39 3.28,0.82 4.74,0.97 12.86,1.37 29.57,-4.77 29.57,-4.77 0,0 3.85,-2.2 5.44,-4.05 2.97,-3.45 0,-3.72 0,-3.72 l -3.89,0.88 c 0,0 -1.13,-1.74 -2.68,-1.31 -1.55,0.43 -5.54,1.53 -5.54,1.53 0,0 2.33,-0.62 1.93,-1.77 -0.4,-1.15 -3.21,-0.48 -3.21,-0.48 l -6.67,1.77 c 0,0 2.68,-0.24 2.69,-1.5 0.03,-2.52 -3.99,-0.27 -3.99,-0.27 l -4.97,0.88 -5.09,-0.78 c 0,0 3.8,-2.91 4.93,-5 1.13,-2.09 -2.3,-4.77 -5.09,-4.55 -2.79,0.21 -13.23,5.67 -13.23,5.67 l -4.66,5.31 -34.27,1.47 -6.94,-14.33 c 0,0 -3.18,3.09 -7.62,4.74 -4.45,1.66 -11.12,2.46 -11.12,2.46 z"
   id="path13015" />

				<path
   style="fill:#ebd1a8"
   inkscape:connector-curvature="0"
   class="st68"
   d="m 160.11,384.5 c 0,0 -4.42,-17.32 -6.95,-26.41 l -2.8,1.07 -9.8,1.96 c 0,0 8.37,21.44 9.24,24.13 0.88,2.69 7.52,2.69 7.52,2.69 3.43,-1.3 2.79,-3.44 2.79,-3.44 z"
   id="path13017" />

				<path
   style="fill:#ebd1a8"
   inkscape:connector-curvature="0"
   class="st68"
   d="m 223,359.94 c -0.29,0.12 -3.21,1.21 -4.79,1.8 -0.59,0.22 -4.69,-2.68 -4.69,-2.68 0,0 2.5,2.87 2.41,3.7 -0.25,2.3 -2.3,3.29 -2.96,4.36 -0.34,0.56 -1.83,6.81 -1.87,6.25 -0.18,-2.35 7.08,-8.43 7.08,-8.43 0,0 5.41,-4.61 5.46,-4.98 0.06,-0.4 -0.64,-0.02 -0.64,-0.02 z"
   id="path13019" />

				<path
   style="fill:#ebd1a8"
   inkscape:connector-curvature="0"
   class="st68"
   d="m 242.82,373.68 c 0,0 -10.18,2.89 -17.14,3.43 -6.96,0.54 -9.98,-1.81 -11.26,-0.85 -0.36,0.27 -6.34,0.57 -7.55,1.19 0.27,-0.08 0.54,-0.15 0.81,-0.23 0.61,0.2 1.49,0.46 2.55,0.74 1.46,0.39 3.28,0.82 4.74,0.97 12.86,1.37 29.57,-4.77 29.57,-4.77 0,0 1.68,-1.2 1.78,-1.32 z"
   id="path13021" />

				<path
   style="fill:#ebd1a8"
   inkscape:connector-curvature="0"
   class="st68"
   d="m 246.09,367.27 c 0,0 -1.13,-1.74 -2.68,-1.31 -1.55,0.43 -5.54,1.53 -5.54,1.53 0,0 2.33,-0.62 1.93,-1.77 -0.4,-1.15 -3.21,-0.48 -3.21,-0.48 l -4.78,1.27 c 0.45,-0.23 0.8,-0.54 0.8,-1 0.03,-2.52 -3.99,-0.27 -3.99,-0.27 l -4.97,0.88 -4.84,-0.74 c -0.79,0.46 -1.43,0.84 -1.43,0.84 l -2.09,2.39 c 0,0 3.86,0.32 5.87,0.48 2.01,0.16 11.42,1.44 11.82,1.44 0.4,0 2.08,0.51 2.08,0.51 l 7.47,-1.62 0.96,0.32 0.48,-0.64 4.49,-2.36 z"
   id="path13023" />

				<polygon
   style="fill:#44a7c7"
   class="st24"
   points="135.37,361.27 135.14,339.27 138.77,361.27 "
   id="polygon13025" />

				<ellipse
   style="fill:#262525"
   class="st70"
   cx="102.46"
   cy="358.09"
   rx="2.1099999"
   ry="3.8099999"
   id="ellipse13027" />

				<ellipse
   style="fill:#262525"
   class="st70"
   cx="23.32"
   cy="344.56"
   rx="2.1099999"
   ry="3.8099999"
   id="ellipse13029" />

				<path
   style="fill:#262525"
   inkscape:connector-curvature="0"
   class="st70"
   d="m 50.04,471.79 v 0 c -0.84,-0.01 -1.52,-0.7 -1.51,-1.55 l 0.41,-33.55 c 0.01,-0.84 0.7,-1.52 1.55,-1.51 v 0 c 0.84,0.01 1.52,0.7 1.51,1.55 l -0.41,33.55 c -0.02,0.84 -0.71,1.52 -1.55,1.51 z"
   id="path13031" />

				<path
   style="fill:#262525"
   inkscape:connector-curvature="0"
   class="st70"
   d="m 117.6,484.28 c 0,0 -48.05,27.49 -54.9,24.99 -6.86,-2.5 -7.24,-31.56 -2.76,-39.53 z"
   id="path13033" />

				<path
   style="fill:#262525"
   inkscape:connector-curvature="0"
   class="st70"
   d="M 145.35,493 74,478.02 c 0,0 -3.86,1.33 -1.72,6.02 2.14,4.69 73.16,17.17 73.16,17.17 0,0 -0.54,-4.59 -0.09,-8.21 z"
   id="path13035" />

				<polygon
   style="fill:#7d7b78"
   class="st26"
   points="108.59,488.98 105.84,490.68 145.35,499.62 145.24,496.7 "
   id="polygon13037" />

				<path
   style="fill:#484848"
   inkscape:connector-curvature="0"
   class="st17"
   d="m 129,468.29 v -0.47 l 1.25,5.52 c 0,0 -1.33,4.83 0.43,4.88 1.75,0.05 58.66,-15.15 58.66,-15.15 l 1.01,-7.47 z"
   id="path13039" />

				<g
   id="g13051">
					<path
   style="fill:#7d7b78"
   inkscape:connector-curvature="0"
   class="st26"
   d="m 249.03,492.02 c 1.65,40.95 -18.35,89.99 -51.18,91.16 -32.83,1.17 -60.78,-31.09 -62.44,-72.04 -1.66,-40.95 24.66,-70.48 56.45,-76.25 35.77,-6.51 55.51,16.18 57.17,57.13 z"
   id="path13041" />

					<path
   style="fill:#484848"
   inkscape:connector-curvature="0"
   class="st17"
   d="m 244.15,493.45 c 1.38,34.25 -15.35,75.27 -42.81,76.24 -27.46,0.97 -50.84,-26 -52.22,-60.25 -1.38,-34.25 20.63,-58.94 47.21,-63.78 29.93,-5.44 46.44,13.54 47.82,47.79 z"
   id="path13043" />

					<path
   style="fill:#fcf9f6"
   inkscape:connector-curvature="0"
   class="st49"
   d="m 209.21,505.54 c 0.18,4.36 -1.96,9.59 -5.45,9.71 -3.5,0.12 -6.48,-3.31 -6.65,-7.68 -0.18,-4.36 2.63,-7.51 6.02,-8.13 3.8,-0.68 5.9,1.74 6.08,6.1 z"
   id="path13045" />

					<path
   style="fill:#faf8f5"
   inkscape:connector-curvature="0"
   class="st40"
   d="m 159.99,461.01 c -0.33,0 -0.66,-0.11 -0.94,-0.33 -0.65,-0.52 -0.75,-1.46 -0.23,-2.11 2.21,-2.74 5.28,-6.22 9.48,-8.86 0.7,-0.44 1.63,-0.23 2.07,0.47 0.44,0.7 0.23,1.63 -0.47,2.07 -3.81,2.39 -6.56,5.49 -8.74,8.2 -0.3,0.37 -0.73,0.56 -1.17,0.56 z"
   id="path13047" />

					<path
   style="fill:#faf8f5"
   inkscape:connector-curvature="0"
   class="st40"
   d="m 145.37,533.15 c -0.62,0 -1.2,-0.39 -1.42,-1.01 -0.12,-0.35 -11.73,-35.32 10.98,-68.37 0.47,-0.68 1.4,-0.86 2.09,-0.39 0.68,0.47 0.86,1.4 0.39,2.09 -21.84,31.77 -10.73,65.36 -10.62,65.69 0.27,0.78 -0.15,1.64 -0.93,1.91 -0.16,0.06 -0.32,0.08 -0.49,0.08 z"
   id="path13049" />

				</g>

				<path
   style="fill:#484848"
   inkscape:connector-curvature="0"
   class="st17"
   d="m 102.22,362.36 c 0,0 18.64,-4.82 21.21,-3.86 2.57,0.96 3.92,-0.42 3.86,8.68 -0.09,12.54 -2.11,118.29 -2.11,118.29 0,0 1.14,4.67 4.36,5.23 3.21,0.56 3.86,-2.66 3.86,-2.66 l 1.97,-123.45 c 0,0 -1.18,-14.18 -5.18,-14.77 -4,-0.58 -25.07,2.57 -27.96,3.54 -2.9,0.97 -3.48,8.71 -0.01,9 z"
   id="path13053" />

				<path
   style="fill:#262525"
   inkscape:connector-curvature="0"
   class="st70"
   d="m 128.77,486.69 v 0 c -0.84,-0.01 -1.52,-0.7 -1.51,-1.55 l 0.41,-33.55 c 0.01,-0.84 0.7,-1.52 1.55,-1.51 v 0 c 0.84,0.01 1.52,0.7 1.51,1.55 l -0.41,33.55 c -0.01,0.84 -0.7,1.52 -1.55,1.51 z"
   id="path13055" />

			</g>

			<path
   style="fill:#484848"
   inkscape:connector-curvature="0"
   class="st17"
   d="m 56.98,395.71 c 0,-2.72 15.5,21.6 57.11,9.29 23.09,-6.83 -18.96,15.45 -44.52,14.97 -16.46,-0.31 15.54,22.92 49.02,-6.91 0,0 -11.7,31.83 -10.93,35.13 7.77,33.32 -50.72,48.85 -50.68,-52.48 z"
   id="path13059" />

			<path
   style="fill:#484848"
   inkscape:connector-curvature="0"
   class="st17"
   d="m 127.13,378.49 c 0,0 -46.1,2.01 -61.99,-7.45 -15.89,-9.46 -0.39,12.32 8.87,14.67 9.26,2.35 45.07,-4.76 53.12,-7.22 z"
   id="path13061" />

		</g>

	</g>

</g>
  </g>
  <style
     id="style6401"
     type="text/css">
	.st0{fill:#E5E4E4;}
	.st1{fill:#A6785E;}
	.st2{fill:#030304;}
	.st3{fill:#A71916;}
	.st4{fill:#C23434;}
	.st5{fill:#F4A9BD;}
	.st6{fill:#BF4673;}
	.st7{fill:#F7DFB5;}
	.st8{fill:#F5A685;}
	.st9{fill:#B7492E;}
	.st10{fill:#49371B;}
	.st11{fill:#174C59;}
	.st12{fill:#108A7A;}
	.st13{fill:#8DCECD;}
	.st14{fill:#AB3F6B;}
	.st15{fill:#C78AA3;}
	.st16{fill:#2D130F;}
	.st17{fill:#484848;}
	.st18{fill:#401012;}
	.st19{fill:#FAF8F8;}
	.st20{fill:#0E4C43;}
	.st21{fill:#3D2C15;}
	.st22{fill:#CD5125;}
	.st23{fill:#FDFBFB;}
	.st24{fill:#44A7C7;}
	.st25{fill:none;stroke:#030304;stroke-miterlimit:10;}
	.st26{fill:#7D7B78;}
	.st27{fill:#EFCC95;}
	.st28{fill:#F7F3F1;}
	.st29{opacity:0.5;fill:#F5A685;}
	.st30{fill:#1F1F1F;}
	.st31{fill:#EE6F4A;}
	.st32{fill:#BA4B31;}
	.st33{fill:#CD563A;}
	.st34{fill:#D75537;}
	.st35{fill:#DDBB8A;}
	.st36{fill:#F5D49F;}
	.st37{fill:#BC9582;}
	.st38{fill:#53B7CE;}
	.st39{fill:#267E8D;}
	.st40{fill:#FAF8F5;}
	.st41{fill:#D3A58D;}
	.st42{opacity:0.7;}
	.st43{fill:#2B2319;}
	.st44{fill:#111111;}
	.st45{fill:#C5AA9E;}
	.st46{fill:#FAFAFA;}
	.st47{fill:#050606;}
	.st48{fill:#F4E8D4;}
	.st49{fill:#FCF9F6;}
	.st50{fill:#3D3C3A;}
	.st51{fill:#5F5F5E;}
	.st52{fill:#DF9A1F;}
	.st53{fill:none;}
	.st54{fill:#5E3926;}
	.st55{fill:#E2C89F;}
	.st56{fill:#2A788A;}
	.st57{fill:#2B8494;}
	.st58{fill:#1C9482;}
	.st59{fill:#541314;}
	.st60{fill:#F5D552;}
	.st61{fill:#C18019;}
	.st62{fill:#F07F5E;}
	.st63{fill:#525251;}
	.st64{fill:#FDFCFB;}
	.st65{fill:#AB402D;}
	.st66{fill:#D16E97;}
	.st67{fill:#020203;}
	.st68{fill:#EBD1A8;}
	.st69{fill:#F8F3F2;}
	.st70{fill:#262525;}
</style>
  <style
     id="style9176"
     type="text/css">
	.st0{fill:#E5E5E4;}
	.st1{fill:#FFFFFF;}
	.st2{fill:#267E8D;}
	.st3{fill:#F5D552;}
	.st4{fill:#BFBEBF;}
	.st5{fill:#FDFDFB;}
	.st6{fill:#030304;}
	.st7{fill:#020203;}
	.st8{fill:#A8A6A7;}
	.st9{fill:#EBD1A8;}
	.st10{fill:#F7DFB5;}
	.st11{fill:#541314;}
	.st12{fill:#FAFAFA;}
	.st13{fill:#E2C89F;}
	.st14{fill:#7D7B78;}
	.st15{fill:#484848;}
	.st16{fill:#2B8494;}
	.st17{fill:#2A788A;}
	.st18{fill:#108A7A;}
	.st19{fill:#401012;}
	.st20{fill:#1C9482;}
	.st21{fill:#286D78;}
	.st22{fill:#DF9A1F;}
	.st23{fill:#C18019;}
	.st24{fill:#44A7C7;}
	.st25{fill:#53B7CE;}
	.st26{opacity:0.2;fill:#030304;}
	.st27{fill:#231B10;}
	.st28{fill:#F4CB95;}
	.st29{fill:#EE6F4A;}
	.st30{fill:#F5A685;}
	.st31{fill:#F4A9BD;}
	.st32{fill:#BF4673;}
	.st33{fill:#B7492E;}
	.st34{fill:#49371B;}
	.st35{opacity:0.5;fill:#F5A685;}
	.st36{fill:#1F1F1F;}
	.st37{fill:#F7F3F1;}
	.st38{fill:#BA4B31;}
	.st39{fill:#CD563A;}
	.st40{fill:#FAF8F8;}
</style>
  <style
     id="style10170"
     type="text/css">
	.st0{fill:#E5E4E4;}
	.st1{fill:#A6785E;}
	.st2{fill:#030304;}
	.st3{fill:#A71916;}
	.st4{fill:#C23434;}
	.st5{fill:#F4A9BD;}
	.st6{fill:#BF4673;}
	.st7{fill:#F7DFB5;}
	.st8{fill:#F5A685;}
	.st9{fill:#B7492E;}
	.st10{fill:#49371B;}
	.st11{fill:#174C59;}
	.st12{fill:#108A7A;}
	.st13{fill:#8DCECD;}
	.st14{fill:#AB3F6B;}
	.st15{fill:#C78AA3;}
	.st16{fill:#2D130F;}
	.st17{fill:#484848;}
	.st18{fill:#401012;}
	.st19{fill:#FAF8F8;}
	.st20{fill:#0E4C43;}
	.st21{fill:#3D2C15;}
	.st22{fill:#CD5125;}
	.st23{fill:#FDFBFB;}
	.st24{fill:#44A7C7;}
	.st25{fill:none;stroke:#030304;stroke-miterlimit:10;}
	.st26{fill:#7D7B78;}
	.st27{fill:#EFCC95;}
	.st28{fill:#F7F3F1;}
	.st29{opacity:0.5;fill:#F5A685;}
	.st30{fill:#1F1F1F;}
	.st31{fill:#EE6F4A;}
	.st32{fill:#BA4B31;}
	.st33{fill:#CD563A;}
	.st34{fill:#D75537;}
	.st35{fill:#DDBB8A;}
	.st36{fill:#F5D49F;}
	.st37{fill:#BC9582;}
	.st38{fill:#53B7CE;}
	.st39{fill:#267E8D;}
	.st40{fill:#FAF8F5;}
	.st41{fill:#D3A58D;}
	.st42{opacity:0.7;}
	.st43{fill:#2B2319;}
	.st44{fill:#111111;}
	.st45{fill:#C5AA9E;}
	.st46{fill:#FAFAFA;}
	.st47{fill:#050606;}
	.st48{fill:#F4E8D4;}
	.st49{fill:#FCF9F6;}
	.st50{fill:#3D3C3A;}
	.st51{fill:#5F5F5E;}
	.st52{fill:#DF9A1F;}
	.st53{fill:none;}
	.st54{fill:#5E3926;}
	.st55{fill:#E2C89F;}
	.st56{fill:#2A788A;}
	.st57{fill:#2B8494;}
	.st58{fill:#1C9482;}
	.st59{fill:#541314;}
	.st60{fill:#F5D552;}
	.st61{fill:#C18019;}
	.st62{fill:#F07F5E;}
	.st63{fill:#525251;}
	.st64{fill:#FDFCFB;}
	.st65{fill:#AB402D;}
	.st66{fill:#D16E97;}
	.st67{fill:#020203;}
	.st68{fill:#EBD1A8;}
	.st69{fill:#F8F3F2;}
	.st70{fill:#262525;}
</style>
  <style
     id="style12351"
     type="text/css">
	.st0{fill:#E5E4E4;}
	.st1{fill:#A6785E;}
	.st2{fill:#030304;}
	.st3{fill:#A71916;}
	.st4{fill:#C23434;}
	.st5{fill:#F4A9BD;}
	.st6{fill:#BF4673;}
	.st7{fill:#F7DFB5;}
	.st8{fill:#F5A685;}
	.st9{fill:#B7492E;}
	.st10{fill:#49371B;}
	.st11{fill:#174C59;}
	.st12{fill:#108A7A;}
	.st13{fill:#8DCECD;}
	.st14{fill:#AB3F6B;}
	.st15{fill:#C78AA3;}
	.st16{fill:#2D130F;}
	.st17{fill:#484848;}
	.st18{fill:#401012;}
	.st19{fill:#FAF8F8;}
	.st20{fill:#0E4C43;}
	.st21{fill:#3D2C15;}
	.st22{fill:#CD5125;}
	.st23{fill:#FDFBFB;}
	.st24{fill:#44A7C7;}
	.st25{fill:none;stroke:#030304;stroke-miterlimit:10;}
	.st26{fill:#7D7B78;}
	.st27{fill:#EFCC95;}
	.st28{fill:#F7F3F1;}
	.st29{opacity:0.5;fill:#F5A685;}
	.st30{fill:#1F1F1F;}
	.st31{fill:#EE6F4A;}
	.st32{fill:#BA4B31;}
	.st33{fill:#CD563A;}
	.st34{fill:#D75537;}
	.st35{fill:#DDBB8A;}
	.st36{fill:#F5D49F;}
	.st37{fill:#BC9582;}
	.st38{fill:#53B7CE;}
	.st39{fill:#267E8D;}
	.st40{fill:#FAF8F5;}
	.st41{fill:#D3A58D;}
	.st42{opacity:0.7;}
	.st43{fill:#2B2319;}
	.st44{fill:#111111;}
	.st45{fill:#C5AA9E;}
	.st46{fill:#FAFAFA;}
	.st47{fill:#050606;}
	.st48{fill:#F4E8D4;}
	.st49{fill:#FCF9F6;}
	.st50{fill:#3D3C3A;}
	.st51{fill:#5F5F5E;}
	.st52{fill:#DF9A1F;}
	.st53{fill:none;}
	.st54{fill:#5E3926;}
	.st55{fill:#E2C89F;}
	.st56{fill:#2A788A;}
	.st57{fill:#2B8494;}
	.st58{fill:#1C9482;}
	.st59{fill:#541314;}
	.st60{fill:#F5D552;}
	.st61{fill:#C18019;}
	.st62{fill:#F07F5E;}
	.st63{fill:#525251;}
	.st64{fill:#FDFCFB;}
	.st65{fill:#AB402D;}
	.st66{fill:#D16E97;}
	.st67{fill:#020203;}
	.st68{fill:#EBD1A8;}
	.st69{fill:#F8F3F2;}
	.st70{fill:#262525;}
</style>
</svg>
