<?xml version="1.0" encoding="utf-8"?>
<!-- Generator: Adobe Illustrator 24.1.1, SVG Export Plug-In . SVG Version: 6.00 Build 0)  -->
<svg version="1.1" id="Layer_1" xmlns="http://www.w3.org/2000/svg" xmlns:xlink="http://www.w3.org/1999/xlink" x="0px" y="0px"
	 viewBox="0 0 588.86 595.28" style="enable-background:new 0 0 588.86 595.28;" xml:space="preserve">
<style type="text/css">
	.st0{fill:#E5E5E4;}
	.st1{fill:#FFFFFF;}
	.st2{fill:#267E8D;}
	.st3{fill:#F5D552;}
	.st4{fill:#BFBEBF;}
	.st5{fill:#FDFDFB;}
	.st6{fill:#030304;}
	.st7{fill:#020203;}
	.st8{fill:#A8A6A7;}
	.st9{fill:#EBD1A8;}
	.st10{fill:#F7DFB5;}
	.st11{fill:#541314;}
	.st12{fill:#FAFAFA;}
	.st13{fill:#E2C89F;}
	.st14{fill:#7D7B78;}
	.st15{fill:#484848;}
	.st16{fill:#2B8494;}
	.st17{fill:#2A788A;}
	.st18{fill:#108A7A;}
	.st19{fill:#401012;}
	.st20{fill:#1C9482;}
	.st21{fill:#286D78;}
	.st22{fill:#DF9A1F;}
	.st23{fill:#C18019;}
	.st24{fill:#44A7C7;}
	.st25{fill:#53B7CE;}
	.st26{opacity:0.2;fill:#030304;}
	.st27{fill:#231B10;}
	.st28{fill:#F4CB95;}
	.st29{fill:#EE6F4A;}
	.st30{fill:#F5A685;}
	.st31{fill:#F4A9BD;}
	.st32{fill:#BF4673;}
	.st33{fill:#B7492E;}
	.st34{fill:#49371B;}
	.st35{opacity:0.5;fill:#F5A685;}
	.st36{fill:#1F1F1F;}
	.st37{fill:#F7F3F1;}
	.st38{fill:#BA4B31;}
	.st39{fill:#CD563A;}
	.st40{fill:#FAF8F8;}
</style>
<g>
	<g>
		<path class="st0" d="M423.24,536.87l-214.09-5.89c-12.92,0-23.39-10.47-23.39-23.39l-4.61-355.27c0.1-1.66,15.08-12.99,28-12.99
			h223.21c12.92,0,23.39,10.47,23.39,23.39v344.87C455.76,520.5,433.53,536.87,423.24,536.87z"/>
		<path class="st1" d="M421.15,536.87H197.93c-12.92,0-23.39-10.47-23.39-23.39V168.6c0-12.92,10.47-23.39,23.39-23.39h223.21
			c12.92,0,23.39,10.47,23.39,23.39v344.87C444.54,526.39,434.06,536.87,421.15,536.87z"/>
		<path class="st2" d="M416.72,533.56H202.35c-12.92,0-23.39-10.47-23.39-23.39V171.91c0-12.92,10.47-23.39,23.39-23.39h214.37
			c12.92,0,23.39,10.47,23.39,23.39v338.25C440.11,523.08,429.64,533.56,416.72,533.56z"/>
		<path class="st1" d="M404.11,519.66H214.97c-12.92,0-23.39-10.47-23.39-23.39V185.81c0-12.92,10.47-23.39,23.39-23.39h189.14
			c12.92,0,23.39,10.47,23.39,23.39v310.47C427.5,509.19,417.03,519.66,404.11,519.66z"/>
		<path class="st0" d="M388.85,492.69H225.08c-8.56,0-15.51-6.94-15.51-15.51V268.1c0-8.56,6.94-15.51,15.51-15.51h163.77
			c8.56,0,15.51,6.94,15.51,15.51v209.09C404.36,485.75,397.42,492.69,388.85,492.69z"/>
		<g>
			<path class="st3" d="M248.13,306.04h-22.42c-3.91,0-7.07-3.17-7.07-7.07v-22.42c0-3.91,3.17-7.07,7.07-7.07h22.42
				c3.91,0,7.07,3.17,7.07,7.07v22.42C255.2,302.87,252.04,306.04,248.13,306.04z"/>
			<path class="st3" d="M248.13,363.02h-22.42c-3.91,0-7.07-3.17-7.07-7.07v-22.42c0-3.91,3.17-7.07,7.07-7.07h22.42
				c3.91,0,7.07,3.17,7.07,7.07v22.42C255.2,359.86,252.04,363.02,248.13,363.02z"/>
			<path class="st3" d="M248.13,420h-22.42c-3.91,0-7.07-3.17-7.07-7.07v-22.42c0-3.91,3.17-7.07,7.07-7.07h22.42
				c3.91,0,7.07,3.17,7.07,7.07v22.42C255.2,416.84,252.04,420,248.13,420z"/>
			<g>
				<line class="st3" x1="272.25" y1="275.57" x2="387.97" y2="275.57"/>
				<rect x="272.25" y="274.57" class="st4" width="115.71" height="2"/>
			</g>
			<g>
				<line class="st3" x1="272.25" y1="290.33" x2="359.97" y2="290.33"/>
				<rect x="272.25" y="289.33" class="st4" width="87.71" height="2"/>
			</g>
			<g>
				<line class="st3" x1="272.25" y1="334.36" x2="359.97" y2="334.36"/>
				<rect x="272.25" y="333.36" class="st4" width="87.71" height="2"/>
			</g>
			<g>
				<line class="st3" x1="272.25" y1="349.12" x2="397.97" y2="349.12"/>
				<rect x="272.25" y="348.12" class="st4" width="125.71" height="2"/>
			</g>
			<g>
				<line class="st3" x1="272.25" y1="393.14" x2="360.97" y2="393.14"/>
				<rect x="272.25" y="392.14" class="st4" width="88.71" height="2"/>
			</g>
			<g>
				<line class="st3" x1="272.25" y1="407.91" x2="397.97" y2="407.91"/>
				<rect x="272.25" y="406.91" class="st4" width="125.71" height="2"/>
			</g>
			<path class="st3" d="M248.13,476.89h-22.42c-3.91,0-7.07-3.17-7.07-7.07V447.4c0-3.91,3.17-7.07,7.07-7.07h22.42
				c3.91,0,7.07,3.17,7.07,7.07v22.42C255.2,473.73,252.04,476.89,248.13,476.89z"/>
			<g>
				<line class="st3" x1="272.25" y1="450.03" x2="360.97" y2="450.03"/>
				<rect x="272.25" y="449.03" class="st4" width="88.71" height="2"/>
			</g>
			<g>
				<line class="st3" x1="272.25" y1="464.8" x2="397.97" y2="464.8"/>
				<rect x="272.25" y="463.8" class="st4" width="125.71" height="2"/>
			</g>
		</g>
		<polygon class="st5" points="234.12,301.49 227.44,289.15 230.08,287.72 234.53,295.93 247.26,278.87 249.67,280.67 		"/>
		<polygon class="st5" points="234.42,356.46 225.8,346.7 228.04,344.72 234.23,351.71 247.26,334.25 249.67,336.04 		"/>
		<polygon class="st5" points="234.42,413.57 225.8,403.81 228.04,401.82 234.23,408.82 247.26,391.35 249.67,393.14 		"/>
		<polygon class="st5" points="234.42,471.23 225.8,461.47 228.04,459.48 234.23,466.48 247.26,449.01 249.67,450.81 		"/>
		<g>
			<path class="st6" d="M201.37,299.81c0,0,5.69-1.62,7.4-2.38c0.99-0.44,2.3-2.46,3.23-4.09h0c0.09-0.16,2.46-1.77,3.42-2.99
				c4.86-1.3,8.93-2.41,9.07-2.51c0.26-0.18,2.03-1.73,2.95-2.84c0.09-0.11,0.96-0.36,1.04-0.46c0.22-0.31,0.07-0.7-0.19-0.81
				l-1.28,0.25h-4.64c0,0-1.83,0.43-4.15,0.96l-4.25-2.18l-8.62-1.8l-7.16,0.68c0,0-4.47,3.05-5.33,5.13c-0.86,2.08-1,7.42-1,7.42
				l-7.09,22.32c0,0-6.5,19.08-7.57,24.24c-1.43,0.38-2.62,0.7-2.62,0.7l-0.87,19.45c-0.24,0.09-0.43,0.16-0.51,0.21
				c-1.75,0.99-4.72,15.51-5.26,21.13c-0.19,0.08-0.38,0.15-0.55,0.21c-3.24,1.13-12.5,26.99-13.36,32.68
				c-0.87,5.69,5.36,12.96,5.36,12.96s0.38,0.13,1.04,0.35c0.99,0.73,2.52,1.65,4.35,2.65c-0.04,0.74-0.01,1.26,0.02,2.02
				c0.01,0.24,0.03,0.41,0.04,0.55c-0.15-0.08-0.45,0.06-1.02,1c-0.37,0.6-0.11,1.36,0.52,2.2c-0.01,0.01-0.02,0.03-0.02,0.05
				c0.03,0.01,0.06,0.03,0.09,0.04c0.36,0.47,0.84,0.95,1.4,1.44c-0.44,0.36-0.87,0.75-0.96,1.17c-0.15,0.68,1.37,1.97,1.29,2.73
				c-0.59,5.22-1.5,14.74-1.18,16.15c0.15,0.66,0.77,2.44,1.5,4.48c0.08,0.62,0.16,1.12,0.23,1.43c0.43,1.88,2.9,6.95,2.91,6.96l0,0
				c0,0-0.24,5.32-0.15,8.48c0.01,0.36,0.49,0.73,1.21,1.09l-0.03,0.86l-0.12,0l-0.15,4.38c0.04,0.03,0.08,0.05,0.12,0.08
				c0,0.42-0.07,4.99-0.59,5.65c-11.2,14.32-5.81,27.6-6.7,30.71c-0.95,3.33-2.16,5.75-2.56,7.5c-0.79-0.04-1.49-0.01-1.83,0.06
				c-3.46,0.69-4.95,4.76-5.98,6.01c-0.11,0.14-0.22,0.28-0.31,0.44c-0.12,0.08-0.24,0.15-0.35,0.24c-0.73,1.03-0.85,2.45-0.59,4.09
				c0.07,0.88,0.29,1.78,0.66,2.66c0.58,1.8,1.42,3.73,2.28,5.63c3.42,7.47,0.5,7.39,3.54,10.99c0.63,0.75,3.57,1.49,7.04,1.77
				c4.31,1.09,12.79,0.79,13.3-4.62c0,0,0.07-0.28,0.06-0.67c0.06-1.05-0.28-2.97-4.48-3.05c-0.48-0.01-1.64-2.43-3.19-4.98
				c-2.26-3.72-1.42-7.33-0.84-9.52c0,0,0.96-1.23-0.32-1.95c-0.13-0.07-0.26-0.13-0.39-0.17c0.77-2,2.72-7.77,2.72-7.77
				c4.89-15.3,13.87-26.26,13.75-32.12c0.04-0.15,0.08-0.29,0.1-0.43c0.22-1.4,0.57-2.79,0.85-4.09c0.86,0.09,1.73,0.14,2.59,0.15
				c0.03,0.46,0.07,0.91,0.11,1.33c0.12,1.47,0.32,2.67,0.59,3.07c0.03,0.05,0.09,0.09,0.16,0.14c-0.27,2.89-0.34,6.54-0.36,7.53
				c-0.01,0.53,0.14,0.98,0.43,1.36c-1.02,5.47-3.01,20.68-3.79,25.26c-0.61-0.08-1.15-0.06-1.32,0.01c-0.72,0.3-2.64,1.68-2.62,1.8
				c0.01,0.03,0,0.06,0,0.09c-0.11-0.63-0.67-0.58-1-0.27c-1.24,1.13-5.2,2.94-6.15,4.24c-0.16,0.22-0.32,0.48-0.47,0.74h0
				c0,0,0,0,0,0c-0.33,0.59-0.6,1.24-0.78,1.85c-0.02,0.06-0.04,0.13-0.05,0.19c-0.02,0.1-0.05,0.19-0.07,0.28
				c-0.02,0.09-0.04,0.18-0.05,0.26c-0.01,0.07-0.02,0.15-0.03,0.22c-0.01,0.1-0.02,0.2-0.02,0.29c0,0.05,0,0.1,0,0.15
				c0.01,0.14,0.02,0.26,0.05,0.37c0.16,0.59,0.37,1.14,0.58,1.65c0.1,0.24,0.21,0.48,0.33,0.71c0.25,0.51,0.52,0.99,0.82,1.44
				c0.36,0.55,0.74,1.06,1.15,1.56c0.41,0.5,0.84,0.99,1.28,1.48c1.76,1.98,3.72,4.06,5.34,7.48c2.73,5.77-1.34,12.54,3.08,13.72
				c0.21,0.06,0.45,0.11,0.7,0.17c0.04,0.01,0.07,0.02,0.11,0.03c0.24,0.05,0.5,0.11,0.78,0.16c0.05,0.01,0.1,0.02,0.15,0.03
				c0.28,0.05,0.57,0.11,0.88,0.16c0.04,0.01,0.08,0.01,0.12,0.02c0.31,0.05,0.63,0.11,0.97,0.16c0.02,0,0.03,0.01,0.05,0.01
				c0.34,0.05,0.7,0.11,1.06,0.16c0.04,0.01,0.09,0.01,0.13,0.02c0.36,0.05,0.73,0.1,1.11,0.15c0.04,0,0.07,0.01,0.11,0.01
				c1.2,0.15,2.45,0.28,3.67,0.38c0.01,0,0.03,0,0.04,0c3.94,0.32,7.57,0.32,8.29-0.38c1.4-1.36,2.15-2.65,2.05-4.41
				c-0.1-1.76-5.73-4.7-7.4-7.33c-1.66-2.63-2.19-14.71-2.46-16.51c-0.27-1.8,0.21-2.91-0.84-3.62c-0.62-0.42-1.2-0.08-1.2-0.08
				l-0.94,0.41c0,0-0.03-0.03-0.09-0.07c-0.08-0.07-0.2-0.17-0.33-0.31c0.65-0.56,1.27-1.12,1.4-1.24c0.57-0.52-0.2-1.49-0.29-1.61
				c-0.72-0.52-2.22-1.58-3.73-2.54c0.34-0.15,0.59-0.35,0.67-0.63c0.59-2.08,3.98-19.21,4.84-25.84c1.69-0.58,3.27-1.95,3.69-4.98
				c0.32-2.31,1.12-4.06,1.86-5.26c1.55-0.37,2.78-0.83,3.31-1.38c0.76-0.79,1.34-2.25,1.76-3.75l0,0c0.32-0.99,0.54-1.93,0.68-2.74
				c4.4-1.83,7.46-3.82,8.03-4.74c0.77-1.26,1.31-9.92,1.66-17.99c0.63-0.01,1.26-0.17,1.62-0.61l1.67-9.96c0,0-0.46,8.41-0.24,9.05
				s1.42,0.89,2.24,0.38c0,0,0.56-2.98,1.13-5.99c0.85-0.1,2.64-1.7,2.98-1.89c0.56-0.32,1.04-5.14,1.03-5.38
				c-0.15-3.51-4.76-8.71-4.64-9.23c5.4-22.05,4.12-35.26,2.61-34.61c1.68-1.16,2.02-2.48,2.02-2.48s-4.1-23.51-7.24-26.09
				c-1.55-1.27-4.27-2.98-6.9-4.51c0.01-0.05,0.02-0.12,0.04-0.24c0-0.02,0.01-0.03,0.01-0.06c0.04-0.32,0.1-0.82,0.12-1.32
				c0,0,0,0,0,0c0.01-0.32,0-0.65-0.03-0.93c0-0.01,0-0.03,0-0.04c-0.02-0.11-0.04-0.2-0.07-0.29c-0.01-0.03-0.01-0.07-0.02-0.1
				c0,0,0,0,0,0c0,0,0,0,0,0c-0.3-0.82-5.47-1.99-8.81-2.82c-0.12-0.15-0.27-0.3-0.43-0.45c0,0-0.01-0.01-0.01-0.01
				c-0.08-0.07-0.17-0.14-0.26-0.22c-0.01-0.01-0.02-0.02-0.03-0.03c-0.09-0.07-0.19-0.14-0.29-0.21c-0.01-0.01-0.03-0.02-0.04-0.03
				c-0.35-0.22-0.76-0.44-1.29-0.65l1.85-3.87c0.98,0.12,8.2-2.77,9.11-3.37s1.57-2.1,1.85-2.64c0.27-0.54,1.12-4.95,1.33-6.19
				c0.21-1.24,0.26-5.26,0.26-5.26c0.39-2.25-1-9.92-1.19-11c0,0.01,0.01,0.01,0.01,0.02c-0.02-0.1,1,1.07,1.99,0.92
				c0.99-0.15,0.23-1.78,0.94-1.67c0.27,0.04,0.65,0.1,1,0.11c0.12,0.01,0.24,0.01,0.34,0c0.22-0.01,0.41-0.05,0.52-0.13
				c0.12-0.08,0.17-0.2,0.1-0.38c-0.08-0.23-0.69-0.57-1.5-0.95c-1.78-0.82-4.49-1.77-4.49-1.77c0.27-0.11,0.57-0.19,0.89-0.23
				c0.32-0.05,0.66-0.06,1.01-0.05c0.35,0.01,0.7,0.04,1.05,0.08c0.7,0.09,1.38,0.23,1.94,0.37c0.28,0.07,0.53,0.14,0.75,0.2
				c0.42,0.12,0.68,0.22,0.68,0.22s3.7,1.62,1.53-0.38c-2.18-1.99-10.71-3.26-10.71-3.26c2.23-3.33,9.1-1.54,9.1-1.54
				c-8.44-6.65-18.79-3.36-18.79-3.36c-0.44-0.23-0.84-0.26-1.19-0.17c-0.18,0.05-0.34,0.12-0.49,0.21
				c-0.23,0.14-0.43,0.32-0.6,0.51c-0.39,0.43-0.61,0.89-0.61,0.89c-0.07-0.02-0.15-0.03-0.22-0.02c-0.31,0.02-0.64,0.2-0.97,0.47
				c-0.33,0.27-0.65,0.61-0.93,0.94c-0.14,0.17-0.27,0.33-0.38,0.47c-0.28,0.37-0.45,0.64-0.45,0.64c0.01-0.15,0.01-0.28,0.01-0.41
				c-0.01-0.24-0.05-0.45-0.11-0.62l1.82-6.36L201.37,299.81z M213.16,374.61c-0.73-0.42-1.44-0.82-2.11-1.19
				C211.99,373.82,212.74,374.31,213.16,374.61z M214.6,409.2l0.15,1.2l-2.92-1.59c0,0,1.85,0.31,3.99,0.54
				C215.06,409.28,214.6,409.2,214.6,409.2z"/>
			<path class="st7" d="M200.76,571.85c-1.24,0-2.73-0.07-4.48-0.21c-1.23-0.1-2.47-0.23-3.73-0.39l-0.11-0.01
				c-0.38-0.05-0.75-0.1-1.11-0.15l-0.14-0.02c-0.36-0.05-0.72-0.1-1.07-0.16c-0.38-0.06-0.71-0.11-1.02-0.17l-0.12-0.02
				c-0.31-0.05-0.6-0.11-0.89-0.16l-0.16-0.03c-0.27-0.05-0.53-0.11-0.78-0.16l-0.11-0.03c-0.26-0.06-0.5-0.12-0.72-0.17
				c-2.81-0.75-2.66-3.5-2.5-6.4c0.13-2.39,0.28-5.09-0.9-7.59c-1.49-3.14-3.24-5.1-4.93-6.99l-0.33-0.37
				c-0.45-0.5-0.88-0.99-1.29-1.5c-0.46-0.56-0.85-1.09-1.18-1.6c-0.3-0.46-0.58-0.94-0.85-1.5c-0.12-0.24-0.23-0.49-0.34-0.74
				c-0.26-0.61-0.45-1.15-0.61-1.71c-0.04-0.14-0.06-0.3-0.07-0.49c0-0.05,0-0.1,0-0.15c0-0.14,0.01-0.25,0.02-0.37
				c0.01-0.08,0.02-0.16,0.03-0.24c0.02-0.1,0.03-0.19,0.05-0.29c0.02-0.1,0.04-0.2,0.07-0.3l0.05-0.16c0.2-0.71,0.49-1.38,0.83-2
				c0.16-0.28,0.32-0.55,0.5-0.79c0.61-0.83,2.17-1.75,3.68-2.65c1.05-0.62,2.04-1.21,2.53-1.66c0.34-0.31,0.79-0.42,1.17-0.3
				c0.07,0.02,0.13,0.05,0.19,0.09c0.83-0.71,2.39-1.49,2.41-1.5c0.27-0.11,0.74-0.11,1.1-0.09c0.34-2.06,0.86-5.72,1.41-9.58
				c0.79-5.54,1.68-11.81,2.27-15.03c-0.28-0.44-0.41-0.94-0.4-1.49l0.01-0.41c0.03-1.32,0.1-4.35,0.33-6.89
				c-0.02-0.02-0.03-0.04-0.05-0.07c-0.11-0.17-0.45-0.67-0.67-3.31c-0.03-0.28-0.06-0.58-0.08-0.88c-0.57-0.02-1.15-0.05-1.73-0.1
				l-0.13,0.56c-0.23,1-0.46,2.03-0.63,3.07c-0.02,0.13-0.05,0.27-0.09,0.41c0.02,3.06-2.23,7.33-5.08,12.73
				c-2.8,5.3-6.27,11.89-8.7,19.48c-0.02,0.06-1.72,5.08-2.56,7.36c0.62,0.34,0.82,0.8,0.89,1.12c0.13,0.66-0.2,1.25-0.36,1.48
				c-0.51,1.93-1.39,5.44,0.81,9.05c0.49,0.8,0.94,1.6,1.34,2.31c0.58,1.02,1.24,2.18,1.52,2.43c1.96,0.05,3.35,0.51,4.14,1.36
				c0.54,0.59,0.79,1.33,0.74,2.22c0.02,0.41-0.07,0.74-0.08,0.77c-0.13,1.48-0.89,2.76-2.24,3.71c-2.87,2.02-8.15,2.16-11.67,1.27
				c-2.98-0.23-6.45-0.92-7.3-1.93c-1.6-1.9-1.66-2.9-1.74-4.28c-0.08-1.32-0.18-3.12-1.87-6.82c-0.79-1.73-1.68-3.76-2.31-5.68
				c-0.37-0.86-0.61-1.81-0.69-2.77c-0.3-1.89-0.08-3.35,0.68-4.42l0.1-0.1c0.09-0.07,0.2-0.14,0.3-0.21
				c0.09-0.14,0.19-0.27,0.29-0.39c0.21-0.26,0.47-0.69,0.77-1.19c1.04-1.76,2.62-4.42,5.5-4.99c0.34-0.07,0.92-0.1,1.54-0.08
				c0.21-0.77,0.55-1.65,0.93-2.64c0.49-1.29,1.05-2.75,1.54-4.47c0.18-0.64,0.04-1.95-0.14-3.6c-0.61-5.66-1.75-16.19,6.92-27.28
				c0.23-0.34,0.43-2.55,0.48-5.09l-0.12-0.09l0.17-5.11l0.12,0l0-0.08c-0.82-0.45-1.19-0.88-1.2-1.38
				c-0.08-2.87,0.11-7.56,0.15-8.39c-0.53-1.09-2.5-5.22-2.89-6.95c-0.07-0.32-0.15-0.81-0.23-1.42c-0.87-2.41-1.36-3.88-1.5-4.48
				c-0.44-1.94,1.15-16.17,1.17-16.32c0.02-0.19-0.35-0.73-0.58-1.05c-0.42-0.61-0.82-1.18-0.7-1.73c0.09-0.41,0.37-0.77,0.69-1.08
				c-0.37-0.35-0.69-0.7-0.96-1.02l-0.41-0.17l0.1-0.25c-0.68-0.99-0.81-1.84-0.38-2.53c0.2-0.32,0.52-0.85,0.92-1.11
				c0-0.05-0.01-0.1-0.01-0.15l-0.01-0.16c-0.03-0.58-0.05-1.03-0.03-1.59c-1.74-0.96-3.14-1.82-4.07-2.49l-1.1-0.37l-0.09-0.1
				c-0.26-0.3-6.37-7.52-5.48-13.36c0.83-5.44,10.06-31.81,13.69-33.07c0.08-0.03,0.16-0.06,0.25-0.09
				c0.53-5.04,3.37-20.03,5.48-21.22c0.05-0.03,0.15-0.07,0.27-0.12l0.87-19.49l2.68-0.72c1.23-5.51,7.26-23.23,7.52-23.99
				l7.06-22.24c0.02-0.67,0.2-5.5,1.04-7.53c0.91-2.19,5.32-5.22,5.51-5.35l0.11-0.07l7.36-0.7l8.82,1.86l4.09,2.09l4.08-0.94h4.64
				l1.33-0.27l0.14,0.06c0.27,0.11,0.48,0.36,0.56,0.65c0.09,0.31,0.03,0.64-0.16,0.91c-0.12,0.17-0.3,0.24-0.73,0.4
				c-0.14,0.05-0.28,0.1-0.37,0.14c-0.96,1.15-2.72,2.69-3.01,2.88c-0.12,0.08-0.26,0.17-9.07,2.53c-0.73,0.87-2.01,1.85-2.79,2.45
				c-0.27,0.21-0.47,0.35-0.54,0.42c-1.35,2.38-2.51,3.82-3.4,4.22c-1.52,0.68-5.95,1.97-7.17,2.32l-3.43,19.74l-1.63,5.71
				c0.3-0.35,0.59-0.63,0.86-0.85c0.44-0.36,0.85-0.55,1.23-0.58c0.12-0.19,0.29-0.45,0.52-0.71c0.22-0.25,0.46-0.45,0.71-0.6
				c0.2-0.13,0.42-0.22,0.63-0.27c0.45-0.12,0.91-0.08,1.36,0.12c1.49-0.41,11.14-2.73,19.05,3.5l1.87,1.48l-2.31-0.6
				c-0.06-0.02-5.57-1.41-8.01,0.71c2.29,0.39,8.22,1.54,10.07,3.24c0.56,0.51,1.08,1.06,0.75,1.57c-0.15,0.23-0.44,0.67-2.81-0.36
				l0,0c0,0-0.25-0.08-0.63-0.2c-0.21-0.06-0.45-0.13-0.73-0.2c-0.67-0.17-1.3-0.29-1.88-0.36c-0.28-0.03-0.56-0.06-0.84-0.07
				c0.86,0.33,1.85,0.72,2.65,1.1c1.32,0.61,1.66,0.93,1.76,1.24c0.13,0.38,0.02,0.75-0.3,0.96c-0.19,0.13-0.44,0.19-0.78,0.21
				c-0.12,0.01-0.25,0.01-0.39,0c-0.29-0.01-0.59-0.05-0.84-0.09c0,0.05-0.01,0.1-0.01,0.14c-0.02,0.44-0.06,1.35-1,1.5
				c-0.45,0.07-0.89-0.06-1.27-0.24l0.35,1.44l-0.25-0.38c0.46,2.83,1.08,7.18,0.79,8.84c0.01,0.08-0.04,3.99-0.26,5.26
				c-0.09,0.53-1.03,5.64-1.38,6.33l-0.09,0.19c-0.35,0.71-1,2.03-1.93,2.65c-0.72,0.48-7.11,3.15-9.06,3.43l-1.5,3.14
				c0.32,0.15,0.61,0.31,0.89,0.48c0.16,0.1,0.26,0.18,0.36,0.26c0.14,0.11,0.23,0.19,0.32,0.27c0.14,0.13,0.27,0.25,0.38,0.38
				l1.16,0.29c5.53,1.36,7.54,1.98,7.84,2.81l0.04,0.13c0.03,0.11,0.06,0.22,0.08,0.36c0.04,0.34,0.06,0.68,0.04,1.06
				c-0.02,0.51-0.07,1.01-0.12,1.35c2.18,1.27,5,3.01,6.68,4.38c3.19,2.62,6.99,23.96,7.41,26.39l0.02,0.11l-0.03,0.1
				c-0.01,0.05-0.32,1.19-1.65,2.32c1.49,2.44,1.75,15.37-2.96,34.65c0.11,0.24,0.54,0.86,0.92,1.41c1.35,1.96,3.6,5.25,3.71,7.79
				c0,0.05-0.34,5.3-1.28,5.84c-0.08,0.05-0.25,0.18-0.46,0.35c-0.85,0.67-1.67,1.28-2.33,1.52l-1.11,5.9l-0.19,0.12
				c-0.59,0.36-1.39,0.45-2.05,0.21c-0.47-0.17-0.8-0.47-0.93-0.86c-0.06-0.17-0.08-0.69-0.08-1.42l-0.4,2.37l-0.08,0.1
				c-0.34,0.42-0.86,0.68-1.52,0.76c-0.7,16.13-1.46,17.37-1.71,17.78c-0.7,1.14-4.05,3.16-8.01,4.83
				c-0.17,0.89-0.39,1.74-0.65,2.54c-0.52,1.87-1.16,3.2-1.88,3.95c-0.54,0.56-1.67,1.05-3.35,1.47c-0.87,1.46-1.44,3.11-1.69,4.89
				c-0.37,2.66-1.62,4.43-3.73,5.27c-0.92,6.91-4.26,23.66-4.81,25.61c-0.05,0.17-0.13,0.33-0.26,0.47
				c1.27,0.83,2.47,1.68,3.13,2.15l0.1,0.09c0.54,0.67,0.93,1.67,0.24,2.3c-0.05,0.04-0.16,0.14-0.3,0.27
				c0.34-0.1,0.88-0.11,1.4,0.24c0.92,0.62,0.94,1.52,0.95,2.47c0.01,0.44,0.02,0.93,0.1,1.49c0.07,0.43,0.14,1.37,0.24,2.67
				c0.33,4.1,0.93,11.73,2.15,13.64c0.74,1.16,2.4,2.47,3.87,3.63c1.97,1.55,3.53,2.78,3.6,3.93c0.11,1.76-0.55,3.2-2.2,4.8
				C204.45,571.6,203.05,571.85,200.76,571.85z M192.67,570.26c1.24,0.15,2.47,0.28,3.65,0.38c5.62,0.46,7.63,0.07,7.94-0.23
				c1.44-1.39,1.98-2.56,1.9-4.02c-0.04-0.71-1.73-2.04-3.22-3.21c-1.61-1.27-3.27-2.58-4.1-3.88c-1.24-1.96-1.84-8.31-2.3-14.1
				c-0.1-1.23-0.17-2.2-0.23-2.6c-0.09-0.62-0.1-1.15-0.11-1.62c-0.02-0.95-0.04-1.34-0.51-1.66c-0.34-0.23-0.64-0.08-0.67-0.06
				l-1.26,0.55l-0.33-0.27c-0.09-0.07-0.22-0.19-0.37-0.34l-0.37-0.38l0.4-0.35c0.64-0.56,1.26-1.11,1.4-1.24
				c0.14-0.13-0.08-0.58-0.31-0.88c-0.77-0.55-2.21-1.57-3.65-2.48l-0.8-0.51l0.87-0.37c0.21-0.09,0.35-0.2,0.38-0.3
				c0.56-1.97,3.96-19.09,4.82-25.77l0.04-0.31l0.29-0.1c1.9-0.65,3.03-2.19,3.36-4.57c0.28-1.99,0.93-3.83,1.93-5.46l0.11-0.18
				l0.2-0.05c2.11-0.5,2.83-0.99,3.07-1.24c0.6-0.62,1.16-1.84,1.64-3.54c0.28-0.86,0.5-1.75,0.67-2.69l0.05-0.27l0.25-0.11
				c4.59-1.91,7.36-3.84,7.79-4.54c0.27-0.44,0.96-3.04,1.58-17.75l0.02-0.47l0.48,0c0.31,0,0.84-0.05,1.15-0.34l1.64-9.81
				l0.99,0.11c-0.22,3.92-0.38,8.37-0.26,8.88c0.03,0.07,0.15,0.17,0.31,0.22c0.26,0.09,0.65,0.11,1-0.03l1.15-6.11l0.37-0.04
				c0.49-0.06,1.69-1,2.21-1.4c0.27-0.21,0.48-0.37,0.58-0.43c0.3-0.43,0.77-4.39,0.78-4.94c-0.1-2.24-2.25-5.38-3.53-7.25
				c-0.96-1.4-1.18-1.74-1.09-2.11c5.12-20.89,4.1-33.19,3.08-34.05c0.03,0.02,0.13,0.05,0.22,0.02l-0.48-0.87
				c1.25-0.86,1.68-1.82,1.79-2.11c-1.15-6.58-4.6-23.66-7.04-25.66c-1.32-1.09-3.75-2.67-6.84-4.46l-0.3-0.17l0.05-0.27l-0.14,0.22
				c-0.72-0.42-1.43-0.81-2.1-1.19l0.44-0.9c0.79,0.34,1.44,0.73,1.91,1.04c0.03-0.25,0.05-0.53,0.06-0.81
				c0.01-0.33,0-0.61-0.03-0.85c-0.02-0.12-0.04-0.19-0.06-0.26l-0.01-0.04c-0.54-0.59-4.83-1.64-7.15-2.21l-1.48-0.37l-0.1-0.12
				c-0.11-0.13-0.24-0.27-0.38-0.4c-0.08-0.07-0.16-0.14-0.24-0.2c-0.11-0.08-0.2-0.15-0.29-0.21c-0.39-0.25-0.78-0.45-1.24-0.63
				l-0.5-0.2l2.24-4.68l0.36,0.04c0.01,0,0.02,0,0.03,0c0.94,0,7.74-2.63,8.75-3.3c0.7-0.46,1.29-1.67,1.58-2.25l0.1-0.2
				c0.21-0.42,1-4.37,1.29-6.05c0.2-1.19,0.25-5.14,0.25-5.18c0.39-2.25-1.02-10.03-1.19-10.91l-0.07-0.31l0.01-0.01l-0.33-1.78
				l1.23,1.65c0.04,0.03,0.07,0.06,0.1,0.08c0.23,0.2,0.92,0.81,1.46,0.72c0.08-0.01,0.13-0.04,0.15-0.56
				c0.02-0.34,0.03-0.72,0.33-0.96c0.11-0.09,0.31-0.2,0.61-0.15c0.25,0.04,0.61,0.09,0.95,0.11c0.07,0,0.15,0.01,0.22,0
				c-0.18-0.11-0.49-0.28-0.98-0.51c-1.58-0.73-3.96-1.58-4.43-1.74l-0.11-0.04l-0.1-0.09l-0.53-0.53l0.69-0.29
				c0.3-0.12,0.64-0.21,1.01-0.26c0.33-0.05,0.69-0.07,1.08-0.06c0.37,0.01,0.74,0.04,1.1,0.08c0.62,0.08,1.29,0.21,2,0.38
				c0.29,0.07,0.55,0.15,0.76,0.21c0.44,0.13,0.71,0.23,0.71,0.23c0.3,0.13,0.6,0.25,0.88,0.35c-1.88-1.49-8.03-2.68-10.3-3.02
				l-0.78-0.12l0.44-0.66c1.56-2.33,5.04-2.4,7.37-2.14c-7.74-4.69-16.39-2.03-16.49-2l-0.2,0.06l-0.19-0.1
				c-0.29-0.16-0.56-0.2-0.83-0.13c-0.12,0.03-0.24,0.08-0.36,0.16c-0.16,0.1-0.33,0.24-0.49,0.42c-0.33,0.37-0.53,0.77-0.53,0.77
				l-0.18,0.37l-0.4-0.1c0,0,0,0,0,0c-0.17,0-0.38,0.06-0.75,0.35c-0.26,0.21-0.55,0.5-0.86,0.87c-0.13,0.16-0.25,0.31-0.36,0.45
				c-0.26,0.35-0.43,0.6-0.43,0.61l-1.04,1.62l0.12-1.92c0.01-0.13,0.01-0.25,0.01-0.36c-0.01-0.18-0.03-0.35-0.08-0.49l-0.05-0.15
				l1.86-6.5l3.53-20.31l0.3-0.09c0.06-0.02,5.68-1.62,7.34-2.36c0.31-0.14,1.24-0.8,3-3.88c0.08-0.13,0.18-0.22,0.74-0.64
				c0.78-0.6,2.09-1.6,2.72-2.41l0.1-0.13l0.16-0.04c7.41-1.98,8.81-2.4,8.99-2.47c0.15-0.1,1.89-1.63,2.78-2.71
				c0.1-0.12,0.25-0.2,0.52-0.3l-0.46,0.09l-4.68,0.01l-4.27,0.99l-4.36-2.23l-8.48-1.77l-6.95,0.66c-1.28,0.89-4.41,3.29-5.05,4.84
				c-0.82,1.97-0.97,7.19-0.97,7.24l-0.02,0.14l-7.09,22.32c-0.07,0.2-6.51,19.12-7.56,24.19l-0.06,0.3l-2.56,0.69l-0.87,19.42
				l-0.32,0.11c-0.21,0.07-0.36,0.13-0.43,0.17c-1.33,0.75-4.37,14.06-5,20.75l-0.03,0.3l-0.28,0.11c-0.2,0.08-0.39,0.16-0.57,0.22
				c-2.75,0.96-12.07,25.94-13.04,32.28c-0.77,5.04,4.42,11.56,5.16,12.46l1.04,0.37c0.93,0.69,2.42,1.59,4.29,2.61l0.28,0.15
				l-0.02,0.32c-0.04,0.67-0.02,1.14,0.01,1.81l0.01,0.16c0.01,0.23,0.02,0.38,0.04,0.51l0.11,0.97l-0.67-0.38
				c-0.09,0.09-0.27,0.3-0.53,0.73c-0.27,0.45,0.11,1.13,0.49,1.63l0.07,0.09c0.33,0.42,0.78,0.88,1.33,1.38l0.44,0.39l-0.46,0.37
				c-0.23,0.19-0.72,0.59-0.78,0.89c-0.01,0.16,0.34,0.66,0.55,0.95c0.42,0.6,0.81,1.17,0.75,1.73c-0.66,5.89-1.47,14.74-1.19,15.99
				c0.09,0.39,0.41,1.46,1.48,4.42l0.03,0.11c0.07,0.59,0.15,1.09,0.22,1.38c0.39,1.72,2.61,6.32,2.86,6.84l0.06,0.11l0,0.17
				c-0.04,0.9-0.23,5.56-0.15,8.41l0,0c0,0,0.09,0.24,0.94,0.66l0.29,0.14l-0.06,1.65l-0.12,0l-0.12,3.65l0.11,0.33
				c-0.02,1.92-0.14,5.25-0.69,5.95c-8.43,10.77-7.31,21.04-6.72,26.56c0.2,1.83,0.34,3.15,0.11,3.98c-0.5,1.77-1.07,3.25-1.57,4.56
				c-0.43,1.13-0.81,2.12-0.99,2.91l-0.09,0.41l-0.42-0.02c-0.78-0.04-1.43-0.01-1.7,0.05c-2.44,0.48-3.82,2.82-4.83,4.52
				c-0.32,0.53-0.59,1-0.85,1.32c-0.1,0.12-0.19,0.25-0.28,0.39l-0.15,0.15c-0.12,0.08-0.2,0.13-0.26,0.17
				c-0.56,0.84-0.71,2.04-0.46,3.66c0.07,0.89,0.28,1.74,0.63,2.54c0.62,1.92,1.5,3.92,2.28,5.62c1.77,3.87,1.88,5.79,1.96,7.18
				c0.07,1.28,0.12,2.05,1.5,3.69c0.46,0.54,3.15,1.31,6.69,1.59c3.38,0.85,8.31,0.75,10.93-1.1c1.1-0.77,1.72-1.8,1.83-3.07
				c0.01-0.08,0.07-0.3,0.06-0.61c0.04-0.66-0.12-1.14-0.47-1.53c-0.61-0.66-1.79-1.01-3.52-1.04c-0.59-0.01-1.02-0.71-2.28-2.93
				c-0.4-0.7-0.84-1.49-1.33-2.28c-2.45-4.03-1.4-8-0.9-9.91l0.09-0.18c0.08-0.11,0.29-0.46,0.23-0.76
				c-0.01-0.06-0.05-0.25-0.4-0.44c-0.11-0.06-0.21-0.1-0.32-0.14l-0.48-0.17l0.18-0.47c0.76-1.96,2.69-7.7,2.71-7.75
				c2.45-7.67,5.95-14.3,8.77-19.64c2.8-5.31,5.02-9.51,4.96-12.32l0-0.07l0.02-0.07c0.04-0.13,0.07-0.25,0.09-0.37
				c0.17-1.07,0.41-2.12,0.64-3.13l0.32-1.42l0.44,0.04c0.86,0.08,1.72,0.14,2.55,0.15l0.46,0.01l0.03,0.46
				c0.03,0.45,0.06,0.89,0.11,1.31c0.19,2.28,0.46,2.77,0.51,2.84l0.25,0.17l-0.02,0.3c-0.24,2.56-0.32,5.73-0.35,7.08l-0.01,0.42
				c-0.01,0.4,0.1,0.74,0.33,1.04l0.13,0.18l-0.04,0.22c-0.58,3.13-1.5,9.54-2.3,15.19c-0.59,4.17-1.16,8.11-1.49,10.06l-0.08,0.47
				l-0.48-0.06c-0.57-0.07-0.98-0.05-1.08-0.02c-0.59,0.24-2.19,1.38-2.39,1.61l-0.17-0.16l-0.73,0.06c-0.01-0.07-0.03-0.1-0.03-0.1
				c0.01,0.02-0.07,0.04-0.14,0.11c-0.56,0.52-1.6,1.13-2.7,1.78c-1.36,0.81-2.9,1.72-3.39,2.38c-0.15,0.21-0.3,0.44-0.43,0.69
				c-0.31,0.55-0.57,1.17-0.73,1.75l-0.05,0.18c-0.02,0.09-0.04,0.17-0.06,0.26c-0.02,0.08-0.03,0.16-0.05,0.24l-0.03,0.19
				c-0.01,0.09-0.01,0.17-0.01,0.25l-0.5,0.14l0.5-0.02c0,0.11,0.02,0.2,0.03,0.26c0.14,0.51,0.32,1.02,0.56,1.59
				c0.1,0.24,0.2,0.47,0.31,0.69c0.26,0.52,0.51,0.97,0.79,1.39c0.32,0.48,0.68,0.98,1.12,1.52c0.4,0.5,0.83,0.98,1.26,1.47
				l0.33,0.37c1.66,1.86,3.54,3.96,5.09,7.23c1.29,2.72,1.13,5.69,0.99,8.07c-0.17,3.18-0.17,4.86,1.76,5.38
				c0.21,0.06,0.44,0.11,0.68,0.17l0,0.51l0.11-0.49c0.24,0.05,0.49,0.11,0.76,0.16l0.15,0.03c0.28,0.05,0.57,0.11,0.87,0.16
				l0.03,0.51l0.08-0.49c0.31,0.05,0.63,0.11,0.96,0.16c0.39,0.06,0.75,0.11,1.11,0.17l0.06,0.51l0.07-0.5
				c0.36,0.05,0.73,0.1,1.1,0.15l0.04,0.51L192.67,570.26z M174.1,553.11L174.1,553.11L174.1,553.11z M215.37,411.31l-6.37-3.48
				l2.92,0.49c0.01,0,0.88,0.15,2.1,0.31l0-0.03l0.64,0.11c0.39,0.05,0.8,0.1,1.22,0.14l-0.09,1c-0.23-0.02-0.43-0.04-0.61-0.06
				L215.37,411.31z"/>
		</g>
		<g>
			<g>
				<path class="st1" d="M393.76,239.5H220.18c-5.86,0-10.6-4.75-10.6-10.6v-29.18c0-5.86,4.75-10.6,10.6-10.6h173.58
					c5.86,0,10.6,4.75,10.6,10.6v29.18C404.36,234.75,399.61,239.5,393.76,239.5z"/>
				<path class="st8" d="M393.76,240.5H220.18c-6.4,0-11.6-5.21-11.6-11.6v-29.18c0-6.4,5.21-11.6,11.6-11.6h173.58
					c6.4,0,11.6,5.21,11.6,11.6v29.18C405.36,235.29,400.15,240.5,393.76,240.5z M220.18,190.11c-5.29,0-9.6,4.31-9.6,9.6v29.18
					c0,5.29,4.31,9.6,9.6,9.6h173.58c5.29,0,9.6-4.31,9.6-9.6v-29.18c0-5.29-4.31-9.6-9.6-9.6H220.18z"/>
			</g>
			<g>
				<polygon class="st3" points="241.76,227.51 233.32,222.86 224.71,227.18 226.52,217.72 219.75,210.86 229.31,209.66 
					233.74,201.1 237.84,209.82 247.34,211.39 240.32,217.98 				"/>
				<polygon class="st3" points="278.47,227.51 270.03,222.86 261.42,227.18 263.23,217.72 256.46,210.86 266.02,209.66 
					270.45,201.1 274.55,209.82 284.05,211.39 277.03,217.98 				"/>
				<polygon class="st3" points="315.18,227.51 306.74,222.86 298.13,227.18 299.94,217.72 293.17,210.86 302.73,209.66 
					307.16,201.1 311.26,209.82 320.76,211.39 313.74,217.98 				"/>
				<polygon class="st3" points="351.89,227.51 343.45,222.86 334.84,227.18 336.65,217.72 329.88,210.86 339.44,209.66 
					343.87,201.1 347.97,209.82 357.47,211.39 350.45,217.98 				"/>
				<polygon class="st3" points="388.6,227.51 380.16,222.86 371.55,227.18 373.36,217.72 366.59,210.86 376.15,209.66 
					380.58,201.1 384.68,209.82 394.18,211.39 387.16,217.98 				"/>
			</g>
		</g>
		<g>
			<path class="st9" d="M177.14,342.02c-1.09,0.07,7.63-25.52,7.63-25.52l7.09-22.32c0,0,0.14-5.34,1-7.42s5.33-5.13,5.33-5.13
				l7.16-0.68l8.62,1.8v4.66l-4.66,2.41l3.85,1.33c0,0-2.68,5.5-4.39,6.27c-1.71,0.76-7.4,2.38-7.4,2.38l-3.49,20.05l-7.41,25.95
				C190.47,345.81,188.1,341.36,177.14,342.02z"/>
			<path class="st10" d="M166.13,432.6c0,0,1.15,7.2,0.7,9c-0.45,1.8-0.7,4.82-0.7,4.82s7.66,6.21,10.34,6.21s13.07-7.5,13.07-7.5
				s-9.86-6.09-10.39-5.88C178.62,439.46,166.13,432.6,166.13,432.6z"/>
			<path class="st11" d="M181.86,339.51c-1.06,0.26-7.29,1.93-7.29,1.93l-1.1,24.68c1.26,1.54,16.31,8.31,16.31,8.31
				s7.85-23.23,8.35-27.03s-2.85-4.46-2.85-4.46S187.37,338.17,181.86,339.51z"/>
			<g>
				<g>
					<path class="st12" d="M214.99,355.73c0,0-0.55,1.83-0.86,2.42c-0.31,0.59-6.66-0.99-6.71-1.4c-0.05-0.41,0.39-3.62,0.66-3.7
						C208.35,352.97,214.99,355.73,214.99,355.73z"/>
					<path class="st10" d="M163.19,522.55c0.88-3.11-4.5-16.39,6.7-30.71c0.54-0.69,0.59-5.69,0.59-5.69l0.21-6.28
						c0,0,15.06,5.71,16.07,7.71c1.02,2-0.4,5.52-0.96,9.06c-0.86,5.51-17.92,19.2-17.96,35.7c0,0,0.88,1.71-0.53,2.57
						s-3.33,2.66-6.54-2.72C159.74,530.48,161.77,527.53,163.19,522.55z"/>
					<path class="st13" d="M174.84,488.26c-1.61-0.31-3.15-1.16-4.49-2.15l0.15-4.38l4.51-0.11c4.53,1.85,10.97,4.66,11.63,5.95
						c1.02,2-1.32,5.49-0.96,9.06c0.59,5.75-8.72,16.88-13.73,32.55c0,0-2.23,6.61-2.86,8.13c-1.03,2.5-6.93,5.01-5.06-2.07
						l0.96-6.3l-3.92-0.09c-0.04-1.46,3.93-1.25,4.62-0.56c1.29,1.29,11.94-25.64,11.73-28.86c-0.27-4.11-7.96-6.78-7.25-6.76
						c2.38,0.06,10.77,2.99,11.32,2.41c0.55-0.58,0.14-5.11,0.14-5.11S179.53,489.17,174.84,488.26z"/>
					<g>
						<path class="st14" d="M196.44,504.42c0.6,1.09-4.26,25.88-4.98,28.41c-0.43,1.51-5.82,0.94-5.35-0.14
							c0.48-1.09,3.68-26.48,4.49-28.42S196.44,504.42,196.44,504.42z"/>
						<path class="st15" d="M203.39,494.79c0,0-2.74,2.42-3.4,7.22c-0.66,4.8-4.25,5.43-6.57,5.36s-3.72-1-3.68-2.6
							s0.18-10.16,1.15-11.21C191.85,492.52,203.39,494.79,203.39,494.79z"/>
						<path class="st10" d="M207.89,486.53c0,0-0.72,6.76-2.73,8.85s-14.35,3-15.21,1.73s-0.97-10.55-0.42-11.07
							C190.08,485.51,206.37,484.97,207.89,486.53z"/>
						<path class="st10" d="M207.89,486.53c0,0-0.72,6.76-2.73,8.85s-14.35,3-15.21,1.73s-0.97-10.55-0.42-11.07
							C190.08,485.51,206.37,484.97,207.89,486.53z"/>
						<path class="st13" d="M207.89,486.53c0,0-0.1,2.41-0.97,5.1c-2.49,2.17-13.91,4.32-17.56,2.44c-0.34-3.19-0.23-7.65,0.17-8.03
							C190.08,485.51,206.37,484.97,207.89,486.53z"/>
						<g>
							<path class="st16" d="M195.96,538.9c1.05,0.7,0.56,1.81,0.84,3.62c0.27,1.8,0.8,13.88,2.46,16.51
								c1.66,2.63,7.29,5.57,7.4,7.33c0.1,1.76-0.64,3.04-2.05,4.41c-1.4,1.36-13.85,0.07-18.15-1.08
								c-4.42-1.18-0.35-7.95-3.08-13.72c-3.24-6.84-7.84-8.34-9.5-14.34c-0.26-0.94,0.46-3.06,1.41-4.36s4.91-3.11,6.15-4.24
								c0.34-0.31,0.93-0.36,1.01,0.32c0.08,0.65,1.86-1.6,2.58-1.9c0.29-0.12,1.58-0.09,2.54,0.28c2.33,0.91,4.72,5.25,4.72,5.25
								s0.61-0.55,0,0c-0.61,0.55,1.54,2.26,1.54,2.26l0.94-0.41C194.77,538.82,195.34,538.48,195.96,538.9z"/>
							<path class="st17" d="M191.79,540.14c-0.28,0.2,1.16-2.08,1.16-2.08l0.14-0.19c-0.48,0.43,0.73,1.36,0.73,1.36l0.81-0.35
								c0.13-0.06,0.57,0.22,0.62,0.46c0.05,0.24-0.53,0.86-0.82,0.94C194.15,540.37,192.07,539.94,191.79,540.14z"/>
							<path class="st13" d="M194.52,535.99c0.1,0.12,0.86,1.09,0.29,1.61c-0.29,0.26-2.8,2.51-3.02,2.54
								c-0.23,0.03-1.13,0.33-0.93,1.15c0.2,0.81,0.05,1.63,0.05,1.63s-2.97,0.16-4.89-1.66c-1.92-1.82-3.54-3.92-3.86-4.75
								c-0.32-0.83-0.67-1.35-0.13-2.17c0.14-0.22,0.5-0.7,0.41-1.14c-0.02-0.12,1.89-1.5,2.62-1.8c0.29-0.12,1.58-0.09,2.54,0.28
								C189.49,532.43,193.23,535.07,194.52,535.99z"/>
							<path class="st17" d="M173.87,541.62c-0.22-0.78,0.24-2.36,0.95-3.62c1.57-0.13,4.01,2.34,5.22,3.94
								c1.49,1.97,9.75,16.12,11.14,19.64c1.39,3.52,4.77,5.93,6.33,6.17c1.56,0.24,7.15,1.16,6.55,2.01
								c-0.2,0.28-0.38,0.81-0.58,1.41c-3.49,0.6-13.3-0.5-17.02-1.5c-4.42-1.18-0.35-7.95-3.08-13.72
								C180.14,549.11,175.53,547.62,173.87,541.62z"/>
						</g>
					</g>
					<path class="st18" d="M177.11,481.36c0,0-4.28-1.09-4.4-2.32c-0.4-4.27-3.12-7.75-3.12-7.75s-2.48-5.08-2.91-6.96
						s-1.16-9.92,0.4-14.79c1.56-4.87,50.67,2.14,50.67,2.14s-0.63,30.03-2.12,32.46s-20.55,12.38-35.39,6.99
						C180.24,491.14,177.52,483.68,177.11,481.36"/>
					<path class="st10" d="M215.61,334.96c0,0,1.64,8.72,1.22,11.14c0,0-0.05,4.02-0.26,5.26c-0.21,1.24-1.06,5.65-1.33,6.19
						c-0.27,0.54-0.94,2.04-1.85,2.64c-0.91,0.6-8.13,3.49-9.11,3.37l-1.85,3.87l-16.41-5.17c0,0,2.08-2.86,0.77-3.87
						s-3.69-2.12-3.94-2.9c-0.25-0.78,0.06-2.29,0.06-2.29s-1.17,0.24-1.77-0.67c0,0-0.96-0.92-0.94-1.54
						c0.02-0.62-1.23-0.66-1.13-1.28c0.11-0.62-1.41-0.75-1.28-2.09c0.12-1.33,2.59-3.5,2.95-3.58s-1.99-2.28-1.8-2.9
						s1.01-0.95,1.01-0.95s-0.91-2.61-0.09-3.12c0.82-0.51-1.28-2.08,0.08-3.07c1.36-0.99,2.9-1.76,2.9-1.76s-1.31-1.22,0.85-1.82
						c2.16-0.6,3.74-3.05,5.24-2.39c0,0,7.52-5.51,7.22-0.79c0,0,1.8-2.81,2.95-2.51c0,0,1.13-2.38,2.89-1.44
						c0,0,10.35-3.29,18.79,3.36c0,0-6.87-1.79-9.1,1.54c0,0,8.53,1.27,10.71,3.26c2.18,1.99-1.53,0.38-1.53,0.38
						s-4.15-1.48-6.32-0.59c0,0,5.74,2,5.99,2.72c0.25,0.72-1.26,0.5-1.97,0.39c-0.71-0.11,0.05,1.52-0.94,1.67
						C216.65,336.18,215.61,334.96,215.61,334.96z"/>
					<path class="st19" d="M180.76,344.05c0.36-0.08-1.99-2.28-1.8-2.9c0.19-0.62,1.01-0.95,1.01-0.95s-0.91-2.61-0.09-3.12
						c0.82-0.51-1.28-2.08,0.08-3.07c1.36-0.99,2.9-1.76,2.9-1.76s-1.31-1.22,0.85-1.82c2.16-0.6,3.74-3.05,5.24-2.39
						c0,0,7.52-5.51,7.22-0.79c0,0,1.8-2.81,2.95-2.51c0,0,1.13-2.38,2.89-1.44c0,0,10.35-3.29,18.79,3.36c0,0-6.87-1.79-9.1,1.54
						c0,0,8.53,1.27,10.71,3.26c2.18,1.99-1.53,0.38-1.53,0.38s-4.15-1.48-6.32-0.59c0,0,5.74,2,5.99,2.72
						c0.25,0.72-1.26,0.5-1.97,0.39c-0.71-0.11,0.05,1.52-0.94,1.67c-0.99,0.15-2.01-1.02-1.99-0.92c-0.28-0.39-0.47-0.66-0.47-0.66
						s0.34,12.88-2.76,12.17c0,0,0.09-3.2-3.23-3.29c-2.46,0.79-3.92,2.19-3.61,4.51c0.82,6.18-1.94,12.3-2.33,13.09
						c-0.57,1.14-5.46,2.96-6.6,2.31c-1.14-0.66-8.91-2.11-9.98-2.04c-0.06-0.3-1.04-3.06-1.35-3.3c-1.31-1.02-2.22-1.62-2.47-2.4
						c-0.25-0.78,0.06-2.29,0.06-2.29s-1.17,0.24-1.77-0.67c0,0-0.96-0.92-0.94-1.54c0.02-0.62-1.23-0.66-1.13-1.28
						c0.11-0.62-1.41-0.75-1.28-2.09C177.93,346.3,180.4,344.13,180.76,344.05z"/>
					<path class="st18" d="M176.89,484.88"/>
					<path class="st20" d="M170.18,441.23c4.69,1.5,15.19,9,14.2,10.8c-0.2,0.36,30.91,0.83,30.91,0.83s-20.4,6.44-27.25,6.73
						c-6.84,0.29-19.22-4.32-19.22-4.32s2.93,6.14,4.53,8.33c1.61,2.18,15.51,7.2,16.33,7.22c0.82,0.02-0.02,1.19-6.09,1.5
						c-6.07,0.31-7.42-2.82-7.67-2.24c-0.25,0.57,0.07,1.37,0.07,1.37s1.42,7.98,1.59,8.52l0.26,4.13c-0.34-1.11,0.8-0.28,0.69-0.9
						c0,0-9.05-1.8-9.1-3.41c-0.09-3.17,0.15-8.48,0.15-8.48s-4.21-10.99-4.63-12.87c-0.32-1.41,0.59-10.93,1.18-16.15
						c0.09-0.76-1.43-2.05-1.29-2.73c0.19-0.9,1.86-1.62,2.08-2.31C167.18,436.45,166.65,438.66,170.18,441.23z"/>
					<path class="st19" d="M215.29,410.69l-3.45-1.89c0,0,6.3,1.05,9.14,0.71c5.85-0.71,6.72-4.09,6.72-4.09s-4.1-23.51-7.24-26.09
						c-3.14-2.58-11.11-6.96-13.35-7.97c-2.23-1.01-1.45-2.67-4.68-3.93c-3.23-1.26-16.83-5.66-18.36-6.19
						c-1.53-0.53-5.13,0.46-5.5,0.92c-0.37,0.46-3.77,3.2-4.62,3.65c-0.84,0.45-1.54,17.82-2.87,27.72
						c-6.51,37.67-6.44,36.11-6.29,39.56c0.11,2.5,0.63-1.09-0.98,1.55c-1.62,2.63,8.78,8.62,11.26,9.22
						c2.48,0.6,15.3,13.65,22.24,12.58s18.05-2.82,20.43-4.76c2.37-1.94,0.9-7.07,0.59-8.55s-2.48-7.43-2.29-7.78
						c0.19-0.35,1.98-0.48,2.21-2.44C218.48,430.97,216.88,413.41,215.29,410.69z"/>
					<path class="st13" d="M225.67,407.91c1.51-0.65,2.79,12.56-2.61,34.61c-0.13,0.52,4.48,5.73,4.64,9.23
						c0.01,0.24-0.47,5.06-1.03,5.38c-0.41,0.24-2.99,2.57-3.38,1.71c-0.42-0.94,1.39-5.08,1.36-4.94
						c-0.55,2.92-2.09,11.11-2.09,11.11c-0.82,0.51-2.02,0.26-2.24-0.38s0.24-9.05,0.24-9.05l-1.67,9.96
						c-0.88,1.08-3.39,0.54-3.61-0.11c-0.08-0.22,0.34-2.63,0.34-4.18c0-0.7,0.3-2.91,0.03-3.64c0,0-0.35,5.64-1.17,6.35
						c-0.82,0.7-2.48-0.48-2.65-0.88c-0.44-1.03,1.51-7.07,1.17-7.47c-0.18-0.22-0.05,0.02-0.18-0.22c-0.11-0.18-1,5.72-1.42,6.01
						c-0.61,0.42-1.93-0.18-1.97-0.87c-0.04-0.64,0.68-5.92,1.17-8.22c0.96-4.52,5.3-11.71,5.3-11.71l-0.55-25.54l-0.75-5.86
						C214.6,409.2,220.38,410.21,225.67,407.91z"/>
					<path class="st11" d="M197.46,451.14c11.78-0.54-11.78-5.05-33.15-14.25c1.58-2.66,2.16-8.82,2.05-11.31
						c-0.11-2.5,0.79-24.06,0.79-24.06c0.31-2.32,1.01-22.88,2.11-25.85c0,0,4.26-9.62,4.7-9.85c0.84-0.45,4.25-3.2,4.62-3.65
						c0.2-0.24,1.32-0.64,2.55-0.88l22.25,6.59c2.14,1.18,1.75,2.59,3.73,3.49c0,0-19.32-6.84-23.93-8.02
						c-4.61-1.18,17.22,7.01,18.49,7.87c1.26,0.87,9.94,5.46,10.16,6.14c0.22,0.68-6.71,1.92-6.87,7.87
						c-0.16,5.94,4.04,13.49,5.21,16.23c1.18,2.74-9.12-7.11-9.12-7.11s4.26,13.16,6.59,15.06c1.97,1.6-11.75-3.09-17.68-6.72
						c5.59,5.18,18.62,17.75,20.72,17.55c2.86-0.27-4.34,10.72-9.4,13.2c-4.67,2.29-14.97,3.82-18.78,3.79
						c4.29,0.31,20.21,1.53,22.41,0.61c2.71-1.14-6.19,11.11-15.68,10.32c-6.13-0.51-12.46-9.45-17.66-10.73
						C178.51,439.93,189.02,451.53,197.46,451.14z"/>
					<g>
						<path class="st17" d="M164.37,531.37c-0.84-1.39-4.62-1.46-5.57-1.27c-3.46,0.69-4.95,4.76-5.98,6.01
							c-1.88,2.29-1.99,7.35,1.64,10.48c7.07,6.09,5.29,10.67,8.32,14.27c1.67,1.98,14.96,3.26,15.6-3.55
							c-0.17,0.03,1.38-3.62-4.42-3.72c-0.48-0.01-1.64-2.43-3.19-4.98c-2.26-3.72-1.42-7.33-0.84-9.52c0,0,0.96-1.23-0.32-1.95
							c-1.67-0.93-3.06,0.45-4.13-1.3C164.22,533.76,164.74,532,164.37,531.37z"/>
						<path class="st21" d="M154.51,549.17c-2.19-4.8-4.19-9.79-2.36-12.38c0.64-0.51,1.49-0.91,2.56-0.89
							c2.82,0.05,5.98,4.05,6.49,5c0.51,0.95,2.17,5.95,2.73,6.52s4.14,9.23,5.47,9.08c0,0,3.11,1.73,5.68,0.54
							c0.65-0.3,2.17-0.75,2.05-2.58c1.75,1.1,1.25,2.84,1.25,2.84c-0.65,6.81-18.67,4.84-20.34,2.85
							C155.01,556.56,157.92,556.64,154.51,549.17z"/>
					</g>
					<path class="st10" d="M224.54,449.41c-0.11-0.64-2.68-6.86-3.21-7.82c-0.54-0.96,1.82-24.96,1.5-24.96
						c-0.32,0-4.5-1.71-5.08-1.61c-0.58,0.11,5.08-0.96,5.08-0.96v-4.45c-2.13,1.27-6.16,1.08-8.06,0.91l0.58,4.55l0.55,25.54
						c0,0-4.34,7.18-5.3,11.71c-0.49,2.3-1.21,7.58-1.17,8.22c0.04,0.68,1.36,1.28,1.97,0.87c0.42-0.29,1.32-6.19,1.42-6.01
						c0.14,0.24,0,0,0.18,0.22c0.34,0.41-1.61,6.44-1.17,7.47c0.17,0.4,1.83,1.59,2.65,0.88c0.82-0.7,1.17-6.35,1.17-6.35
						c0.27,0.74-0.03,2.95-0.03,3.64c0,1.55-0.42,3.96-0.34,4.18c0.22,0.65,2.73,1.19,3.61,0.11l1.67-9.96c0,0-0.46,8.41-0.24,9.05
						c0.22,0.65,1.42,0.89,2.24,0.38c0,0,0.52-2.79,1.07-5.7C224.11,454.75,224.6,449.75,224.54,449.41z"/>
				</g>
				<g>
					<path class="st22" d="M213.55,374.89c0,0-5.16-4.22-8.81-0.9c-3.66,3.31-5.74,14.37-5.83,17.91
						c-0.09,3.54-0.57,21.37-0.57,21.37s1.41,13.95-0.48,18.01s-7,8.38-12.7,7.96c-5.7-0.42-23.66-9.17-25.73-11.69
						c-2.07-2.52,0.03-14.46,0.46-17.01s9.97-21.76,8.08-26.17c-0.67-1.56,3.17-22.07,5.26-23.25c0.58-0.33,5.91-2.08,6.26,0.61
						c0,0-1.97,0.65-1.84,1.68c0.39,3.07,1.15,7.13,2.21,7.51c1.41,0.51,8.25-1.52,11.72,2.18c3.47,3.7,9.06-5.15,12.25-4.31
						c3.19,0.84,9.46,2.16,9.79,3.07S213.55,374.89,213.55,374.89z"/>
					<path class="st3" d="M187.82,386.77c-0.18,1.07-4.1,25.95-4.66,33.6c-0.56,7.65,2.11,14.33-0.39,14.53s-23.37-6.81-23.37-6.81
						s-6.23-7.27-5.36-12.96s10.12-31.55,13.36-32.68s11.22-5.91,14.33-2.26C184.84,383.83,188.28,383.95,187.82,386.77z"/>
					<path class="st23" d="M193.54,405.68c0.59-1.9,4.61-25.61,4.61-25.61s2.27-10.05,7.22-9.8c2.74,0.14,5.93,0.91,8.23,1.57
						c0.33,0.91-0.05,3.05-0.05,3.05s-5.16-4.22-8.81-0.9c-3.66,3.31-5.74,14.37-5.83,17.91c-0.09,3.54-0.57,21.37-0.57,21.37
						s1.41,13.95-0.48,18.01c-0.47,1-1.13,2.02-1.95,2.98l-0.97-6.98C194.92,427.27,192.95,407.59,193.54,405.68z"/>
					<path class="st23" d="M177.33,371.34l-1.45-8.16c0,0,0.51-1.29,0.89-1.99c0.16-0.29,0.99-0.53,1.93-0.7
						c0.36,0.18,0.66,0.85,0.91,1.19c0,0-2.11,0.68-1.98,1.71c0.39,3.07,1.15,7.13,2.21,7.51c0,0,0.01,0,0.01,0L177.33,371.34z"/>
				</g>
			</g>
			<path class="st9" d="M211.2,345.35c0,0-0.91-1.45-1.63-1.37c-0.72,0.08-2.65,1.17-2.89,1.83c-0.24,0.66-0.32,2.43,0,3.63
				c0.32,1.21,0.43,3.7,0.74,4.26c0.31,0.56,1.04,0.93,2.16,0.38c1.12-0.54,0.96-1.04,0.96-1.04s-0.21,0.39-0.78,0
				c-0.57-0.39-1.3-0.11-1.6-1.03c-0.3-0.92-0.51-4.75-0.11-5.31c0.32-1.37,1.39-1.02,2.01-1.37
				C210.21,345.11,210.74,344.71,211.2,345.35z"/>
			<path class="st10" d="M204.4,281.95c0,0-1.61,1.93-1.5,3.11c0.11,1.18-4.31,9.75-4.31,9.75s-5.12,26.25-5.44,27.1
				s-4.29,9.75-4.29,9.75l-7.87-3.76l10.86-33.71l1-7.42c0,0,3.29-4.94,5.33-5.13C200.24,281.45,204.4,281.95,204.4,281.95z"/>
			<g>
				<path class="st24" d="M208.79,287.09c0.75-0.12,13.58-3.12,13.58-3.12h4.64l1.28-0.25c0.26,0.11,0.41,0.5,0.19,0.81
					c-0.07,0.1-0.94,0.35-1.04,0.46c-0.92,1.11-2.69,2.67-2.95,2.84c-0.37,0.25-25.91,6.97-25.91,6.97l-1.96-5.03L208.79,287.09z"/>
				
					<ellipse transform="matrix(0.8326 -0.5538 0.5538 0.8326 -128.8133 158.3369)" class="st25" cx="197.55" cy="292.28" rx="1.76" ry="2.81"/>
			</g>
			<path class="st10" d="M212,293.34c0.12-0.22,4.22-2.95,3.79-4c-0.43-1.05-3-1.46-4.13-0.72c-1.13,0.74-7.88,6.2-7.88,6.2
				L212,293.34z"/>
			<path class="st10" d="M213.97,282.76l4.5,2.3c0,0,0,2.04-0.86,2.25c-0.86,0.21-12.75-1.29-12.75-1.29l0.48-5.07L213.97,282.76z"
				/>
		</g>
		<g>
			<path class="st26" d="M411.21,166.71c-2.53-5.36,1.84-1.04-0.29-15.09c-0.37-2.44-0.87-4.52-1.45-6.41
				c-0.64-2.11,5.34-3.98,4.61-5.89h-50.94c-1.9,5.75-1.09,6.19-4.79,9.04c-1.59-0.47-2.61-0.75-2.61-0.75s-2.37,2.26-4.87,5.48
				c-0.57,0.33-1.17,0.68-1.82,1.05c-3.94,2.27-1.92,3.41-2.17,4.41c-0.14,0.58-0.17,0.76,0.02,0.69c-0.98,1.96-1.67,3.98-1.78,5.9
				c-0.11,1.75,6.58,13.94,13.94,24.53c1.53,7.57,3.33,14.98,2.89,15.65c-0.85,1.29-2.53,1.77-3.01,5.63
				c-0.28,2.21,4.34,5.46,3.97,9.96s-0.44,5.87-0.59,8.68c-0.16,2.89,3.45,8.04,8.24,8.04s4.62-8.68,2.68-11.57
				c-1.94-2.89-2.93-3.21-3.86-7.88c-0.39-1.96,0.28-7.29,0.26-10.51c0-0.63,0.28-1.87,0.73-3.53c0.88,3.41,3.61,14.03,4.52,17.25
				c1.08,3.86,0.68,11.89,1.04,13.5c0.36,1.61,9.82-0.64,11.36-5.14s-5.4-15.11-5.15-18s1.22-10.09-2.48-11.47
				c-3.7-1.38-5.31-1.38-6.43-3.96c-0.09-0.21-0.19-0.55-0.31-0.99c0.42-1.47,0.85-3.01,1.26-4.58c9.62,5.07,33.18,2.06,39.5-2.15
				c7.07-4.71,3.5-9,3.5-9C419.02,177.37,413.74,172.06,411.21,166.71z"/>
			<g>
				<g>
					<path class="st10" d="M412.17,170.03c1.83-2.24-3.45-7.55-5.99-12.9c-2.53-5.36,1.84-1.04-0.29-15.09
						c-1.13-7.47-3.44-13.52-5.35-17.57c0.99-0.66,1.76-1.5,2.27-1.96c1.14-1.04,4.22-6.74,6.12-8.98
						c1.9-2.25,3.86-16.64,2.76-23.04c-1.09-6.4-4.84-11.34-8.88-15.83c-1.67-1.86-4.23-2.97-6.66-3.64l0.57-0.1
						c-1.73-1.27-0.69-3.46,2.3-9.39c2.99-5.93-5.41-14.45-7.6-17.47c-2.19-3.02-1.15-3.58-1.15-3.58s1.61-1.12-3.69-9.05
						c-5.3-7.94-16.72-5.2-16.72-5.2c-1.48,0-8.76,4.64-7.24,8.96c0.07,0.2,0.18,0.39,0.3,0.58l-0.02-0.01
						c-0.28-0.57-9.03,6.71-8.11,15.53c0.92,8.81,3.8,9.73,1.61,14.46c-2.01,4.35-3.14,9.85-1.61,12.05
						c-1.27,3.12-2.21,5.68-2.3,5.97c-0.08,0.26-0.03,0.68,0.27,1.16c-0.6,1.26-1.28,3.21-1.96,5.37
						c-4.51-0.22-24.47-1.01-24.47-1.01s-2.38,0.8-1.44,2.45c0,0,0.01,0.01,0.01,0.01c0.06,0.16,0.15,0.34,0.26,0.54
						c0.24,0.43,4.05,7.71,7.77,14.82c0,0,0,0,0,0c-0.56-0.91-1.17-2.24-1.17-2.24s-1.22,2.55-1.95,3.68s-0.8,3.75-0.8,3.75
						c1.53,1.45,5.68,4.01,7.65,3.71c0.28-0.04,0.57-0.09,0.86-0.13c1.57,3,2.64,5.06,2.64,5.06s0.5,1.28,2.57,1.47
						c1.19,0.11,12.86,1.42,17.14,1.91c-9.87,7.13-16.8,20.69-17.26,20.96c-0.57,0.33,2.23-2.13,1.59-1.76
						c-3.94,2.27-2.09,4.51-2.33,5.51c-0.14,0.58-0.17,0.76,0.02,0.69c-0.98,1.96-1.67,3.98-1.78,5.9
						c-0.11,1.75,6.58,13.94,13.94,24.53c1.53,7.57,3.33,14.98,2.89,15.65c-0.85,1.29-2.53,1.77-3.01,5.63
						c-0.28,2.21,4.34,5.46,3.97,9.96s-0.44,5.87-0.59,8.68c-0.16,2.89,3.45,8.04,8.24,8.04s4.62-8.68,2.68-11.57
						c-1.94-2.89-2.93-3.21-3.86-7.88c-0.39-1.96,0.28-7.29,0.26-10.51c0-0.63,0.28-1.87,0.73-3.53c0.88,3.41,3.61,14.03,4.52,17.25
						c1.08,3.86,0.68,11.89,1.04,13.5s9.82-0.64,11.36-5.14c1.54-4.5-5.4-15.11-5.15-18c0.26-2.89,1.22-10.09-2.48-11.47
						c-3.7-1.38-5.31-1.38-6.43-3.96c-0.09-0.21-0.19-0.55-0.31-0.99c0.42-1.47,0.85-3.01,1.26-4.58c9.62,5.07,33.18,2.06,39.5-2.15
						C415.73,174.31,412.17,170.03,412.17,170.03z M375.11,40.38c0.86,0.22,1.62,0.46,2.2,0.74
						C376.5,40.83,375.78,40.6,375.11,40.38z M363.42,117.37c-1.69-4.91-4.87-14.25-6.94-20.32l0.39-1.39
						c-0.28,0.34,1.61-4.37,2.81-8c0.11-0.01,0.19-0.03,0.23-0.06c-0.07,0.2-0.16,0.72-0.05,1.06c0.14,0.43,0.26,1.22,0.37,2.19
						c-0.25-0.03-0.47-0.02-0.61,0.05c-0.58,0.27-0.92,1.22-0.58,1.67c0.14,0.19,0.75,0.48,1.41,0.75c0.25,3.3,0.42,7.29,0.56,8.91
						c0.23,2.65,5.89,9.94,5.43,10.4c-0.44,0.44-1.67,1.45-0.27,2.47C364.93,115.73,364,116.67,363.42,117.37z"/>
					<path class="st6" d="M365.53,228.54c-2.21,0-4.4-1.03-6.17-2.9c-1.66-1.75-2.67-3.98-2.58-5.67l0.03-0.61
						c0.13-2.44,0.21-3.91,0.56-8.08c0.2-2.44-1.17-4.49-2.38-6.3c-0.92-1.38-1.72-2.57-1.58-3.68c0.37-3.01,1.47-4.11,2.34-4.99
						c0.29-0.3,0.55-0.55,0.74-0.85c0.15-0.58-0.78-4.94-1.68-9.16c-0.41-1.9-0.84-3.95-1.26-6.01
						c-6.93-9.98-14.1-22.68-13.97-24.76c0.11-1.73,0.67-3.67,1.68-5.77c-0.06-0.23,0.01-0.53,0.1-0.91
						c0.03-0.13-0.03-0.43-0.08-0.71c-0.22-1.08-0.57-2.82,1.76-4.54c0.01-0.02,0.02-0.04,0.04-0.06
						c2.19-3.62,7.87-12.99,15.46-18.92c-5.23-0.59-14.81-1.66-15.88-1.76c-2.35-0.22-2.96-1.72-2.99-1.78l-2.45-4.69l-0.5,0.08
						c-2.29,0.36-6.69-2.53-8.06-3.84l-0.16-0.15l0.01-0.22c0.01-0.28,0.11-2.8,0.88-4c0.57-0.89,1.5-2.76,1.81-3.4
						c-4.12-7.87-6.3-12.02-6.47-12.34c-0.13-0.22-0.22-0.42-0.29-0.6h0c-0.35-0.68-0.28-1.21-0.15-1.54
						c0.4-1.05,1.74-1.53,1.89-1.58l0.09-0.03l0.09,0c0.19,0.01,18.98,0.76,24.09,0.99c0.66-2.1,1.25-3.72,1.76-4.83
						c-0.24-0.47-0.3-0.94-0.19-1.33c0.1-0.32,1.01-2.78,2.22-5.78c-1.45-2.53-0.27-8.03,1.71-12.31c1.2-2.59,0.78-3.94,0.02-6.38
						c-0.54-1.74-1.29-4.12-1.67-7.82c-0.82-7.88,5.72-14.58,7.9-15.88c-0.01-0.03-0.03-0.07-0.04-0.1
						c-0.52-1.47-0.17-3.13,1.01-4.81c1.82-2.57,5.31-4.75,6.63-4.82c0.87-0.19,11.96-2.43,17.2,5.42c5.17,7.74,4.03,9.41,3.55,9.74
						l0,0c0,0-0.35,0.65,1.27,2.88c0.34,0.47,0.83,1.07,1.41,1.77c3.11,3.82,8.91,10.92,6.24,16.21c-2.89,5.73-3.82,7.76-2.45,8.76
						l0.58,0.43c2.44,0.83,4.31,1.97,5.59,3.39c4.01,4.45,7.88,9.48,9.01,16.08c1.07,6.24-0.74,20.92-2.88,23.45
						c-0.93,1.1-2.19,3.12-3.31,4.9c-1.2,1.91-2.24,3.57-2.85,4.13c-0.12,0.11-0.25,0.24-0.4,0.38c-0.41,0.39-0.94,0.91-1.58,1.38
						c1.79,3.87,4.09,9.91,5.21,17.33c1.23,8.07,0.32,10.25-0.23,11.55c-0.38,0.9-0.53,1.27,0.48,3.4c0.88,1.86,2.08,3.69,3.24,5.46
						c2.07,3.15,3.87,5.89,2.9,7.65c0.36,0.56,0.98,1.83,0.74,3.52c-0.31,2.1-1.84,4.09-4.57,5.91c-6.65,4.43-29.48,7.16-39.45,2.46
						c-0.35,1.32-0.71,2.61-1.07,3.86c0.1,0.37,0.18,0.63,0.25,0.78c0.81,1.86,1.86,2.21,4.16,2.99c0.59,0.2,1.25,0.42,1.99,0.7
						c3.81,1.43,3.19,7.88,2.86,11.35l-0.06,0.63c-0.09,1.02,0.96,3.43,2.08,5.99c1.89,4.33,4.03,9.23,3.04,12.13
						c-1.37,4.01-8.15,6.11-10.75,5.99c-1.14-0.06-1.49-0.52-1.57-0.9c-0.14-0.63-0.17-2.08-0.21-3.9
						c-0.06-3.03-0.15-7.18-0.82-9.57c-0.79-2.82-2.97-11.26-4.03-15.37c-0.14,0.61-0.24,1.17-0.23,1.51
						c0.01,1.29-0.09,2.93-0.19,4.51c-0.15,2.35-0.3,4.78-0.08,5.9c0.7,3.49,1.41,4.44,2.58,6.02c0.36,0.48,0.75,1.01,1.2,1.68
						c1.46,2.19,1.97,7.19,0.41,10.12C368.26,227.77,367.05,228.54,365.53,228.54z M342.89,148.75l-0.56,1.13
						c-1.05,2.11-1.63,4.03-1.73,5.71c-0.09,1.48,6.35,13.42,13.85,24.21l0.08,0.19c0.42,2.09,0.87,4.17,1.28,6.1
						c1.58,7.4,1.92,9.34,1.54,9.92c-0.25,0.38-0.55,0.68-0.87,1c-0.81,0.81-1.73,1.74-2.06,4.41c-0.09,0.74,0.61,1.79,1.42,3
						c1.24,1.85,2.78,4.15,2.55,6.94c-0.34,4.15-0.42,5.62-0.56,8.05l-0.03,0.62c-0.08,1.4,0.85,3.38,2.3,4.92
						c0.91,0.96,2.83,2.58,5.44,2.58c1.14,0,2.02-0.57,2.63-1.7c1.34-2.52,0.92-7.18-0.36-9.09c-0.44-0.65-0.82-1.17-1.17-1.64
						c-1.22-1.63-2.02-2.71-2.76-6.42c-0.25-1.25-0.1-3.63,0.06-6.16c0.1-1.57,0.2-3.19,0.19-4.45c0-0.63,0.22-1.73,0.75-3.67
						l0.5-1.82l0.47,1.83c0.59,2.29,3.56,13.86,4.51,17.24c0.71,2.51,0.79,6.74,0.86,9.82c0.04,1.7,0.07,3.17,0.19,3.7
						c0.1,0.1,0.91,0.27,2.56-0.07c3.25-0.67,6.99-2.64,7.84-5.12c0.86-2.53-1.29-7.45-3.01-11.41c-1.27-2.91-2.27-5.2-2.16-6.48
						l0.06-0.64c0.28-2.97,0.88-9.17-2.21-10.32c-0.73-0.27-1.38-0.49-1.96-0.69c-2.35-0.79-3.77-1.27-4.76-3.54
						c-0.1-0.22-0.2-0.56-0.33-1.06l-0.04-0.13l0.04-0.13c0.42-1.47,0.85-3,1.26-4.57l0.16-0.61l0.56,0.29
						c9.2,4.85,32.55,2.17,38.99-2.13c2.47-1.65,3.86-3.4,4.13-5.2c0.27-1.81-0.7-3.02-0.74-3.07l-0.26-0.32l0.26-0.32
						c0.95-1.16-0.84-3.9-2.74-6.79c-1.13-1.71-2.4-3.66-3.31-5.58c-1.15-2.43-0.97-3.08-0.5-4.22c0.5-1.2,1.35-3.22,0.16-11.01
						c-1.15-7.55-3.52-13.64-5.31-17.43l-0.18-0.39l0.36-0.24c0.72-0.48,1.31-1.06,1.79-1.52c0.15-0.15,0.29-0.28,0.42-0.4
						c0.52-0.47,1.62-2.23,2.68-3.92c1.19-1.9,2.42-3.86,3.39-5.01c1.77-2.1,3.71-16.43,2.65-22.63
						c-1.09-6.35-4.85-11.24-8.76-15.58c-1.37-1.52-3.53-2.69-6.42-3.5l-2.12-0.59l1.83-0.32c-1.01-1.64,0.34-4.3,2.85-9.28
						c2.38-4.71-3.15-11.49-6.12-15.13c-0.59-0.72-1.09-1.34-1.44-1.82c-1.15-1.58-1.64-2.8-1.46-3.62
						c0.08-0.35,0.25-0.54,0.37-0.63c0.08-0.17,0.65-1.79-3.77-8.4c-5.05-7.56-16.08-5.01-16.19-4.99l-0.12,0.01
						c-0.69,0-4.03,1.77-5.88,4.39c-1,1.42-1.3,2.73-0.88,3.9c0.06,0.16,0.15,0.32,0.25,0.48l0.78,1.29l-1.33-0.54
						c-1.27,0.62-8.33,7.13-7.52,14.97c0.38,3.6,1.07,5.83,1.63,7.62c0.78,2.5,1.3,4.15-0.06,7.1c-2.21,4.77-2.92,9.74-1.65,11.56
						l0.16,0.22l-0.1,0.25c-1.29,3.18-2.21,5.69-2.29,5.93c-0.03,0.09-0.02,0.37,0.22,0.75l0.14,0.23l-0.12,0.25
						c-0.54,1.13-1.19,2.92-1.93,5.3l-0.11,0.37l-0.39-0.02c-4.29-0.21-22.83-0.95-24.36-1.01c-0.33,0.13-1.01,0.48-1.2,0.96
						c-0.08,0.22-0.05,0.47,0.11,0.74c0.09,0.22,0.17,0.37,0.26,0.55c0.18,0.31,2.24,4.25,6.15,11.71l0.03-0.06l0.44,0.95
						c0.37,0.71,0.76,1.46,1.17,2.23l1.52,2.9l-2.41-2.45c-0.25-0.41-0.51-0.9-0.73-1.32c-0.43,0.86-1.07,2.1-1.53,2.81
						c-0.48,0.75-0.67,2.44-0.71,3.27c1.6,1.43,5.36,3.67,7.06,3.42l1.21-0.19l2.81,5.38c0.04,0.08,0.47,1.04,2.17,1.2
						c1.18,0.11,12.39,1.37,17.15,1.91l1.28,0.15l-1.05,0.76c-7.28,5.27-12.94,14.05-15.58,18.35c0.06,0.04,0.09,0.08,0.11,0.1
						c0.3,0.4,0.13,0.56-0.97,1.62c-0.15,0.14-0.32,0.31-0.46,0.45c-0.21,0.32-0.29,0.4-0.4,0.47l-0.38,0.22l-0.08-0.08
						c-0.39,0.79-0.24,1.51-0.12,2.15c0.07,0.37,0.14,0.69,0.1,1L342.89,148.75z M362.45,35.95c0.01,0.02,0.02,0.04,0.03,0.06
						L362.45,35.95z M363.24,118.38l-0.29-0.85c-1.69-4.91-4.87-14.25-6.94-20.32l-0.05-0.15l0.39-1.38
						c0.04-0.35,0.3-1.08,0.93-2.76c0.6-1.62,1.34-3.63,1.93-5.42l0.1-0.3l0.32-0.04l1.16-0.7l-0.39,1.29
						c-0.06,0.18-0.11,0.57-0.05,0.75c0.14,0.43,0.26,1.16,0.39,2.29l0.07,0.62l-0.62-0.07c-0.26-0.03-0.34,0-0.35,0
						c-0.17,0.08-0.34,0.33-0.4,0.58c-0.04,0.18-0.02,0.29,0.01,0.33c0.01,0.01,0.19,0.17,1.21,0.59l0.28,0.12l0.02,0.31
						c0.13,1.76,0.24,3.72,0.34,5.41c0.08,1.47,0.15,2.74,0.22,3.5c0.12,1.42,2.11,4.55,3.56,6.84c1.82,2.87,2.19,3.49,1.73,3.95
						l-0.11,0.11c-0.26,0.25-0.69,0.66-0.66,1.02c0.01,0.19,0.16,0.38,0.44,0.59l0.66,0.48l-0.72,0.37c-1.19,0.61-2.07,1.5-2.6,2.15
						L363.24,118.38z M357.01,97.03c1.96,5.76,4.88,14.34,6.61,19.37c0.46-0.47,1.04-0.98,1.74-1.41c-0.19-0.26-0.3-0.53-0.32-0.82
						c-0.05-0.77,0.53-1.39,0.9-1.74c-0.19-0.49-0.99-1.74-1.7-2.87c-1.59-2.51-3.57-5.63-3.71-7.29c-0.07-0.76-0.14-2.04-0.22-3.53
						c-0.09-1.59-0.19-3.41-0.31-5.09c-0.95-0.41-1.2-0.62-1.33-0.79c-0.07-0.1-0.13-0.2-0.17-0.32c-0.09,0.25-0.18,0.49-0.27,0.72
						c-0.22,0.6-0.45,1.22-0.62,1.69L357.01,97.03z M359.56,89.58c-0.12,0.33-0.23,0.66-0.35,0.99c0.07-0.05,0.13-0.09,0.21-0.12
						c0.08-0.04,0.17-0.06,0.26-0.08C359.64,90.07,359.6,89.8,359.56,89.58z M377.14,41.59c-0.8-0.28-1.51-0.52-2.18-0.73l0.28-0.96
						c1,0.26,1.73,0.5,2.29,0.77L377.14,41.59z"/>
				</g>
				<g>
					<path class="st10" d="M352.52,106.39c-1.5-0.23-5.14-1.84-5.1-2.99c0.04-1.15,3.93-16.87,5.96-19.58c2.03-2.71,6.4-0.86,7.32,0
						c0.41,0.39-4.66,13.77-4.22,13.24"/>
					<path class="st10" d="M392.34,85.87c-0.41,0.39,4.13,12.51,3.69,11.98c-0.66-0.8-9.1-0.6-9.96-0.64c0,0-0.4-1.2-1.67-2.12
						c-1.27-0.92-6.25-5.64-6.58-5.99s-1.94,0.22-1.83,1.38c0.12,1.16,1.14,2.51,1.14,2.51s-0.88,0.22-3.53-0.28
						c-0.28-0.05-1.96-0.51-2.24-0.57c-3.55-0.8-7.13-1.6-7.98-1.73c-1.61-0.24-1.67,0.63-1.32,0.93c0,0-1.84-0.71-2.42-0.44
						c-0.58,0.27-0.92,1.22-0.58,1.67c0.35,0.45,3.34,1.48,3.34,1.48s-1.09,0.64,0.35,1.74c0.58,0.44,1.15,1.42,1.15,1.42
						s7.14,2.72,9.1,3.06s10.71,1.38,12.09,1.5s13.94,6.91,15.43,6.68c1.5-0.23,5.14-1.84,5.1-2.99
						c-0.04-1.15-3.93-16.87-5.96-19.58C397.62,83.16,393.26,85.01,392.34,85.87z"/>
					<g>
						<path class="st27" d="M412.17,170.03c0,0,3.57,4.29-3.5,9c-7.07,4.71-35.73,7.93-42.29,0c-6.57-7.93-4.37-35.79-4.37-35.79
							l21.07,2.36l15.73,14.14L412.17,170.03z"/>
						<path class="st28" d="M356.92,159.74c7.51,3.54,10.17,24.43,11.29,27s2.74,2.57,6.43,3.96c3.7,1.38,2.73,8.58,2.48,11.47
							c-0.26,2.89,6.69,13.5,5.15,18s-11,6.75-11.36,5.14c-0.36-1.61,0.04-9.64-1.04-13.5c-1.08-3.86-4.79-18.32-4.79-18.32
							c-9.73-8.68-25.15-35.28-24.98-37.93c0.23-3.73,2.63-7.87,5.09-11.18c0,0,8.41-6.23,11.73-4.3s3.64,13.18,3.64,13.18
							L356.92,159.74z"/>
						<path class="st29" d="M377.12,202.17c0.26-2.89,1.22-10.09-2.48-11.47c-1.81-0.68-3.12-1.02-4.12-1.5
							c0,0.02-0.01,0.04-0.01,0.07c-0.64,5.04,5.79,7.82,5.79,7.82s-0.43,5.46-0.32,6.11c0.11,0.64,3.86,10.61,3.43,11.36
							c-0.43,0.75-3.96,3.64-6.54,4.93c-1.06,0.53-1.75,0.44-2.21,0.15c0.07,2.6,0.07,4.9,0.24,5.69c0.36,1.61,9.82-0.64,11.36-5.14
							C383.81,215.67,376.86,205.06,377.12,202.17z"/>
						<path class="st30" d="M371.92,147.69c0.33,4.02-10.3,12.86-11.74,13.18s-3.7-1.77-3.7-1.77l-2.79-4.8l7.96-13.41l-14.72,3.49"
							/>
						<path class="st31" d="M389.53,69.98c0,0,9.23,0.17,13.27,4.67s7.79,9.44,8.88,15.83c1.09,6.4-0.86,20.8-2.76,23.04
							c-1.9,2.25-4.98,7.95-6.12,8.98c-1.14,1.04-3.54,3.9-6.84,2.59c-3.3-1.31-11.37-9.68-11.47-10.37
							c-0.1-0.69,0.28-25.57,0-27.64C384.22,85.01,381.23,68.42,389.53,69.98z"/>
						<path class="st32" d="M382.79,68.66c0,0,9.23,0.16,13.27,4.41c4.05,4.25,7.79,8.93,8.88,14.98c1.09,6.05-0.86,19.67-2.76,21.8
							c-1.9,2.13-4.98,7.52-6.12,8.5s-3.54,3.69-6.84,2.45s-11.37-9.15-11.47-9.81c-0.1-0.65,0.28-24.19,0-26.15
							C377.47,82.88,374.49,67.19,382.79,68.66z"/>
						<ellipse class="st33" cx="395.97" cy="87.08" rx="4.84" ry="3.02"/>
						<path class="st34" d="M362.9,35.73c-0.28-0.57-9.03,6.71-8.11,15.53c0.92,8.81,3.8,9.73,1.61,14.46s-3.34,10.83-1.15,12.56
							l41.47-7.37c-1.73-1.27-0.69-3.46,2.3-9.39c2.99-5.93-5.41-14.45-7.6-17.47c-2.19-3.02-1.15-3.58-1.15-3.58
							s1.61-1.12-3.69-9.05c-5.3-7.94-16.72-5.2-16.72-5.2c-1.48,0-8.76,4.64-7.24,8.96c1.53,4.31,12.35,4.29,15.22,6.25
							s4.25,7.26,3.44,9.33s2.26-4.67,4.1-5.8"/>
						<path class="st33" d="M383.33,64.82c0.12,0.03,2.1,1.38,2.1,1.38l0.63,1.3c0,0-10.84,4.95-10.97,5.15s-2.74-0.6-2.74-0.6
							s-2.71-6.36-2.79-6.42c-0.09-0.06,3.08-1.3,3.17-1.32c0.09-0.03,1.96-0.35,1.96-0.35L383.33,64.82z"/>
						<path class="st10" d="M363.59,43.83c0,0-0.03,1.75,0.32,4.68s4.72,11.73,6.1,12.34c1.38,0.61,4.49,0.89,5.76,0
							c1.27-0.89,7.6-5.5,7.95-8.26c0.04-0.34,3.6,1.3,4.65-0.41c2.16-3.52,0.77-7.37,0.17-8.21c-0.6-0.83-3.28,0.35-4.07,2.29
							l-3.18,4.48c0,0,1.79-7.59-3.95-9.61c-3.77-1.33-5.71-1.8-9.76-2.54c-1.05-0.19-1.87-0.51-2.5-0.85
							C363.81,37.06,363.59,43.83,363.59,43.83z"/>
						<g>
							<ellipse class="st35" cx="375.07" cy="49.27" rx="3.21" ry="3.46"/>
							<path class="st35" d="M365.15,52.41c0.3-0.26,0.76,0.24,1.17,0.24c1.77,0,3.21-1.55,3.21-3.46c0-1.91-1.44-3.46-3.21-3.46
								c-1.04,0-2.15,0.44-2.56,1.37C363.59,47.49,364.92,52.6,365.15,52.41z"/>
						</g>
						
							<rect x="365.43" y="48.27" transform="matrix(-1 -4.492951e-11 4.492951e-11 -1 731.7482 98.5483)" class="st34" width="0.89" height="2.02"/>
						
							<rect x="373.45" y="48.27" transform="matrix(-1 -4.492951e-11 4.492951e-11 -1 747.7867 98.5483)" class="st34" width="0.89" height="2.02"/>
						<path class="st36" d="M371.17,47.43c-0.17,0.45-0.26,0.94-0.26,1.46c0,2.18,1.67,3.94,3.74,3.94c2.06,0,3.74-1.77,3.74-3.94
							c0-2.18-1.67-3.94-3.74-3.94C373.07,44.95,371.72,45.97,371.17,47.43z M371.02,49.01c0-1.99,1.53-3.59,3.41-3.59
							c1.88,0,3.41,1.61,3.41,3.59c0,1.99-1.53,3.59-3.41,3.59C372.55,52.6,371.02,50.99,371.02,49.01z"/>
						<path class="st36" d="M361.74,48.67c0,2.06,1.58,3.73,3.53,3.73c1.95,0,3.53-1.67,3.53-3.73c0-2.06-1.58-3.73-3.53-3.73
							C363.33,44.95,361.74,46.61,361.74,48.67z M361.86,48.78c0-1.88,1.44-3.4,3.22-3.4c1.78,0,3.22,1.52,3.22,3.4
							c0,1.88-1.44,3.4-3.22,3.4C363.3,52.18,361.86,50.66,361.86,48.78z"/>
						<path class="st36" d="M368.21,46.76c0,0,1.4-1.11,3.29,0l-0.25,0.47c0,0-0.85-1.02-3.04-0.27V46.76z"/>
						<g>
							<path class="st30" d="M367.97,51.33c0.01,0.13,0.01,0.27,0.01,0.42c0,0.81,0.97,1.46,2.17,1.46c0.7,0,1.32-0.23,1.71-0.58
								c-0.09,0.75-0.94,1.34-1.99,1.34c-1.11,0-2.01-0.65-2.01-1.46C367.86,52.03,367.79,51.6,367.97,51.33z"/>
							<circle class="st37" cx="369.28" cy="51.82" r="0.58"/>
						</g>
						<path class="st30" d="M367.57,55.87l-0.56-0.75c2.52,0.24,4.97,0.42,6.58,0.32c0.59-0.03,1.43-0.05,1.53-0.18
							c1.48-1.99-0.92,2.56-0.92,2.56S369.48,57.66,367.57,55.87z"/>
						<path class="st29" d="M359.87,88.66c0.62,1.93,0.92,10.92,1.15,13.57c0.23,2.65,5.89,9.94,5.43,10.4
							c-0.46,0.46-1.82,1.57,0,2.65c18.96,11.28,28.5,0.86,28.5,0.86c-8.41-16.01-4.9-29.45-4.9-29.45s0.91,2.99,3.22,2.99
							c0.11,0-0.2-0.64-0.2-0.64c-0.88,0-1.79-1.58-1.75-2.24c0.05-0.93,3.1-2.82,6.34-2.07c2.69,0.62,3.09,3.37,3.46,4.26
							c0.16,0.38,0.67-1.33,0.67-1.33s-4.48-11.45-5.98-15.94c-1.5-4.49-4.38-5.41-5.53-5.76s-4.95,0-4.95,0s1.5,0.65,0.92,1.59
							c-0.58,0.94-10.25,5.66-11.29,5.32c-1.04-0.35-5.08-6.98-4.56-7.52c0.52-0.54,1.93-1.02,2.6-0.98c0,0-9.45-0.72-11.98,1.24
							c-2.53,1.96-8.29,17.39-8.52,18.14c0,0,6.54,0.1,7.19,3.92c0,0,0.29,0.11,0.29-0.12S359.71,88.17,359.87,88.66z"/>
						<path class="st28" d="M385.08,67.21c0,0-1.96-12.26-1.54-13.95c0.42-1.69-6.98,8.88-9.59,8.12c0,0-0.16,8.36-2.03,7.61
							l2.06,3.33l1.42,0.5C375.41,72.83,384.65,69.72,385.08,67.21z"/>
						<path class="st38" d="M373.42,63.93c0,0-3.11,0.92-3.25,1.35c-0.14,0.43,1.98,6.91,3.29,7.4c1.31,0.49,0.43,1.26,0.75,1.06
							s12.14-5.67,12.31-6.25c0.17-0.58-0.56-1.43-1.7-1.94l0.14,0.9c0,0,0.59,0.17,0.47,0.46s-11.07,5.38-11.07,5.38
							s-0.4-0.17-0.86-0.84c-0.46-0.66-2.94-5.67-3-5.9c-0.06-0.23,2.98-1.23,3.16-1.18c0.18,0.05,0.06-0.67,0.06-0.67L373.42,63.93
							z"/>
						<path class="st39" d="M378.35,95.79l-2.96-2.2c0,0,10.23,0.99,11.99-3.92c2.65-7.4-2.99-10.21-1.32-11.13
							c1.67-0.92,5.92-4.2,5.07-8.4c-0.43-2.13-0.94-3.39-1.52-4.31c0.27,0.02,0.5,0.06,0.67,0.11c1.15,0.35,4.03,1.27,5.53,5.76
							c1.5,4.49,5.98,15.94,5.98,15.94s-0.52,1.71-0.67,1.33c-0.37-0.89-0.77-3.64-3.46-4.26c-3.24-0.75-6.28,1.15-6.34,2.07
							c-0.04,0.67,0.87,2.24,1.75,2.24c0,0,0.31,0.64,0.2,0.64c-2.3,0-3.22-2.99-3.22-2.99s-2.49,16.56,5.92,32.57
							c0,0-4.2,6.54-10.28,7.75c-2.11-5.99-7.38-21.14-7.19-22.55c0.24-1.76-9.44-2.23-10.93-3.03c-1.49-0.8-3.66-6.44-3.13-6.79
							C364.97,94.27,378.35,95.79,378.35,95.79z"/>
						<path class="st39" d="M364.36,77.7"/>
						<path class="st39" d="M358.33,85.45c0,0,0.91-3.18,2.09-6.66c1.16-3.41,1.82-2.64,1.8-2.88c-0.06-0.69-2.59,5.8-2.59,8.54
							c0,2.74,0.06,3.21,0.06,3.21S359.13,85.65,358.33,85.45z"/>
						<path class="st34" d="M377.45,43.4c0,0-4.89-1.12-5.66-1.04c-0.77,0.09-0.68,0.6-0.42,1.04c0.26,0.43,1.4-0.29,4.94,0.36
							C376.91,43.87,378.22,43.58,377.45,43.4z"/>
						<path class="st34" d="M364.31,43.16c0,0,2.6-0.9,2.99-0.78c0.39,0.12,0.3,0.63,0.13,1.05c-0.17,0.42-0.69-0.36-2.56,0.14
							C364.55,43.64,363.9,43.3,364.31,43.16z"/>
						<path class="st39" d="M373.59,57.06c0,0-4.06-1.94-4.58-0.86C368.5,57.28,372.89,57.57,373.59,57.06z"/>
						<path class="st40" d="M375.4,55.53c0,0-4.5,0.35-8.39-0.41l0.56,0.75c0,0,4.49,0.8,6.19,0.72c0.3-0.02,1.45-0.27,1.54-0.78"/>
						<path class="st31" d="M396.4,73.43c0,0-3.18-7.1-4.33-7.07c-1.15,0.03-3.68,12.6-0.69,36.15c0.52,4.07,6.49,13.46,7.42,15.24
							l-2.14,1.5c0,0-9.22-13.19-9.71-15.29c-2.84-12.17-1.36-31.27-0.89-35.01c0.18-1.44,2.13-3.55,2.63-3.63s4.42,0.67,4.88,1.04
							C394.03,66.73,396.67,71.8,396.4,73.43z"/>
						<path class="st10" d="M392.34,85.87c-0.41,0.39,4.13,12.51,3.69,11.98c-0.66-0.8-9.1-0.6-9.96-0.64c0,0-0.4-1.2-1.67-2.12
							c-1.27-0.92-6.25-5.64-6.58-5.99s-1.94,0.22-1.83,1.38c0.12,1.16,1.14,2.51,1.14,2.51s-0.88,0.22-3.53-0.28
							c-0.28-0.05-1.96-0.51-2.24-0.57c-3.55-0.8-7.13-1.6-7.98-1.73c-1.61-0.24-1.67,0.63-1.32,0.93c0,0-1.84-0.71-2.42-0.44
							c-0.58,0.27-0.92,1.22-0.58,1.67c0.35,0.45,3.34,1.48,3.34,1.48s-1.09,0.64,0.35,1.74c0.58,0.44,1.15,1.42,1.15,1.42
							s7.14,2.72,9.1,3.06s10.71,1.38,12.09,1.5s13.94,6.91,15.43,6.68c1.5-0.23,5.14-1.84,5.1-2.99
							c-0.04-1.15-3.93-16.87-5.96-19.58C397.62,83.16,393.26,85.01,392.34,85.87z"/>
						<path class="st30" d="M386.67,46.23c-0.48,0.65-0.74,1.5-0.87,2.28c0.97-0.47,2.49-0.23,2.49-0.23s-1.66,0.24-2.57,0.84
							c-0.07,0.7-0.04,1.28,0.02,1.48c0.14,0.46-0.21,1-0.83-0.31C384.3,48.99,386.81,46.04,386.67,46.23z"/>
						<path class="st10" d="M365.81,144.38c1.02,0.85,6.13,9.25,6.12,20.5s-7.32,29.99-7.3,33.21c0.02,3.21-0.65,8.55-0.26,10.51
							c0.93,4.66,1.92,4.98,3.86,7.88c1.94,2.89,2.11,11.57-2.68,11.57c-4.8,0-8.41-5.14-8.24-8.04c0.16-2.8,0.22-4.18,0.59-8.68
							c0.37-4.5-4.24-7.75-3.97-9.96c0.48-3.86,2.16-4.34,3.01-5.63c0.85-1.29-5.27-23.28-4.46-28.18c1.1-6.67,0.08-11.56,0-13.18
							c-0.32-6.82,2.2-9,8.27-10"/>
						<path class="st29" d="M368.98,218.22c0.03,0.44-0.02,0.81-0.11,1.04c-2.08,5.84-8.96,1.93-9.29,1.71
							c-0.32-0.21-0.76-3.32-0.76-3.32s-0.63-3.11-0.09-5.46c0.54-2.36-1.39-6-1.39-6s0.44-3.08,0.33-5.54
							c-0.03-0.73-0.42-3.04-1.23-4.31c-0.01,0.15,0.06-0.05,0,0c-0.77,0.6-2.04,1.17-2.52,5.03c-0.28,2.21,4.34,5.46,3.97,9.96
							s-0.44,5.87-0.59,8.68c-0.16,2.89,3.45,8.04,8.24,8.04C369.58,228.04,370.08,221.89,368.98,218.22z"/>
						<path class="st34" d="M394.19,115.49c0,0,3.74,0.42,3.28,3.38c0,0,6.29,9.11,8.42,23.16c2.14,14.05-2.24,9.73,0.29,15.09
							c2.53,5.36,7.81,10.67,5.99,12.9c-1.83,2.24-4.38,4.11-13.82,4.34c-9.43,0.23-30.99-26.28-36.13-27.17
							c-18.59-3.21-21.11,4.82-20.36,1.77c0.18-0.72-0.74-1.29-0.11-2.88c0.25-0.63,1.13-1.28,1.82-2.37
							c4.62-7.3,8.41-13.29,14.57-18.29c2.39-1.94-1.29,0.99,4.61-7.13c0,0,2.28-3.92,6.27-3.92S394.19,115.49,394.19,115.49z"/>
						<path class="st10" d="M372.32,69c1.57,1.73,1.62,1.41,4.24,0.37c2.62-1.04,4.37-1.77,4.37-1.77l-1.37-6.91
							c0,0-0.98,0.66-3.01,1.14c-1.1,0.26-2.01-0.11-2.61-0.44c-0.27,0.08,0.22,0.06,0,0C373.95,61.39,373.81,68.49,372.32,69z"/>
					</g>
					<path class="st25" d="M324.9,91.71c0.48,0.85,16.44,28.19,16.44,28.19s0.5,1.28,2.57,1.47c1.47,0.14,18.13,3.13,18.13,3.13
						s3.83-0.31,2.45-4.1c-1.04-2.87-9.96-29.14-9.96-29.14s-0.36-0.81-3.21-0.96c-3.27-0.17-24.96-1.04-24.96-1.04
						S323.96,90.06,324.9,91.71z"/>
					<path class="st24" d="M325.16,92.26c0.48,0.85,14.99,28.64,14.99,28.64s0.5,1.28,2.57,1.47c1.47,0.14,18.71,2.08,18.71,2.08
						s3.25,0.74,1.87-3.05c-1.04-2.87-9.96-29.14-9.96-29.14s-0.36-0.81-3.21-0.96c-3.27-0.17-24.96-1.04-24.96-1.04
						S324.22,90.61,325.16,92.26z"/>
					<path class="st10" d="M329.01,112.26c1.53,1.45,5.68,4.01,7.65,3.71c1.97-0.3,4.19-0.68,4.19-0.68s1.51-1.56,2.1-1.98
						c1.46-1.06,0.39-1.73,0.39-1.73s3.02-0.97,3.37-1.4s0.03-1.4-0.54-1.68s-2.43,0.38-2.43,0.38c0.35-0.29,0.32-1.16-1.3-0.96
						c-0.86,0.11-0.39-0.76-3.96-0.04c-0.28,0.06-1.98,0.49-2.25,0.52c-0.58,0.08-3.02-0.8-3.02-0.8s-0.18-0.36-0.28-0.52
						c-0.56-0.91-1.17-2.24-1.17-2.24s-1.22,2.55-1.95,3.68S329.01,112.26,329.01,112.26z M338.28,113.88l2.76-0.96l-0.75,0.96
						H338.28z"/>
					<path class="st39" d="M352.49,83.74c0,0-0.21,0.58,0.37,0.99l0.52-0.92C353.38,83.81,352.7,83.63,352.49,83.74z"/>
				</g>
			</g>
		</g>
	</g>
	<g>
		<path class="st2" d="M485.53,172.82c2.33-2.06,4.89-4.02,7.68-5.87c2.78-1.85,5.79-3.47,9.02-4.84c3.23-1.37,6.73-2.46,10.51-3.25
			c3.78-0.79,7.87-1.19,12.26-1.19c5.98,0,11.42,0.82,16.33,2.47c4.91,1.65,9.12,4,12.62,7.06c3.5,3.06,6.22,6.75,8.14,11.08
			c1.92,4.33,2.89,9.17,2.89,14.53c0,5.22-0.76,9.74-2.27,13.55c-1.51,3.81-3.42,7.13-5.72,9.94c-2.3,2.82-4.79,5.26-7.47,7.32
			c-2.68,2.06-5.22,4-7.63,5.82c-2.41,1.82-4.48,3.61-6.23,5.36c-1.75,1.75-2.8,3.73-3.14,5.92l-2.37,15.04h-17.41l-1.75-16.8
			c-0.07-0.34-0.1-0.63-0.1-0.88c0-0.24,0-0.53,0-0.88c0-3.02,0.75-5.65,2.27-7.88c1.51-2.23,3.4-4.33,5.67-6.29
			c2.27-1.96,4.71-3.86,7.32-5.72c2.61-1.85,5.05-3.86,7.32-6.03c2.27-2.16,4.16-4.62,5.67-7.37c1.51-2.75,2.27-5.98,2.27-9.69
			c0-2.47-0.46-4.69-1.39-6.65c-0.93-1.96-2.22-3.64-3.86-5.05c-1.65-1.41-3.62-2.49-5.92-3.25c-2.3-0.75-4.79-1.13-7.47-1.13
			c-3.92,0-7.23,0.43-9.94,1.29c-2.71,0.86-5.02,1.82-6.9,2.89c-1.89,1.07-3.49,2.03-4.79,2.88c-1.31,0.86-2.47,1.29-3.5,1.29
			c-2.47,0-4.26-1.03-5.36-3.09L485.53,172.82z M505,294.31c0-2.13,0.39-4.16,1.19-6.08c0.79-1.92,1.89-3.57,3.3-4.95
			c1.41-1.37,3.07-2.47,5-3.3c1.92-0.82,3.98-1.24,6.18-1.24c2.13,0,4.16,0.41,6.08,1.24c1.92,0.82,3.57,1.92,4.95,3.3
			c1.37,1.38,2.47,3.02,3.3,4.95c0.82,1.92,1.24,3.95,1.24,6.08c0,2.2-0.41,4.24-1.24,6.13c-0.82,1.89-1.92,3.52-3.3,4.89
			c-1.38,1.38-3.02,2.46-4.95,3.25c-1.92,0.79-3.95,1.18-6.08,1.18c-2.2,0-4.26-0.4-6.18-1.18c-1.92-0.79-3.59-1.87-5-3.25
			c-1.41-1.37-2.51-3-3.3-4.89C505.4,298.55,505,296.51,505,294.31z"/>
	</g>
	<g>
		<g>
			<path class="st2" d="M41.3,141.18c0-1.44,0.27-2.81,0.8-4.11c0.53-1.3,1.28-2.41,2.23-3.34c0.95-0.93,2.08-1.67,3.38-2.23
				c1.3-0.56,2.69-0.84,4.18-0.84c1.44,0,2.81,0.28,4.11,0.84c1.3,0.56,2.41,1.3,3.34,2.23c0.93,0.93,1.67,2.04,2.23,3.34
				c0.56,1.3,0.84,2.67,0.84,4.11c0,1.49-0.28,2.87-0.84,4.14c-0.56,1.28-1.3,2.38-2.23,3.31c-0.93,0.93-2.04,1.66-3.34,2.19
				c-1.3,0.53-2.67,0.8-4.11,0.8c-1.49,0-2.88-0.27-4.18-0.8c-1.3-0.53-2.43-1.26-3.38-2.19c-0.95-0.93-1.69-2.03-2.23-3.31
				C41.56,144.04,41.3,142.66,41.3,141.18z"/>
			<path class="st2" d="M72.63,141.18c0-1.44,0.27-2.81,0.8-4.11c0.53-1.3,1.28-2.41,2.23-3.34c0.95-0.93,2.08-1.67,3.38-2.23
				c1.3-0.56,2.69-0.84,4.18-0.84c1.44,0,2.81,0.28,4.11,0.84c1.3,0.56,2.41,1.3,3.34,2.23c0.93,0.93,1.67,2.04,2.23,3.34
				c0.56,1.3,0.83,2.67,0.83,4.11c0,1.49-0.28,2.87-0.83,4.14c-0.56,1.28-1.3,2.38-2.23,3.31c-0.93,0.93-2.04,1.66-3.34,2.19
				c-1.3,0.53-2.67,0.8-4.11,0.8c-1.49,0-2.88-0.27-4.18-0.8c-1.3-0.53-2.43-1.26-3.38-2.19c-0.95-0.93-1.7-2.03-2.23-3.31
				C72.89,144.04,72.63,142.66,72.63,141.18z"/>
			<path class="st2" d="M103.95,141.18c0-1.44,0.27-2.81,0.8-4.11c0.53-1.3,1.28-2.41,2.23-3.34c0.95-0.93,2.08-1.67,3.38-2.23
				c1.3-0.56,2.69-0.84,4.18-0.84c1.44,0,2.81,0.28,4.11,0.84c1.3,0.56,2.41,1.3,3.34,2.23c0.93,0.93,1.67,2.04,2.23,3.34
				c0.56,1.3,0.83,2.67,0.83,4.11c0,1.49-0.28,2.87-0.83,4.14c-0.56,1.28-1.3,2.38-2.23,3.31c-0.93,0.93-2.04,1.66-3.34,2.19
				c-1.3,0.53-2.67,0.8-4.11,0.8c-1.49,0-2.88-0.27-4.18-0.8c-1.3-0.53-2.43-1.26-3.38-2.19c-0.95-0.93-1.7-2.03-2.23-3.31
				C104.22,144.04,103.95,142.66,103.95,141.18z"/>
		</g>
		<g>
			<path class="st2" d="M129.63,180.23H38.77c-12.26,0-22.24-9.98-22.24-22.24v-35.12c0-12.26,9.98-22.24,22.24-22.24h90.85
				c12.26,0,22.24,9.98,22.24,22.24v35.12C151.87,170.26,141.89,180.23,129.63,180.23z M38.77,103.63
				c-10.61,0-19.24,8.63-19.24,19.24v35.12c0,10.61,8.63,19.24,19.24,19.24h90.85c10.61,0,19.24-8.63,19.24-19.24v-35.12
				c0-10.61-8.63-19.24-19.24-19.24H38.77z"/>
			<g>
				<path class="st1" d="M140.18,172.09c1.07,3.43,17.36,39.21,17.36,39.21l-40.5-34.29"/>
				<path class="st2" d="M161.67,216.77l-45.6-38.61c-0.63-0.54-0.71-1.48-0.18-2.11c0.54-0.63,1.48-0.71,2.11-0.18l35.41,29.98
					c-4.71-10.41-13.85-30.69-14.67-33.31c-0.25-0.79,0.19-1.63,0.98-1.88c0.79-0.25,1.63,0.19,1.88,0.98
					c0.83,2.64,11.67,26.69,17.29,39.04L161.67,216.77z"/>
			</g>
		</g>
	</g>
</g>
</svg>
