<svg id="Camada_1" data-name="Camada 1" xmlns="http://www.w3.org/2000/svg" xmlns:xlink="http://www.w3.org/1999/xlink" viewBox="0 0 1774.2 1595.5"><defs><linearGradient id="Gradiente_sem_nome_17" x1="1030.58" y1="1178.68" x2="1937.45" y2="681.19" gradientUnits="userSpaceOnUse"><stop offset="0" stop-color="#d2333a"/><stop offset="1" stop-color="#58bebc"/></linearGradient></defs><title>mapa3</title><path d="M1490.68,356.43c-314.8-.16-570.13,254.91-570.29,569.71s254.91,570.13,569.71,570.29,570.13-254.91,570.29-569.71S1805.48,356.59,1490.68,356.43Zm-1.56,1118c-301-.15-544.88-244.28-544.73-545.27s244.28-544.88,545.27-544.73,544.88,244.28,544.73,545.27S1790.12,1474.58,1489.12,1474.43Z" transform="translate(-612.42 -156.75)" style="fill:url(#Gradiente_sem_nome_17)"/><circle cx="877.47" cy="772.18" r="505.54" style="fill:none;stroke:#8996a9;stroke-miterlimit:10;stroke-width:0.5px"/><circle cx="877.47" cy="772.18" r="465.54" style="fill:none;stroke:#8996a9;stroke-miterlimit:10;stroke-width:0.5px"/><circle cx="877.47" cy="772.18" r="425.54" style="fill:none;stroke:#8996a9;stroke-miterlimit:10;stroke-width:0.5px"/><circle cx="877.47" cy="772.18" r="385.54" style="fill:none;stroke:#8996a9;stroke-miterlimit:10;stroke-width:0.5px"/><circle cx="877.47" cy="772.18" r="345.54" style="fill:none;stroke:#8996a9;stroke-miterlimit:10;stroke-width:0.5px"/><circle cx="877.47" cy="772.18" r="305.54" style="fill:none;stroke:#8996a9;stroke-miterlimit:10;stroke-width:0.5px"/><circle cx="877.47" cy="772.18" r="265.54" style="fill:none;stroke:#8996a9;stroke-miterlimit:10;stroke-width:0.5px"/><circle cx="877.47" cy="772.18" r="225.54" style="fill:none;stroke:#8996a9;stroke-miterlimit:10;stroke-width:0.5px"/><circle cx="877.47" cy="772.18" r="185.54" style="fill:none;stroke:#8996a9;stroke-miterlimit:10;stroke-width:0.5px"/><circle cx="877.47" cy="772.18" r="145.54" style="fill:none;stroke:#8996a9;stroke-miterlimit:10;stroke-width:0.5px"/><rect x="461.52" y="874.29" width="390" height="88" transform="translate(-874.52 1417.6) rotate(-89.97)" style="fill:#38303b"/><text transform="translate(254.06 273.47) rotate(0.03)" style="font-size:46px;fill:#39313c;font-family:OpenSans-Semibold, Open Sans;font-weight:700">Empresariais</text><text transform="translate(348.71 1343.52) rotate(0.03)" style="font-size:46px;fill:#39313c;font-family:OpenSans-Semibold, Open Sans;font-weight:700">Criativas</text><text transform="translate(115.19 789.4) rotate(0.03)" style="font-size:46px;fill:#39313c;font-family:OpenSans-Semibold, Open Sans;font-weight:700">Sociais</text><text transform="translate(1234.1 273.97) rotate(0.03)" style="font-size:46px;fill:#39313c;font-family:OpenSans-Semibold, Open Sans;font-weight:700">Administrativas</text><text transform="matrix(0, -1, 1, 0, 54.43, 861.05)" style="font-size:46px;fill:#fff;font-family:OpenSans-Bold, Open Sans;font-weight:700">PESSOAS</text><rect x="2137.52" y="869.19" width="410" height="88" transform="translate(2644.47 -1585.62) rotate(90.03)" style="fill:#38303b"/><text transform="matrix(0, 1, -1, 0, 1719.9, 674.51)" style="font-size:46px;fill:#fff;font-family:OpenSans-Bold, Open Sans;font-weight:700">COISAS</text><rect x="694.06" width="380" height="88" style="fill:#38303b"/><text transform="translate(803.16 54.38)" style="font-size:46px;fill:#fff;font-family:OpenSans-Bold, Open Sans;font-weight:700">DADOS</text><rect x="700.06" y="1475" width="374" height="88" style="fill:#38303b"/><text transform="translate(815.3 1529.38) scale(0.97 1)" style="font-size:46px;fill:#fff;font-family:OpenSans-Bold, Open Sans;font-weight:700">IDEIAS</text><text transform="translate(1233.57 1343.97) rotate(0.03)" style="font-size:46px;fill:#39313c;font-family:OpenSans-Semibold, Open Sans;font-weight:700">Intelectuais</text><text transform="translate(1479.85 772.1) rotate(0.03)" style="font-size:46px;fill:#39313c;font-family:OpenSans-Semibold, Open Sans;font-weight:700">Práticas</text><path d="M1493.22,1519.74" transform="translate(-612.42 -156.75)" style="fill:none;stroke:#8996a9;stroke-miterlimit:10;stroke-width:0.5px"/><text transform="translate(1415.82 1461.8)" style="font-size:46px;fill:#231f20;font-family:OpenSans, Open Sans">Primeira etapa</text><text transform="translate(1415.82 1545.8)" style="font-size:46px;fill:#231f20;font-family:OpenSans, Open Sans">Segunda etapa</text><rect x="1332.94" y="1374" width="434.11" height="221" style="fill:none;stroke:#39313c;stroke-miterlimit:10"/><path d="M1491.11,1520.43" transform="translate(-612.42 -156.75)" style="fill:none;stroke:#8996a9;stroke-miterlimit:10;stroke-width:0.5px"/><path d="M1600.15,386" transform="translate(-612.42 -156.75)" style="fill:none;stroke:#010101;stroke-miterlimit:10"/></svg>