<svg id="Camada_1" data-name="Camada 1" xmlns="http://www.w3.org/2000/svg" xmlns:xlink="http://www.w3.org/1999/xlink" viewBox="0 0 596.67 492.35"><defs><linearGradient id="Gradiente_sem_nome_17" x1="273.81" y1="354.45" x2="559.47" y2="197.75" gradientUnits="userSpaceOnUse"><stop offset="0" stop-color="#d2333a"/><stop offset="1" stop-color="#58bebc"/></linearGradient></defs><title>mapa</title><path d="M418.74,95.45A179.55,179.55,0,1,0,598.2,275.09,179.55,179.55,0,0,0,418.74,95.45Zm-.49,352.17A171.67,171.67,0,1,1,590,276,171.67,171.67,0,0,1,418.25,447.62Z" transform="translate(-123.19 -32.55)" style="fill:url(#Gradiente_sem_nome_17)"/><circle cx="295.3" cy="243.24" r="159.24" style="fill:none;stroke:#8996a9;stroke-miterlimit:10;stroke-width:0.5px"/><circle cx="295.3" cy="243.24" r="146.64" style="fill:none;stroke:#8996a9;stroke-miterlimit:10;stroke-width:0.5px"/><circle cx="295.3" cy="243.24" r="134.04" style="fill:none;stroke:#8996a9;stroke-miterlimit:10;stroke-width:0.5px"/><circle cx="295.3" cy="243.24" r="121.44" style="fill:none;stroke:#8996a9;stroke-miterlimit:10;stroke-width:0.5px"/><circle cx="295.3" cy="243.24" r="108.84" style="fill:none;stroke:#8996a9;stroke-miterlimit:10;stroke-width:0.5px"/><circle cx="295.3" cy="243.24" r="96.24" style="fill:none;stroke:#8996a9;stroke-miterlimit:10;stroke-width:0.5px"/><circle cx="295.3" cy="243.24" r="83.64" style="fill:none;stroke:#8996a9;stroke-miterlimit:10;stroke-width:0.5px"/><circle cx="295.3" cy="243.24" r="71.04" style="fill:none;stroke:#8996a9;stroke-miterlimit:10;stroke-width:0.5px"/><circle cx="295.3" cy="243.24" r="58.44" style="fill:none;stroke:#8996a9;stroke-miterlimit:10;stroke-width:0.5px"/><circle cx="295.3" cy="243.24" r="45.84" style="fill:none;stroke:#8996a9;stroke-miterlimit:10;stroke-width:0.5px"/><rect x="75.65" y="258.57" width="122.85" height="27.72" transform="translate(-258.61 376.82) rotate(-89.97)" style="fill:#38303b"/><text transform="translate(126.52 82.77) rotate(0.03)" style="font-size:10.079901695251465px;fill:#39313c;font-family:OpenSans-Semibold, Open Sans;font-weight:700">Empresariais</text><text transform="translate(147.21 419.83) rotate(0.03)" style="font-size:10.079901695251465px;fill:#39313c;font-family:OpenSans-Semibold, Open Sans;font-weight:700">Criativas</text><text transform="translate(66.46 245.28) rotate(0.03)" style="font-size:10.079901695251465px;fill:#39313c;font-family:OpenSans-Semibold, Open Sans;font-weight:700">Sociais</text><text transform="translate(407.6 82.91) rotate(0.03)" style="font-size:10.079901695251465px;fill:#39313c;font-family:OpenSans-Semibold, Open Sans;font-weight:700">Administrativas</text><text transform="matrix(0, -1, 1, 0, 17.04, 260.83)" style="font-size:10.079900741577148px;fill:#fff;font-family:OpenSans-Bold, Open Sans;font-weight:700">PESSOAS</text><rect x="641.39" y="256.97" width="129.15" height="27.72" transform="translate(853.96 -467.55) rotate(90.03)" style="fill:#38303b"/><text transform="matrix(0, 1, -1, 0, 579.63, 221.22)" style="font-size:10.079900741577148px;fill:#fff;font-family:OpenSans-Bold, Open Sans;font-weight:700">COISAS</text><rect x="237.53" width="119.7" height="27.72" style="fill:#38303b"/><text transform="translate(278.67 17.06)" style="font-size:10.079999923706055px;fill:#fff;font-family:OpenSans-Bold, Open Sans;font-weight:700">DADOS</text><rect x="239.42" y="464.63" width="117.81" height="27.72" style="fill:#38303b"/><text transform="translate(281.34 481.69) scale(0.97 1)" style="font-size:10.079999923706055px;fill:#fff;font-family:OpenSans-Bold, Open Sans;font-weight:700">IDEIAS</text><text transform="translate(407.43 419.96) rotate(0.03)" style="font-size:10.079901695251465px;fill:#39313c;font-family:OpenSans-Semibold, Open Sans;font-weight:700">Intelectuais</text><text transform="translate(491.31 239.82) rotate(0.03)" style="font-size:10.079901695251465px;fill:#39313c;font-family:OpenSans-Semibold, Open Sans;font-weight:700">Práticas</text><path d="M419.54,461.89" transform="translate(-123.19 -32.55)" style="fill:none;stroke:#8996a9;stroke-miterlimit:10;stroke-width:0.5px"/><path d="M418.87,462.11" transform="translate(-123.19 -32.55)" style="fill:none;stroke:#8996a9;stroke-miterlimit:10;stroke-width:0.5px"/><path d="M453.22,104.77" transform="translate(-123.19 -32.55)" style="fill:none;stroke:#010101;stroke-miterlimit:10"/></svg>