<svg id="Camada_1" data-name="Camada 1" xmlns="http://www.w3.org/2000/svg" xmlns:xlink="http://www.w3.org/1999/xlink" viewBox="0 0 813.4 673.11"><defs><linearGradient id="Gradiente_sem_nome_17" x1="257.39" y1="379.7" x2="574.8" y2="205.58" gradientUnits="userSpaceOnUse"><stop offset="0" stop-color="#d2333a"/><stop offset="1" stop-color="#58bebc"/></linearGradient></defs><title>mapa2</title><path d="M418.43,91.91c-110.18-.06-199.54,89.22-199.6,199.4S308,490.86,418.23,490.91s199.54-89.22,199.6-199.4S528.61,92,418.43,91.91Zm-.55,391.3c-105.35-.05-190.71-85.5-190.65-190.85s85.5-190.71,190.85-190.65,190.71,85.5,190.65,190.85S523.23,483.27,417.88,483.21Z" transform="translate(-14.82 41.01)" style="fill:url(#Gradiente_sem_nome_17)"/><circle cx="403.33" cy="333.29" r="176.94" style="fill:none;stroke:#8996a9;stroke-miterlimit:10;stroke-width:0.5px"/><circle cx="403.33" cy="333.29" r="162.94" style="fill:none;stroke:#8996a9;stroke-miterlimit:10;stroke-width:0.5px"/><circle cx="403.33" cy="333.29" r="148.94" style="fill:none;stroke:#8996a9;stroke-miterlimit:10;stroke-width:0.5px"/><circle cx="403.33" cy="333.29" r="134.94" style="fill:none;stroke:#8996a9;stroke-miterlimit:10;stroke-width:0.5px"/><circle cx="403.33" cy="333.29" r="120.94" style="fill:none;stroke:#8996a9;stroke-miterlimit:10;stroke-width:0.5px"/><circle cx="403.33" cy="333.29" r="106.94" style="fill:none;stroke:#8996a9;stroke-miterlimit:10;stroke-width:0.5px"/><circle cx="403.33" cy="333.29" r="92.94" style="fill:none;stroke:#8996a9;stroke-miterlimit:10;stroke-width:0.5px"/><circle cx="403.33" cy="333.29" r="78.94" style="fill:none;stroke:#8996a9;stroke-miterlimit:10;stroke-width:0.5px"/><circle cx="403.33" cy="333.29" r="64.94" style="fill:none;stroke:#8996a9;stroke-miterlimit:10;stroke-width:0.5px"/><circle cx="403.33" cy="333.29" r="50.94" style="fill:none;stroke:#8996a9;stroke-miterlimit:10;stroke-width:0.5px"/><rect x="-68.26" y="262.87" width="214.71" height="48.45" transform="translate(-262.84 367.06) rotate(-89.97)" style="fill:#38303b"/><text transform="translate(160.69 161.7) rotate(0.03)" style="font-size:20px;fill:#39313c;font-family:OpenSans-Semibold, Open Sans;font-weight:700">Empresariais</text><text transform="translate(201.89 536.22) rotate(0.03)" style="font-size:20px;fill:#39313c;font-family:OpenSans-Semibold, Open Sans;font-weight:700">Criativas</text><text transform="translate(120.24 342.28) rotate(0.03)" style="font-size:20px;fill:#39313c;font-family:OpenSans-Semibold, Open Sans;font-weight:700">Sociais</text><text transform="translate(528.15 161.88) rotate(0.03)" style="font-size:20px;fill:#39313c;font-family:OpenSans-Semibold, Open Sans;font-weight:700">Administrativa</text><text transform="matrix(0, -1, 1, 0, 29.78, 364.71)" style="font-size:17.6174259185791px;fill:#fff;font-family:OpenSans-Bold, Open Sans;font-weight:700">PESSOAS</text><rect x="691.08" y="260.71" width="225.73" height="48.45" transform="translate(1074.46 -477.85) rotate(90.03)" style="fill:#38303b"/><text transform="matrix(0, 1, -1, 0, 783.62, 296.13)" style="font-size:17.6174259185791px;fill:#fff;font-family:OpenSans-Bold, Open Sans;font-weight:700">COISAS</text><rect x="300.81" width="209.21" height="48.45" style="fill:#38303b"/><text transform="translate(372.71 29.82)" style="font-size:17.617599487304688px;fill:#fff;font-family:OpenSans-Bold, Open Sans;font-weight:700">DADOS</text><rect x="303.73" y="624.66" width="205.91" height="48.45" style="fill:#38303b"/><text transform="translate(376.99 654.48) scale(0.97 1)" style="font-size:17.617599487304688px;fill:#fff;font-family:OpenSans-Bold, Open Sans;font-weight:700">IDEIAS</text><text transform="translate(527.96 536.38) rotate(0.03)" style="font-size:20px;fill:#39313c;font-family:OpenSans-Semibold, Open Sans;font-weight:700">Intelectuais</text><text transform="translate(621.16 336.23) rotate(0.03)" style="font-size:20px;fill:#39313c;font-family:OpenSans-Semibold, Open Sans;font-weight:700">Práticas</text><path d="M419.32,499.07" transform="translate(-14.82 41.01)" style="fill:none;stroke:#8996a9;stroke-miterlimit:10;stroke-width:0.5px"/><path d="M418.58,499.31" transform="translate(-14.82 41.01)" style="fill:none;stroke:#8996a9;stroke-miterlimit:10;stroke-width:0.5px"/><path d="M456.74,102.27" transform="translate(-14.82 41.01)" style="fill:none;stroke:#010101;stroke-miterlimit:10"/></svg>