<svg id="Camada_1" data-name="Camada 1" xmlns="http://www.w3.org/2000/svg" xmlns:xlink="http://www.w3.org/1999/xlink" viewBox="0 0 813.9 673.61"><defs><linearGradient id="Gradiente_sem_nome_17" x1="244.52" y1="386.76" x2="587.31" y2="198.71" gradientUnits="userSpaceOnUse"><stop offset="0" stop-color="#d2333a"/><stop offset="1" stop-color="#58bebc"/></linearGradient></defs><title>parte-4</title><path d="M418.44,76c-119-.06-215.51,96.36-215.57,215.35s96.36,215.51,215.35,215.57,215.51-96.36,215.57-215.35S537.43,76,418.44,76Zm-.59,422.6c-113.78-.06-206-92.34-205.91-206.11s92.34-206,206.11-205.91S624,178.88,624,292.65,531.62,498.61,417.85,498.56Z" transform="translate(-14.82 41.01)" style="fill:url(#Gradiente_sem_nome_17)"/><circle cx="403.33" cy="333.29" r="176.94" style="fill:none;stroke:#8996a9;stroke-miterlimit:10;stroke-width:0.5px"/><circle cx="403.33" cy="333.29" r="162.94" style="fill:none;stroke:#8996a9;stroke-miterlimit:10;stroke-width:0.5px"/><circle cx="403.33" cy="333.29" r="148.94" style="fill:none;stroke:#8996a9;stroke-miterlimit:10;stroke-width:0.5px"/><circle cx="403.33" cy="333.29" r="134.94" style="fill:none;stroke:#8996a9;stroke-miterlimit:10;stroke-width:0.5px"/><circle cx="403.33" cy="333.29" r="120.94" style="fill:none;stroke:#8996a9;stroke-miterlimit:10;stroke-width:0.5px"/><circle cx="403.33" cy="333.29" r="106.94" style="fill:none;stroke:#8996a9;stroke-miterlimit:10;stroke-width:0.5px"/><circle cx="403.33" cy="333.29" r="92.94" style="fill:none;stroke:#8996a9;stroke-miterlimit:10;stroke-width:0.5px"/><circle cx="403.33" cy="333.29" r="78.94" style="fill:none;stroke:#8996a9;stroke-miterlimit:10;stroke-width:0.5px"/><circle cx="403.33" cy="333.29" r="64.94" style="fill:none;stroke:#8996a9;stroke-miterlimit:10;stroke-width:0.5px"/><circle cx="403.33" cy="333.29" r="50.94" style="fill:none;stroke:#8996a9;stroke-miterlimit:10;stroke-width:0.5px"/><rect x="-68.26" y="262.87" width="214.71" height="48.45" transform="translate(-262.84 367.06) rotate(-89.97)" style="fill:#38303b"/><text transform="translate(129.69 161.7) rotate(0.03)" style="font-size:20px;fill:#39313c;font-family:OpenSans-Semibold, Open Sans;font-weight:700">Empresariais</text><text transform="translate(201.89 536.22) rotate(0.03)" style="font-size:20px;fill:#39313c;font-family:OpenSans-Semibold, Open Sans;font-weight:700">Criativas</text><text transform="translate(120.24 342.28) rotate(0.03)" style="font-size:20px;fill:#39313c;font-family:OpenSans-Semibold, Open Sans;font-weight:700">Sociais</text><text transform="translate(552.15 161.88) rotate(0.03)" style="font-size:20px;fill:#39313c;font-family:OpenSans-Semibold, Open Sans;font-weight:700">Administrativas</text><text transform="matrix(0, -1, 1, 0, 29.7, 364.63)" style="font-size:17.617429733276367px;fill:#fff;font-family:OpenSans-Bold, Open Sans;font-weight:700">PESSOAS</text><rect x="691.08" y="260.71" width="225.73" height="48.45" transform="translate(1074.46 -477.85) rotate(90.03)" style="fill:#38303b"/><text transform="matrix(0, 1, -1, 0, 783.53, 296.05)" style="font-size:17.617429733276367px;fill:#fff;font-family:OpenSans-Bold, Open Sans;font-weight:700">COISAS</text><rect x="300.81" width="209.21" height="48.45" style="fill:#38303b"/><text transform="translate(372.71 29.82)" style="font-size:17.617599487304688px;fill:#fff;font-family:OpenSans-Bold, Open Sans;font-weight:700">DADOS</text><rect x="303.73" y="624.66" width="205.91" height="48.45" style="fill:#38303b"/><text transform="translate(376.99 654.48) scale(0.97 1)" style="font-size:17.617599487304688px;fill:#fff;font-family:OpenSans-Bold, Open Sans;font-weight:700">IDEIAS</text><text transform="translate(527.96 536.38) rotate(0.03)" style="font-size:20px;fill:#39313c;font-family:OpenSans-Semibold, Open Sans;font-weight:700">Intelectuais</text><text transform="translate(621.16 336.23) rotate(0.03)" style="font-size:20px;fill:#39313c;font-family:OpenSans-Semibold, Open Sans;font-weight:700">Práticas</text><path d="M419.32,499.07" transform="translate(-14.82 41.01)" style="fill:none;stroke:#8996a9;stroke-miterlimit:10;stroke-width:0.5px"/><path d="M418.58,499.31" transform="translate(-14.82 41.01)" style="fill:none;stroke:#8996a9;stroke-miterlimit:10;stroke-width:0.5px"/><path d="M456.74,102.27" transform="translate(-14.82 41.01)" style="fill:none;stroke:#010101;stroke-miterlimit:10"/><polygon points="651.4 588.69 643.9 602.53 651.4 602.53 658.9 602.53 651.4 588.69" style="fill:#39313c"/><text transform="translate(666.78 601.19)" style="font-size:16px;fill:#231f20;font-family:OpenSans, Open Sans">Primeira etapa</text><circle cx="650.4" cy="638.11" r="7.5" style="fill:#39313c"/><text transform="translate(666.78 643.19)" style="font-size:16px;fill:#231f20;font-family:OpenSans, Open Sans">Segunda etapa</text><rect x="614.9" y="562.61" width="198.5" height="110.5" style="fill:none;stroke:#39313c;stroke-miterlimit:10"/><circle cx="403.33" cy="333.29" r="191.09" style="fill:none;stroke:#8996a9;stroke-miterlimit:10;stroke-width:0.5px"/></svg>